<svg xmlns="http://www.w3.org/2000/svg" viewBox="0 0 824.02 16.34">
  <defs>
    <style>
      .cls-1 {
        fill: #221e1f;
      }
    </style>
  </defs>
  <title>アートボード 21</title>
  <g id="type">
    <g>
      <path class="cls-1" d="M0,1H3.5V6.1H6.1V1H9.6V14.9H6.1V9H3.5V14.9H0Z"/>
      <path class="cls-1" d="M14.76,1H18.3L22,14.9H18.32l-.52-2.32H15.06l-.48,2.32H11ZM15.6,10h1.64l-.5-2.32a11.6,11.6,0,0,1-.21-1.33q-.07-.69-.09-1.09h0c0,.13,0,.29,0,.48s0,.39-.07.6-.07.44-.1.67a6.78,6.78,0,0,1-.13.67Z"/>
      <path class="cls-1" d="M23.42,1h3.44V12h4.06V14.9h-7.5Z"/>
      <path class="cls-1" d="M32.86,1H36.3V12h4.06V14.9h-7.5Z"/>
      <path class="cls-1" d="M47.2,15.16a7.12,7.12,0,0,1-2.49-.4,4.15,4.15,0,0,1-1.78-1.26,5.74,5.74,0,0,1-1.07-2.23,13.27,13.27,0,0,1-.36-3.33,13.26,13.26,0,0,1,.36-3.33,5.75,5.75,0,0,1,1.08-2.24A4.17,4.17,0,0,1,44.73,1.1,7.07,7.07,0,0,1,47.22.7a7,7,0,0,1,2.48.4,4,4,0,0,1,1.76,1.27,5.82,5.82,0,0,1,1,2.24,13.63,13.63,0,0,1,.35,3.33,13.64,13.64,0,0,1-.35,3.33,5.76,5.76,0,0,1-1.06,2.24,4,4,0,0,1-1.77,1.26A7.19,7.19,0,0,1,47.2,15.16Zm0-2.84a1.89,1.89,0,0,0,.92-.2,1.36,1.36,0,0,0,.57-.7,4.91,4.91,0,0,0,.3-1.37,22,22,0,0,0,.09-2.21A20.6,20.6,0,0,0,49,5.7a4.58,4.58,0,0,0-.3-1.32,1.31,1.31,0,0,0-.57-.67,2.33,2.33,0,0,0-1.84,0,1.31,1.31,0,0,0-.57.68,4.73,4.73,0,0,0-.3,1.34,20.89,20.89,0,0,0-.09,2.15,21.67,21.67,0,0,0,.09,2.2,4.91,4.91,0,0,0,.3,1.36,1.32,1.32,0,0,0,.57.69A2,2,0,0,0,47.18,12.32Z"/>
      <path class="cls-1" d="M53.8,1h3.6L58,4.68q.14.82.23,1.74c.06.62.11,1.2.15,1.75s.07,1,.09,1.44,0,.68,0,.81h0q0-.84.17-2.12t.51-3.24L60,1h2.78L63.54,5q.1.56.21,1.24t.2,1.39q.09.71.16,1.42l.13,1.33h0q0-1,.11-2.57t.29-3.17L65.22,1h3.56L66.14,14.9H62.68l-1-5.38q-.16-1-.24-1.9T61.32,6h0q0,.68-.12,1.6t-.24,1.9l-1,5.38H56.4Z"/>
      <path class="cls-1" d="M70.42,1H78V3.9h-4.1V6.24h3.22V9.08H73.92v2.84h4.46v3h-8Z"/>
      <path class="cls-1" d="M80.1,1h7.6V3.9H83.6V6.24h3.22V9.08H83.6v2.84h4.46v3h-8Z"/>
      <path class="cls-1" d="M89.78,1H93L95.5,6.38c.11.23.21.47.32.74s.21.54.31.82.19.55.28.82.16.52.23.76h0c0-.2-.06-.45-.09-.74s-.07-.6-.1-.93-.06-.66-.09-1,0-.65,0-.94V1H99.5V14.9H96L93.7,9.44q-.32-.76-.62-1.6t-.52-1.5h0q0,.2.09.61t.14.95c0,.36.09.75.12,1.17s.05.85.05,1.29V14.9H89.78Z"/>
      <path class="cls-1" d="M106.4,1h3.24l2.48,5.42c.11.23.21.47.32.74s.21.54.31.82.19.55.28.82.16.52.23.76h0c0-.2-.06-.45-.09-.74s-.07-.6-.1-.93-.06-.66-.09-1,0-.65,0-.94V1h3.16V14.9h-3.46l-2.34-5.46q-.32-.76-.62-1.6t-.52-1.5h0q0,.2.09.61t.14.95c0,.36.09.75.12,1.17s.05.85.05,1.29V14.9H106.4Z"/>
      <path class="cls-1" d="M118.56,1h3.54V14.9h-3.54Z"/>
      <path class="cls-1" d="M131.74,14.13a3,3,0,0,1-1.07.78,3.28,3.28,0,0,1-1.29.26,5.72,5.72,0,0,1-2.19-.4,4,4,0,0,1-1.64-1.26,6,6,0,0,1-1-2.23,13.64,13.64,0,0,1-.35-3.33,13.06,13.06,0,0,1,.4-3.52,5.62,5.62,0,0,1,1.14-2.23A3.93,3.93,0,0,1,127.52,1,8,8,0,0,1,129.9.7a8.85,8.85,0,0,1,1.32.09,5.75,5.75,0,0,1,1.12.28,6.18,6.18,0,0,1,1,.47,7.15,7.15,0,0,1,.94.66l-1.9,2.5a7.83,7.83,0,0,0-1-.76,2.36,2.36,0,0,0-1.24-.3,3,3,0,0,0-1,.14,1.17,1.17,0,0,0-.64.57,3.61,3.61,0,0,0-.35,1.23A16.5,16.5,0,0,0,128,7.73a19.82,19.82,0,0,0,.11,2.35,4.13,4.13,0,0,0,.36,1.36,1.25,1.25,0,0,0,.63.63,2.51,2.51,0,0,0,.92.15,2.29,2.29,0,0,0,.67-.08,1.94,1.94,0,0,0,.41-.18V9.8h-1.36V7h4.82V14.9h-2.5Z"/>
      <path class="cls-1" d="M136.72,1h3.5V6.1h2.6V1h3.5V14.9h-3.5V9h-2.6V14.9h-3.5Z"/>
      <path class="cls-1" d="M151,3.9H148.1V1h9.2V3.9h-2.88v11H151Z"/>
      <path class="cls-1" d="M166.36,1h3.54l3.7,13.94h-3.68l-.52-2.32h-2.74l-.48,2.32h-3.56ZM167.2,10h1.64l-.5-2.32a11.6,11.6,0,0,1-.21-1.33q-.07-.69-.09-1.09h0c0,.13,0,.29,0,.48s0,.39-.07.6-.07.44-.1.67a6.78,6.78,0,0,1-.13.67Z"/>
      <path class="cls-1" d="M176.28,3.9H173.4V1h9.2V3.9h-2.88v11h-3.44Z"/>
      <path class="cls-1" d="M188.9,1h3.44V12h4.06V14.9h-7.5Z"/>
      <path class="cls-1" d="M198.33,1h7.6V3.9h-4.1V6.24h3.22V9.08h-3.22v2.84h4.46v3h-8Z"/>
      <path class="cls-1" d="M208.07,1h3.54V14.9h-3.54Z"/>
      <path class="cls-1" d="M218.61,1h3.5V6.1h2.6V1h3.5V14.9h-3.5V9h-2.6V14.9h-3.5Z"/>
      <path class="cls-1" d="M233.37,1h3.54l3.7,13.94h-3.68l-.52-2.32h-2.74l-.48,2.32h-3.56Zm.84,9.06h1.64l-.5-2.32a11.6,11.6,0,0,1-.21-1.33q-.07-.69-.09-1.09h0c0,.13,0,.29,0,.48s0,.39-.07.6-.07.44-.1.67a6.78,6.78,0,0,1-.13.67Z"/>
      <path class="cls-1" d="M246.53,15.16a7.57,7.57,0,0,1-1.89-.23,3.87,3.87,0,0,1-1.55-.79,3.79,3.79,0,0,1-1-1.49,6.2,6.2,0,0,1-.38-2.33V1h3.5V10.5a2.62,2.62,0,0,0,.27,1.35,1.65,1.65,0,0,0,2.22,0,2.62,2.62,0,0,0,.27-1.35V1h3.5v9.36a5.91,5.91,0,0,1-.4,2.33A3.9,3.9,0,0,1,250,14.14a4,4,0,0,1-1.56.79A7.5,7.5,0,0,1,246.53,15.16Z"/>
      <path class="cls-1" d="M259.07,15.16a7.12,7.12,0,0,1-2.49-.4,4.15,4.15,0,0,1-1.78-1.26,5.74,5.74,0,0,1-1.07-2.23,13.27,13.27,0,0,1-.36-3.33,13.26,13.26,0,0,1,.36-3.33,5.75,5.75,0,0,1,1.08-2.24A4.17,4.17,0,0,1,256.6,1.1a7.07,7.07,0,0,1,2.49-.4,7,7,0,0,1,2.48.4,4,4,0,0,1,1.76,1.27,5.82,5.82,0,0,1,1,2.24,13.63,13.63,0,0,1,.35,3.33,13.64,13.64,0,0,1-.35,3.33,5.76,5.76,0,0,1-1.06,2.24,4,4,0,0,1-1.77,1.26A7.19,7.19,0,0,1,259.07,15.16Zm0-2.84a1.89,1.89,0,0,0,.92-.2,1.36,1.36,0,0,0,.57-.7,4.91,4.91,0,0,0,.3-1.37,22,22,0,0,0,.09-2.21,20.6,20.6,0,0,0-.09-2.14,4.58,4.58,0,0,0-.3-1.32,1.31,1.31,0,0,0-.57-.67,2.33,2.33,0,0,0-1.84,0,1.31,1.31,0,0,0-.57.68,4.73,4.73,0,0,0-.3,1.34,20.89,20.89,0,0,0-.09,2.15,21.67,21.67,0,0,0,.09,2.2,4.91,4.91,0,0,0,.3,1.36,1.32,1.32,0,0,0,.57.69A2,2,0,0,0,259.05,12.32Z"/>
      <path class="cls-1" d="M266.73,1h3.44V12h4.06V14.9h-7.5Z"/>
      <path class="cls-1" d="M276.23,1h3.54V14.9h-3.54Z"/>
      <path class="cls-1" d="M286.77,1h7.48V3.9h-4V6.24h3.08V9.08h-3.06V14.9h-3.5Z"/>
      <path class="cls-1" d="M295.93,1h4.56a9.67,9.67,0,0,1,2.49.27,3.89,3.89,0,0,1,1.58.79,2.88,2.88,0,0,1,.84,1.26,5.29,5.29,0,0,1,.25,1.7,6.08,6.08,0,0,1-.16,1.5,2.89,2.89,0,0,1-.47,1,2.4,2.4,0,0,1-.76.66,4.63,4.63,0,0,1-1,.41,2,2,0,0,1,1.15.91,7,7,0,0,1,.69,1.71l1,3.7h-3.72l-.94-4a7.83,7.83,0,0,0-.23-.78,1.28,1.28,0,0,0-.28-.47,1,1,0,0,0-.44-.24,2.92,2.92,0,0,0-.69-.07h-.32V14.9h-3.5Zm4.78,5.84a1.13,1.13,0,0,0,1-.37A2.1,2.1,0,0,0,302,5.22a1.46,1.46,0,0,0-.31-1.06,1.32,1.32,0,0,0-1-.3h-1.26V6.8Z"/>
      <path class="cls-1" d="M307.77,1h3.54V14.9h-3.54Z"/>
      <path class="cls-1" d="M313.79,1h4.88a7,7,0,0,1,2.29.35,3.86,3.86,0,0,1,1.69,1.14,5.33,5.33,0,0,1,1,2.08,11.86,11.86,0,0,1,.36,3.15,15.87,15.87,0,0,1-.25,2.93,6.48,6.48,0,0,1-.85,2.28,4.16,4.16,0,0,1-1.61,1.48,5.46,5.46,0,0,1-2.55.53h-5Zm4.74,11a2,2,0,0,0,.77-.14,1.11,1.11,0,0,0,.54-.59,4.47,4.47,0,0,0,.31-1.32,21,21,0,0,0,.1-2.31,12.35,12.35,0,0,0-.12-1.94,3.19,3.19,0,0,0-.35-1.1,1.11,1.11,0,0,0-.57-.5,2.34,2.34,0,0,0-.78-.12h-1.14v8Z"/>
      <path class="cls-1" d="M328.41,1H332l3.7,13.94H332l-.52-2.32h-2.74l-.48,2.32h-3.56Zm.84,9.06h1.64l-.5-2.32a11.6,11.6,0,0,1-.21-1.33q-.07-.69-.09-1.09h0c0,.13,0,.29,0,.48s0,.39-.07.6-.07.44-.1.67a6.78,6.78,0,0,1-.13.67Z"/>
      <path class="cls-1" d="M338.35,8.84,334.75,1h3.8l1,2.48q.28.72.45,1.3A9.3,9.3,0,0,1,340.23,6q.14-.7.29-1.29a9.46,9.46,0,0,1,.41-1.23l1-2.54h3.7l-3.78,7.8V14.9h-3.5Z"/>
      <path class="cls-1" d="M352.25,15.84a21.13,21.13,0,0,1,.64-3.72,20,20,0,0,1,1.07-3,14.5,14.5,0,0,1,1.31-2.34,13.37,13.37,0,0,1,1.34-1.66H351v-3h8.88V5.28a9.58,9.58,0,0,0-1.12,1.4,15.13,15.13,0,0,0-1.33,2.42,22,22,0,0,0-1.15,3.27,18.29,18.29,0,0,0-.6,4Z"/>
      <path class="cls-1" d="M361.71,1h4.08a13.52,13.52,0,0,1,2.32.18,4.18,4.18,0,0,1,1.71.67,3.08,3.08,0,0,1,1.05,1.33,5.54,5.54,0,0,1,.36,2.16,8.33,8.33,0,0,1-.2,1.91,3.2,3.2,0,0,1-.76,1.46,3.58,3.58,0,0,1-1.58.94,8.8,8.8,0,0,1-2.64.33h-.84v5h-3.5Zm4.38,6.18a1.9,1.9,0,0,0,1.18-.3,1.61,1.61,0,0,0,.38-1.28,3.38,3.38,0,0,0-.09-.87,1.2,1.2,0,0,0-.27-.52.88.88,0,0,0-.43-.25,2.5,2.5,0,0,0-.57-.06h-1.08V7.14Z"/>
      <path class="cls-1" d="M373.47,1h3.9l1,5q.18.84.29,1.59t.21,1.59h0q.1-.82.22-1.6t.3-1.54l1.14-5h3.82l1,13.94H382l-.3-5.22q-.08-.94-.09-1.64t0-1.58h0q-.1.9-.22,1.84t-.3,1.8l-1,4.8h-2.46l-1-4.8q-.2-1-.31-1.84t-.23-1.8h0q0,.94,0,1.68t-.06,1.6l-.3,5.16h-3.38Z"/>
      <path class="cls-1" d="M400,15.16a4.25,4.25,0,0,1-3.47-1.32,6.48,6.48,0,0,1-1.09-4.16,6.27,6.27,0,0,1,1.08-4.09,4.07,4.07,0,0,1,3.28-1.27,5.23,5.23,0,0,1,1.88.31,4.44,4.44,0,0,1,1.44.9l-1.52,2.09a2.36,2.36,0,0,0-.62-.51,1.61,1.61,0,0,0-.8-.19,1.42,1.42,0,0,0-.54.09.72.72,0,0,0-.36.37,2.51,2.51,0,0,0-.2.81A13.3,13.3,0,0,0,399,9.62c0,.59,0,1.07.05,1.45a3,3,0,0,0,.19.9.9.9,0,0,0,.38.46,1.24,1.24,0,0,0,.6.13,2,2,0,0,0,.92-.18,3.22,3.22,0,0,0,.7-.52L403.06,14a5,5,0,0,1-1.32.79A4.61,4.61,0,0,1,400,15.16Z"/>
      <path class="cls-1" d="M408.34,15.16a5.78,5.78,0,0,1-2-.31,3.45,3.45,0,0,1-1.43-1,4.35,4.35,0,0,1-.88-1.7,9.1,9.1,0,0,1-.3-2.5,8.87,8.87,0,0,1,.3-2.48,4.18,4.18,0,0,1,.88-1.66,3.36,3.36,0,0,1,1.44-.93,6.19,6.19,0,0,1,2-.29,4.39,4.39,0,0,1,3.41,1.28,6.11,6.11,0,0,1,1.17,4.18,8.93,8.93,0,0,1-.3,2.48,4.29,4.29,0,0,1-.88,1.67,3.31,3.31,0,0,1-1.44.94A6.19,6.19,0,0,1,408.34,15.16Zm0-2.4a1,1,0,0,0,.56-.14.91.91,0,0,0,.31-.49,3.92,3.92,0,0,0,.14-.95q0-.6,0-1.5t0-1.53a3.38,3.38,0,0,0-.14-.89.67.67,0,0,0-.32-.42,1.32,1.32,0,0,0-.57-.1,1.09,1.09,0,0,0-.56.12.79.79,0,0,0-.31.45,3.65,3.65,0,0,0-.14.92c0,.39,0,.91,0,1.55s0,1.09,0,1.48a3.58,3.58,0,0,0,.14.91.82.82,0,0,0,.32.46A1.08,1.08,0,0,0,408.36,12.76Z"/>
      <path class="cls-1" d="M414.5,4.58h2.72l.2.82a5.43,5.43,0,0,1,1.18-.78,3.46,3.46,0,0,1,1.52-.3,2.37,2.37,0,0,1,2.22,1.08,5.42,5.42,0,0,1,1.18-.78,3.45,3.45,0,0,1,1.52-.3A2.71,2.71,0,0,1,427,5a3.12,3.12,0,0,1,.66,2.29V14.9h-3.3v-7c0-.44-.07-.71-.21-.83a.76.76,0,0,0-.49-.17,1.55,1.55,0,0,0-.92.34V14.9h-3.3v-7c0-.44-.07-.71-.21-.83a.76.76,0,0,0-.49-.17,1.55,1.55,0,0,0-.92.34V14.9h-3.3Z"/>
      <path class="cls-1" d="M434.46,15.16a8.3,8.3,0,0,1-2.42-.31,3.69,3.69,0,0,1-2.6-2.67,9.1,9.1,0,0,1-.3-2.5,9.17,9.17,0,0,1,.29-2.48,4.17,4.17,0,0,1,.86-1.66,3.3,3.3,0,0,1,1.4-.93,5.71,5.71,0,0,1,1.89-.29,5.87,5.87,0,0,1,2.13.34,3.08,3.08,0,0,1,1.39,1.05,4.61,4.61,0,0,1,.75,1.77,11.92,11.92,0,0,1,.23,2.5v.86h-5.36a3.69,3.69,0,0,0,.16.91,1.39,1.39,0,0,0,.31.54,1,1,0,0,0,.48.26,3,3,0,0,0,.69.07,2.69,2.69,0,0,0,1.22-.26,6.69,6.69,0,0,0,1-.6l1.34,2.16a4.21,4.21,0,0,1-1.42.87A5.38,5.38,0,0,1,434.46,15.16Zm-.73-8.48a.82.82,0,0,0-.8.4,4.19,4.19,0,0,0-.25,1.58h2.1c0-.33,0-.62-.05-.88a2.05,2.05,0,0,0-.13-.62.74.74,0,0,0-.3-.36A1.11,1.11,0,0,0,433.73,6.68Z"/>
      <path class="cls-1" d="M448.36,15.16a5.78,5.78,0,0,1-2-.31,3.45,3.45,0,0,1-1.43-1,4.35,4.35,0,0,1-.88-1.7,9.1,9.1,0,0,1-.3-2.5,8.87,8.87,0,0,1,.3-2.48A4.18,4.18,0,0,1,445,5.54a3.36,3.36,0,0,1,1.44-.93,6.19,6.19,0,0,1,2-.29,4.39,4.39,0,0,1,3.41,1.28A6.11,6.11,0,0,1,453,9.78a8.93,8.93,0,0,1-.3,2.48,4.29,4.29,0,0,1-.88,1.67,3.31,3.31,0,0,1-1.44.94A6.19,6.19,0,0,1,448.36,15.16Zm0-2.4a1,1,0,0,0,.56-.14.91.91,0,0,0,.31-.49,3.92,3.92,0,0,0,.14-.95q0-.6,0-1.5t0-1.53a3.38,3.38,0,0,0-.14-.89.67.67,0,0,0-.32-.42,1.32,1.32,0,0,0-.57-.1,1.09,1.09,0,0,0-.56.12.79.79,0,0,0-.31.45,3.65,3.65,0,0,0-.14.92c0,.39,0,.91,0,1.55s0,1.09,0,1.48a3.58,3.58,0,0,0,.14.91.82.82,0,0,0,.32.46A1.08,1.08,0,0,0,448.38,12.76Z"/>
      <path class="cls-1" d="M454.52,4.58h2.72l.26,1.08a2.78,2.78,0,0,1,.9-.94,2.22,2.22,0,0,1,1.16-.3l.45,0,.37.06V7.72h-.08a3.4,3.4,0,0,0-.54-.2,2.42,2.42,0,0,0-.68-.1,2.64,2.64,0,0,0-1.26.26V14.9h-3.3Z"/>
      <path class="cls-1" d="M471.74,15.16a2.85,2.85,0,0,1-1.46-.36,4,4,0,0,1-1-.82l-.22.92h-2.72V.2h3.3v5a2.12,2.12,0,0,1,.31-.24,4.45,4.45,0,0,1,.5-.28,3.42,3.42,0,0,1,.64-.23,3,3,0,0,1,.73-.09,4.06,4.06,0,0,1,1.48.25,2.4,2.4,0,0,1,1.07.84A4.13,4.13,0,0,1,475,7a12.21,12.21,0,0,1,.21,2.47,14.72,14.72,0,0,1-.22,2.8,4.83,4.83,0,0,1-.66,1.75,2.32,2.32,0,0,1-1.09.9A4.1,4.1,0,0,1,471.74,15.16Zm-1.18-2.6a1.14,1.14,0,0,0,.58-.13.85.85,0,0,0,.34-.46,3.2,3.2,0,0,0,.15-.9c0-.38,0-.86,0-1.45s0-1,0-1.36a2.93,2.93,0,0,0-.14-.82.72.72,0,0,0-.31-.41,1.07,1.07,0,0,0-.52-.11A1.69,1.69,0,0,0,470,7a1.43,1.43,0,0,0-.4.24V12.2a2.09,2.09,0,0,0,.36.24A1.21,1.21,0,0,0,470.56,12.56Z"/>
      <path class="cls-1" d="M481.71,15.16a8.3,8.3,0,0,1-2.42-.31,3.69,3.69,0,0,1-2.6-2.67,9.1,9.1,0,0,1-.3-2.5,9.17,9.17,0,0,1,.29-2.48,4.17,4.17,0,0,1,.86-1.66,3.3,3.3,0,0,1,1.4-.93,5.71,5.71,0,0,1,1.89-.29,5.87,5.87,0,0,1,2.13.34,3.08,3.08,0,0,1,1.39,1.05,4.61,4.61,0,0,1,.75,1.77,11.92,11.92,0,0,1,.23,2.5v.86H480a3.69,3.69,0,0,0,.16.91,1.39,1.39,0,0,0,.31.54,1,1,0,0,0,.48.26,3,3,0,0,0,.69.07,2.69,2.69,0,0,0,1.22-.26,6.69,6.69,0,0,0,1-.6l1.34,2.16a4.21,4.21,0,0,1-1.42.87A5.38,5.38,0,0,1,481.71,15.16ZM481,6.68a.82.82,0,0,0-.8.4,4.19,4.19,0,0,0-.25,1.58H482c0-.33,0-.62-.05-.88a2.05,2.05,0,0,0-.13-.62.74.74,0,0,0-.3-.36A1.11,1.11,0,0,0,481,6.68Z"/>
      <path class="cls-1" d="M491.39.2h3.3v5a4,4,0,0,1,1-.58,3.73,3.73,0,0,1,1.49-.26,2.88,2.88,0,0,1,2.07.65,3.24,3.24,0,0,1,.67,2.35V14.9h-3.3V8c0-.46-.08-.76-.25-.89a1,1,0,0,0-.59-.19,1.82,1.82,0,0,0-.59.07,2.09,2.09,0,0,0-.47.27V14.9h-3.3Z"/>
      <path class="cls-1" d="M504.89,15.16a3.94,3.94,0,0,1-1.5-.27,2.48,2.48,0,0,1-1.1-.89,4.54,4.54,0,0,1-.67-1.63,11.54,11.54,0,0,1-.23-2.51,14.14,14.14,0,0,1,.22-2.76,4.72,4.72,0,0,1,.64-1.7,2.17,2.17,0,0,1,1-.85,4.09,4.09,0,0,1,1.42-.23,3.05,3.05,0,0,1,1.38.29,3.65,3.65,0,0,1,1.1.89l.22-.92h2.72V14.9h-2.72l-.22-.92c-.19.2-.36.37-.53.52a2.86,2.86,0,0,1-.52.37,2.21,2.21,0,0,1-.57.22A3.12,3.12,0,0,1,504.89,15.16Zm1-2.6a1.39,1.39,0,0,0,.6-.1,1.66,1.66,0,0,0,.36-.24V7.28a3.38,3.38,0,0,0-.32-.24,1,1,0,0,0-.54-.12,1.08,1.08,0,0,0-.57.13.82.82,0,0,0-.32.46,3.28,3.28,0,0,0-.13.9c0,.38,0,.86,0,1.45s0,1,0,1.36a3,3,0,0,0,.12.82.73.73,0,0,0,.28.41A1,1,0,0,0,505.87,12.56Z"/>
      <path class="cls-1" d="M515,15.16a3,3,0,0,1-2.14-.75A3.06,3.06,0,0,1,512,12V4.58h3.3v6.9q0,.7.25.89a.94.94,0,0,0,.59.19,1.55,1.55,0,0,0,.62-.1,2,2,0,0,0,.44-.28V4.58h3.3V14.9h-2.72l-.22-.92-.5.48a2.54,2.54,0,0,1-.52.37,2.63,2.63,0,0,1-.66.24A4,4,0,0,1,515,15.16Z"/>
      <path class="cls-1" d="M522.41,4.58h2.72l.22.88a4.58,4.58,0,0,1,1.17-.82,3.73,3.73,0,0,1,1.65-.32,2.88,2.88,0,0,1,2.07.65,3.24,3.24,0,0,1,.67,2.35V14.9h-3.3V8c0-.46-.08-.76-.25-.89a1,1,0,0,0-.59-.19,1.82,1.82,0,0,0-.59.07,2.09,2.09,0,0,0-.47.27V14.9h-3.3Z"/>
      <path class="cls-1" d="M532.13,4.58h1V2.12l3.3-.52v3h1.8V7h-1.8v4.5a3.44,3.44,0,0,0,0,.6.81.81,0,0,0,.13.34.42.42,0,0,0,.23.16,1.14,1.14,0,0,0,.32,0,1.52,1.52,0,0,0,.5-.07l.3-.11.4,2.18a8,8,0,0,1-.81.32,4.21,4.21,0,0,1-1.31.16,5.87,5.87,0,0,1-1.29-.13,2.45,2.45,0,0,1-1-.45,2,2,0,0,1-.62-.85,3.56,3.56,0,0,1-.21-1.31V7h-1Z"/>
      <path class="cls-1" d="M544.57,15.16a8.3,8.3,0,0,1-2.42-.31,3.69,3.69,0,0,1-2.6-2.67,9.1,9.1,0,0,1-.3-2.5,9.17,9.17,0,0,1,.29-2.48,4.17,4.17,0,0,1,.86-1.66,3.3,3.3,0,0,1,1.4-.93,5.71,5.71,0,0,1,1.89-.29,5.87,5.87,0,0,1,2.13.34,3.08,3.08,0,0,1,1.39,1.05A4.61,4.61,0,0,1,548,7.48a11.92,11.92,0,0,1,.23,2.5v.86h-5.36a3.69,3.69,0,0,0,.16.91,1.39,1.39,0,0,0,.31.54,1,1,0,0,0,.48.26,3,3,0,0,0,.69.07,2.69,2.69,0,0,0,1.22-.26,6.69,6.69,0,0,0,1-.6L548,13.92a4.21,4.21,0,0,1-1.42.87A5.38,5.38,0,0,1,544.57,15.16Zm-.73-8.48a.82.82,0,0,0-.8.4,4.19,4.19,0,0,0-.25,1.58h2.1c0-.33,0-.62-.05-.88a2.05,2.05,0,0,0-.13-.62.74.74,0,0,0-.3-.36A1.11,1.11,0,0,0,543.84,6.68Z"/>
      <path class="cls-1" d="M552.93,15.16a4,4,0,0,1-1.51-.27A2.53,2.53,0,0,1,550.3,14a4.54,4.54,0,0,1-.69-1.63,11.07,11.07,0,0,1-.24-2.51,14.9,14.9,0,0,1,.21-2.76,4.62,4.62,0,0,1,.63-1.7,2.16,2.16,0,0,1,1-.85,4.3,4.3,0,0,1,1.47-.23,2.86,2.86,0,0,1,1.35.29,4.5,4.5,0,0,1,.87.57V.2h3.3V14.9h-2.72l-.22-.92a5.54,5.54,0,0,1-1.1.88A2.54,2.54,0,0,1,552.93,15.16Zm1-2.6a1.7,1.7,0,0,0,.64-.1,1.42,1.42,0,0,0,.4-.24V7.28a2.08,2.08,0,0,0-.36-.24,1.21,1.21,0,0,0-.58-.12,1.14,1.14,0,0,0-.58.13.84.84,0,0,0-.34.46,3.21,3.21,0,0,0-.15.9c0,.38,0,.86,0,1.45s0,1,0,1.36a3,3,0,0,0,.14.82.75.75,0,0,0,.3.41A1.07,1.07,0,0,0,553.91,12.56Z"/>
      <path class="cls-1" d="M564,4.58h1v-1a5.4,5.4,0,0,1,.27-1.9A2.54,2.54,0,0,1,566,.58a2.18,2.18,0,0,1,1-.47A5.93,5.93,0,0,1,568.15,0a6.29,6.29,0,0,1,1.52.15,5.36,5.36,0,0,1,.92.31l-.7,2.2a1.76,1.76,0,0,0-.37-.13,2.23,2.23,0,0,0-.51-.05c-.45,0-.68.25-.68.74V4.58H570V7h-1.64V14.9H565V7h-1Z"/>
      <path class="cls-1" d="M575.45,15.16a5.78,5.78,0,0,1-2-.31,3.45,3.45,0,0,1-1.43-1,4.35,4.35,0,0,1-.88-1.7,9.1,9.1,0,0,1-.3-2.5,8.87,8.87,0,0,1,.3-2.48,4.18,4.18,0,0,1,.88-1.66,3.36,3.36,0,0,1,1.44-.93,6.19,6.19,0,0,1,2-.29,4.39,4.39,0,0,1,3.41,1.28,6.11,6.11,0,0,1,1.17,4.18,8.93,8.93,0,0,1-.3,2.48,4.29,4.29,0,0,1-.88,1.67,3.31,3.31,0,0,1-1.44.94A6.19,6.19,0,0,1,575.45,15.16Zm0-2.4a1,1,0,0,0,.56-.14.91.91,0,0,0,.31-.49,3.92,3.92,0,0,0,.14-.95q0-.6,0-1.5t0-1.53a3.38,3.38,0,0,0-.14-.89.67.67,0,0,0-.32-.42,1.32,1.32,0,0,0-.57-.1,1.09,1.09,0,0,0-.56.12.79.79,0,0,0-.31.45,3.65,3.65,0,0,0-.14.92c0,.39,0,.91,0,1.55s0,1.09,0,1.48a3.58,3.58,0,0,0,.14.91.82.82,0,0,0,.32.46A1.08,1.08,0,0,0,575.47,12.76Z"/>
      <path class="cls-1" d="M581.61,4.58h2.72l.26,1.08a2.78,2.78,0,0,1,.9-.94,2.22,2.22,0,0,1,1.16-.3l.45,0,.37.06V7.72h-.08a3.4,3.4,0,0,0-.54-.2,2.42,2.42,0,0,0-.68-.1,2.64,2.64,0,0,0-1.26.26V14.9h-3.3Z"/>
      <path class="cls-1" d="M593.85,15.16a8.3,8.3,0,0,1-2.42-.31,3.69,3.69,0,0,1-2.6-2.67,9.1,9.1,0,0,1-.3-2.5,9.17,9.17,0,0,1,.29-2.48,4.17,4.17,0,0,1,.86-1.66,3.3,3.3,0,0,1,1.4-.93A5.71,5.71,0,0,1,593,4.32a5.87,5.87,0,0,1,2.13.34,3.08,3.08,0,0,1,1.39,1.05,4.61,4.61,0,0,1,.75,1.77,11.92,11.92,0,0,1,.23,2.5v.86h-5.36a3.69,3.69,0,0,0,.16.91,1.39,1.39,0,0,0,.31.54,1,1,0,0,0,.48.26,3,3,0,0,0,.69.07,2.69,2.69,0,0,0,1.22-.26,6.69,6.69,0,0,0,1-.6l1.34,2.16a4.21,4.21,0,0,1-1.42.87A5.38,5.38,0,0,1,593.85,15.16Zm-.73-8.48a.82.82,0,0,0-.8.4,4.19,4.19,0,0,0-.25,1.58h2.1c0-.33,0-.62-.05-.88a2.05,2.05,0,0,0-.13-.62.74.74,0,0,0-.3-.36A1.11,1.11,0,0,0,593.12,6.68Z"/>
      <path class="cls-1" d="M598.13,4.58h3.44l.84,2.94c0,.15.09.34.14.58s.11.5.18.78.13.57.19.87.12.59.19.87h0c.05-.51.14-1.06.25-1.66s.24-1.15.39-1.66l.74-2.72h3.38L604.53,14.9h-2.84Z"/>
      <path class="cls-1" d="M613.71,15.16a8.3,8.3,0,0,1-2.42-.31,3.69,3.69,0,0,1-2.6-2.67,9.1,9.1,0,0,1-.3-2.5,9.17,9.17,0,0,1,.29-2.48,4.17,4.17,0,0,1,.86-1.66,3.3,3.3,0,0,1,1.4-.93,5.71,5.71,0,0,1,1.89-.29,5.87,5.87,0,0,1,2.13.34,3.08,3.08,0,0,1,1.39,1.05,4.61,4.61,0,0,1,.75,1.77,11.92,11.92,0,0,1,.23,2.5v.86H612a3.69,3.69,0,0,0,.16.91,1.39,1.39,0,0,0,.31.54,1,1,0,0,0,.48.26,3,3,0,0,0,.69.07,2.69,2.69,0,0,0,1.22-.26,6.69,6.69,0,0,0,1-.6l1.34,2.16a4.21,4.21,0,0,1-1.42.87A5.38,5.38,0,0,1,613.71,15.16ZM613,6.68a.82.82,0,0,0-.8.4,4.19,4.19,0,0,0-.25,1.58H614c0-.33,0-.62-.05-.88a2.05,2.05,0,0,0-.13-.62.74.74,0,0,0-.3-.36A1.11,1.11,0,0,0,613,6.68Z"/>
      <path class="cls-1" d="M618.87,4.58h2.72l.26,1.08a2.78,2.78,0,0,1,.9-.94,2.22,2.22,0,0,1,1.16-.3l.45,0,.37.06V7.72h-.08a3.4,3.4,0,0,0-.54-.2,2.42,2.42,0,0,0-.68-.1,2.64,2.64,0,0,0-1.26.26V14.9h-3.3Z"/>
      <path class="cls-1" d="M626.85,15.16a1.84,1.84,0,0,1-.76-.16A2.06,2.06,0,0,1,625,13.94a1.9,1.9,0,0,1-.16-.78,1.79,1.79,0,0,1,.16-.75,2.11,2.11,0,0,1,.43-.62,2.07,2.07,0,0,1,.63-.43,1.84,1.84,0,0,1,.76-.16,1.91,1.91,0,0,1,.77.16,2,2,0,0,1,.64.43,2.12,2.12,0,0,1,.43.62,1.79,1.79,0,0,1,.16.75,1.9,1.9,0,0,1-.16.78,2.06,2.06,0,0,1-.43.63,2,2,0,0,1-.64.43A1.91,1.91,0,0,1,626.85,15.16Z"/>
      <path class="cls-1" d="M632.59,15.16a1.84,1.84,0,0,1-.76-.16,2.06,2.06,0,0,1-1.06-1.06,1.9,1.9,0,0,1-.16-.78,1.79,1.79,0,0,1,.16-.75,2.11,2.11,0,0,1,.43-.62,2.07,2.07,0,0,1,.63-.43,1.84,1.84,0,0,1,.76-.16,1.91,1.91,0,0,1,.77.16,2,2,0,0,1,.64.43,2.12,2.12,0,0,1,.43.62,1.79,1.79,0,0,1,.16.75,1.9,1.9,0,0,1-.16.78,2.06,2.06,0,0,1-.43.63,2,2,0,0,1-.64.43A1.91,1.91,0,0,1,632.59,15.16Z"/>
      <path class="cls-1" d="M638.33,15.16a1.84,1.84,0,0,1-.76-.16,2.06,2.06,0,0,1-1.06-1.06,1.9,1.9,0,0,1-.16-.78,1.79,1.79,0,0,1,.16-.75,2.11,2.11,0,0,1,.43-.62,2.07,2.07,0,0,1,.63-.43,1.84,1.84,0,0,1,.76-.16,1.91,1.91,0,0,1,.77.16,2,2,0,0,1,.64.43,2.12,2.12,0,0,1,.43.62,1.79,1.79,0,0,1,.16.75,1.9,1.9,0,0,1-.16.78,2.06,2.06,0,0,1-.43.63,2,2,0,0,1-.64.43A1.91,1.91,0,0,1,638.33,15.16Z"/>
      <path class="cls-1" d="M644.07,15.16a1.84,1.84,0,0,1-.76-.16,2.06,2.06,0,0,1-1.06-1.06,1.9,1.9,0,0,1-.16-.78,1.79,1.79,0,0,1,.16-.75,2.11,2.11,0,0,1,.43-.62,2.07,2.07,0,0,1,.63-.43,1.84,1.84,0,0,1,.76-.16,1.91,1.91,0,0,1,.77.16,2,2,0,0,1,.64.43,2.12,2.12,0,0,1,.43.62,1.79,1.79,0,0,1,.16.75,1.9,1.9,0,0,1-.16.78,2.06,2.06,0,0,1-.43.63,2,2,0,0,1-.64.43A1.91,1.91,0,0,1,644.07,15.16Z"/>
      <path class="cls-1" d="M649.81,15.16a1.84,1.84,0,0,1-.76-.16A2.06,2.06,0,0,1,648,13.94a1.9,1.9,0,0,1-.16-.78,1.79,1.79,0,0,1,.16-.75,2.11,2.11,0,0,1,.43-.62,2.07,2.07,0,0,1,.63-.43,1.84,1.84,0,0,1,.76-.16,1.91,1.91,0,0,1,.77.16,2,2,0,0,1,.64.43,2.12,2.12,0,0,1,.43.62,1.79,1.79,0,0,1,.16.75,1.9,1.9,0,0,1-.16.78,2.06,2.06,0,0,1-.43.63,2,2,0,0,1-.64.43A1.91,1.91,0,0,1,649.81,15.16Z"/>
      <path class="cls-1" d="M655.55,15.16a1.84,1.84,0,0,1-.76-.16,2.06,2.06,0,0,1-1.06-1.06,1.9,1.9,0,0,1-.16-.78,1.79,1.79,0,0,1,.16-.75,2.11,2.11,0,0,1,.43-.62,2.07,2.07,0,0,1,.63-.43,1.84,1.84,0,0,1,.76-.16,1.91,1.91,0,0,1,.77.16,2,2,0,0,1,.64.43,2.12,2.12,0,0,1,.43.62,1.79,1.79,0,0,1,.16.75,1.9,1.9,0,0,1-.16.78,2.06,2.06,0,0,1-.43.63,2,2,0,0,1-.64.43A1.91,1.91,0,0,1,655.55,15.16Z"/>
      <path class="cls-1" d="M661.29,15.16a1.84,1.84,0,0,1-.76-.16,2.06,2.06,0,0,1-1.06-1.06,1.9,1.9,0,0,1-.16-.78,1.79,1.79,0,0,1,.16-.75,2.11,2.11,0,0,1,.43-.62,2.07,2.07,0,0,1,.63-.43,1.84,1.84,0,0,1,.76-.16,1.91,1.91,0,0,1,.77.16,2,2,0,0,1,.64.43,2.12,2.12,0,0,1,.43.62,1.79,1.79,0,0,1,.16.75,1.9,1.9,0,0,1-.16.78,2.06,2.06,0,0,1-.43.63,2,2,0,0,1-.64.43A1.91,1.91,0,0,1,661.29,15.16Z"/>
      <path class="cls-1" d="M667,15.16a1.84,1.84,0,0,1-.76-.16,2.06,2.06,0,0,1-1.06-1.06,1.9,1.9,0,0,1-.16-.78,1.79,1.79,0,0,1,.16-.75,2.11,2.11,0,0,1,.43-.62,2.07,2.07,0,0,1,.63-.43,1.84,1.84,0,0,1,.76-.16,1.91,1.91,0,0,1,.77.16,2,2,0,0,1,.64.43,2.12,2.12,0,0,1,.43.62,1.79,1.79,0,0,1,.16.75,1.9,1.9,0,0,1-.16.78,2.06,2.06,0,0,1-.43.63,2,2,0,0,1-.64.43A1.91,1.91,0,0,1,667,15.16Z"/>
      <path class="cls-1" d="M672.77,15.16A1.84,1.84,0,0,1,672,15,2.06,2.06,0,0,1,671,13.94a1.9,1.9,0,0,1-.16-.78,1.79,1.79,0,0,1,.16-.75,2.11,2.11,0,0,1,.43-.62,2.07,2.07,0,0,1,.63-.43,1.84,1.84,0,0,1,.76-.16,1.91,1.91,0,0,1,.77.16,2,2,0,0,1,.64.43,2.12,2.12,0,0,1,.43.62,1.79,1.79,0,0,1,.16.75,1.9,1.9,0,0,1-.16.78,2.06,2.06,0,0,1-.43.63,2,2,0,0,1-.64.43A1.91,1.91,0,0,1,672.77,15.16Z"/>
      <path class="cls-1" d="M678.51,15.16a1.84,1.84,0,0,1-.76-.16,2.06,2.06,0,0,1-1.06-1.06,1.9,1.9,0,0,1-.16-.78,1.79,1.79,0,0,1,.16-.75,2.11,2.11,0,0,1,.43-.62,2.07,2.07,0,0,1,.63-.43,1.84,1.84,0,0,1,.76-.16,1.91,1.91,0,0,1,.77.16,2,2,0,0,1,.64.43,2.12,2.12,0,0,1,.43.62,1.79,1.79,0,0,1,.16.75,1.9,1.9,0,0,1-.16.78,2.06,2.06,0,0,1-.43.63,2,2,0,0,1-.64.43A1.91,1.91,0,0,1,678.51,15.16Z"/>
      <path class="cls-1" d="M684.25,15.16a1.84,1.84,0,0,1-.76-.16,2.06,2.06,0,0,1-1.06-1.06,1.9,1.9,0,0,1-.16-.78,1.79,1.79,0,0,1,.16-.75,2.11,2.11,0,0,1,.43-.62,2.07,2.07,0,0,1,.63-.43,1.84,1.84,0,0,1,.76-.16,1.91,1.91,0,0,1,.77.16,2,2,0,0,1,.64.43,2.12,2.12,0,0,1,.43.62,1.79,1.79,0,0,1,.16.75,1.9,1.9,0,0,1-.16.78,2.06,2.06,0,0,1-.43.63A2,2,0,0,1,685,15,1.91,1.91,0,0,1,684.25,15.16Z"/>
      <path class="cls-1" d="M690,15.16a1.84,1.84,0,0,1-.76-.16,2.06,2.06,0,0,1-1.06-1.06,1.9,1.9,0,0,1-.16-.78,1.79,1.79,0,0,1,.16-.75,2.11,2.11,0,0,1,.43-.62,2.07,2.07,0,0,1,.63-.43,1.84,1.84,0,0,1,.76-.16,1.91,1.91,0,0,1,.77.16,2,2,0,0,1,.64.43,2.12,2.12,0,0,1,.43.62,1.79,1.79,0,0,1,.16.75,1.9,1.9,0,0,1-.16.78,2.06,2.06,0,0,1-.43.63,2,2,0,0,1-.64.43A1.91,1.91,0,0,1,690,15.16Z"/>
      <path class="cls-1" d="M695.74,15.16A1.84,1.84,0,0,1,695,15a2.06,2.06,0,0,1-1.06-1.06,1.9,1.9,0,0,1-.16-.78,1.79,1.79,0,0,1,.16-.75,2.11,2.11,0,0,1,.43-.62,2.07,2.07,0,0,1,.63-.43,1.84,1.84,0,0,1,.76-.16,1.91,1.91,0,0,1,.77.16,2,2,0,0,1,.64.43,2.12,2.12,0,0,1,.43.62,1.79,1.79,0,0,1,.16.75,1.9,1.9,0,0,1-.16.78,2.06,2.06,0,0,1-.43.63,2,2,0,0,1-.64.43A1.91,1.91,0,0,1,695.74,15.16Z"/>
      <path class="cls-1" d="M701.48,15.16a1.84,1.84,0,0,1-.76-.16,2.06,2.06,0,0,1-1.06-1.06,1.9,1.9,0,0,1-.16-.78,1.79,1.79,0,0,1,.16-.75,2.11,2.11,0,0,1,.43-.62,2.07,2.07,0,0,1,.63-.43,1.84,1.84,0,0,1,.76-.16,1.91,1.91,0,0,1,.77.16,2,2,0,0,1,.64.43,2.12,2.12,0,0,1,.43.62,1.79,1.79,0,0,1,.16.75,1.9,1.9,0,0,1-.16.78,2.06,2.06,0,0,1-.43.63,2,2,0,0,1-.64.43A1.91,1.91,0,0,1,701.48,15.16Z"/>
      <path class="cls-1" d="M707.22,15.16a1.84,1.84,0,0,1-.76-.16,2.06,2.06,0,0,1-1.06-1.06,1.9,1.9,0,0,1-.16-.78,1.79,1.79,0,0,1,.16-.75,2.11,2.11,0,0,1,.43-.62,2.07,2.07,0,0,1,.63-.43,1.84,1.84,0,0,1,.76-.16,1.91,1.91,0,0,1,.77.16,2,2,0,0,1,.64.43,2.12,2.12,0,0,1,.43.62,1.79,1.79,0,0,1,.16.75,1.9,1.9,0,0,1-.16.78,2.06,2.06,0,0,1-.43.63A2,2,0,0,1,708,15,1.91,1.91,0,0,1,707.22,15.16Z"/>
      <path class="cls-1" d="M713,15.16a1.84,1.84,0,0,1-.76-.16,2.06,2.06,0,0,1-1.06-1.06,1.9,1.9,0,0,1-.16-.78,1.79,1.79,0,0,1,.16-.75,2.11,2.11,0,0,1,.43-.62,2.07,2.07,0,0,1,.63-.43,1.84,1.84,0,0,1,.76-.16,1.91,1.91,0,0,1,.77.16,2,2,0,0,1,.64.43,2.12,2.12,0,0,1,.43.62,1.79,1.79,0,0,1,.16.75,1.9,1.9,0,0,1-.16.78,2.06,2.06,0,0,1-.43.63,2,2,0,0,1-.64.43A1.91,1.91,0,0,1,713,15.16Z"/>
      <path class="cls-1" d="M718.7,15.16a1.84,1.84,0,0,1-.76-.16,2.06,2.06,0,0,1-1.06-1.06,1.9,1.9,0,0,1-.16-.78,1.79,1.79,0,0,1,.16-.75,2.11,2.11,0,0,1,.43-.62,2.07,2.07,0,0,1,.63-.43,1.84,1.84,0,0,1,.76-.16,1.91,1.91,0,0,1,.77.16,2,2,0,0,1,.64.43,2.12,2.12,0,0,1,.43.62,1.79,1.79,0,0,1,.16.75,1.9,1.9,0,0,1-.16.78,2.06,2.06,0,0,1-.43.63,2,2,0,0,1-.64.43A1.91,1.91,0,0,1,718.7,15.16Z"/>
      <path class="cls-1" d="M724.44,15.16a1.84,1.84,0,0,1-.76-.16,2.06,2.06,0,0,1-1.06-1.06,1.9,1.9,0,0,1-.16-.78,1.79,1.79,0,0,1,.16-.75,2.11,2.11,0,0,1,.43-.62,2.07,2.07,0,0,1,.63-.43,1.84,1.84,0,0,1,.76-.16,1.91,1.91,0,0,1,.77.16,2,2,0,0,1,.64.43,2.12,2.12,0,0,1,.43.62,1.79,1.79,0,0,1,.16.75,1.9,1.9,0,0,1-.16.78,2.06,2.06,0,0,1-.43.63,2,2,0,0,1-.64.43A1.91,1.91,0,0,1,724.44,15.16Z"/>
      <path class="cls-1" d="M730.18,15.16a1.84,1.84,0,0,1-.76-.16,2.06,2.06,0,0,1-1.06-1.06,1.9,1.9,0,0,1-.16-.78,1.79,1.79,0,0,1,.16-.75,2.11,2.11,0,0,1,.43-.62,2.07,2.07,0,0,1,.63-.43,1.84,1.84,0,0,1,.76-.16,1.91,1.91,0,0,1,.77.16,2,2,0,0,1,.64.43,2.12,2.12,0,0,1,.43.62,1.79,1.79,0,0,1,.16.75,1.9,1.9,0,0,1-.16.78,2.06,2.06,0,0,1-.43.63,2,2,0,0,1-.64.43A1.91,1.91,0,0,1,730.18,15.16Z"/>
      <path class="cls-1" d="M735.92,15.16a1.84,1.84,0,0,1-.76-.16,2.06,2.06,0,0,1-1.06-1.06,1.9,1.9,0,0,1-.16-.78,1.79,1.79,0,0,1,.16-.75,2.11,2.11,0,0,1,.43-.62,2.07,2.07,0,0,1,.63-.43,1.84,1.84,0,0,1,.76-.16,1.91,1.91,0,0,1,.77.16,2,2,0,0,1,.64.43,2.12,2.12,0,0,1,.43.62,1.79,1.79,0,0,1,.16.75,1.9,1.9,0,0,1-.16.78,2.06,2.06,0,0,1-.43.63,2,2,0,0,1-.64.43A1.91,1.91,0,0,1,735.92,15.16Z"/>
      <path class="cls-1" d="M741.66,15.16a1.84,1.84,0,0,1-.76-.16,2.06,2.06,0,0,1-1.06-1.06,1.9,1.9,0,0,1-.16-.78,1.79,1.79,0,0,1,.16-.75,2.11,2.11,0,0,1,.43-.62,2.07,2.07,0,0,1,.63-.43,1.84,1.84,0,0,1,.76-.16,1.91,1.91,0,0,1,.77.16,2,2,0,0,1,.64.43,2.12,2.12,0,0,1,.43.62,1.79,1.79,0,0,1,.16.75,1.9,1.9,0,0,1-.16.78,2.06,2.06,0,0,1-.43.63,2,2,0,0,1-.64.43A1.91,1.91,0,0,1,741.66,15.16Z"/>
      <path class="cls-1" d="M747.4,15.16a1.84,1.84,0,0,1-.76-.16,2.06,2.06,0,0,1-1.06-1.06,1.9,1.9,0,0,1-.16-.78,1.79,1.79,0,0,1,.16-.75,2.11,2.11,0,0,1,.43-.62,2.07,2.07,0,0,1,.63-.43,1.84,1.84,0,0,1,.76-.16,1.91,1.91,0,0,1,.77.16,2,2,0,0,1,.64.43,2.12,2.12,0,0,1,.43.62,1.79,1.79,0,0,1,.16.75,1.9,1.9,0,0,1-.16.78,2.06,2.06,0,0,1-.43.63,2,2,0,0,1-.64.43A1.91,1.91,0,0,1,747.4,15.16Z"/>
      <path class="cls-1" d="M753.14,15.16a1.84,1.84,0,0,1-.76-.16,2.06,2.06,0,0,1-1.06-1.06,1.9,1.9,0,0,1-.16-.78,1.79,1.79,0,0,1,.16-.75,2.11,2.11,0,0,1,.43-.62,2.07,2.07,0,0,1,.63-.43,1.84,1.84,0,0,1,.76-.16,1.91,1.91,0,0,1,.77.16,2,2,0,0,1,.64.43,2.12,2.12,0,0,1,.43.62,1.79,1.79,0,0,1,.16.75,1.9,1.9,0,0,1-.16.78,2.06,2.06,0,0,1-.43.63,2,2,0,0,1-.64.43A1.91,1.91,0,0,1,753.14,15.16Z"/>
      <path class="cls-1" d="M758.88,15.16a1.84,1.84,0,0,1-.76-.16,2.06,2.06,0,0,1-1.06-1.06,1.9,1.9,0,0,1-.16-.78,1.79,1.79,0,0,1,.16-.75,2.12,2.12,0,0,1,.43-.62,2.07,2.07,0,0,1,.63-.43,1.84,1.84,0,0,1,.76-.16,1.91,1.91,0,0,1,.77.16,2,2,0,0,1,.64.43,2.12,2.12,0,0,1,.43.62,1.79,1.79,0,0,1,.16.75,1.9,1.9,0,0,1-.16.78,2.06,2.06,0,0,1-.43.63,2,2,0,0,1-.64.43A1.91,1.91,0,0,1,758.88,15.16Z"/>
      <path class="cls-1" d="M764.62,15.16a1.84,1.84,0,0,1-.76-.16,2.06,2.06,0,0,1-1.06-1.06,1.9,1.9,0,0,1-.16-.78,1.79,1.79,0,0,1,.16-.75,2.11,2.11,0,0,1,.43-.62,2.07,2.07,0,0,1,.63-.43,1.84,1.84,0,0,1,.76-.16,1.91,1.91,0,0,1,.77.16,2,2,0,0,1,.64.43,2.12,2.12,0,0,1,.43.62,1.79,1.79,0,0,1,.16.75,1.9,1.9,0,0,1-.16.78,2.06,2.06,0,0,1-.43.63,2,2,0,0,1-.64.43A1.91,1.91,0,0,1,764.62,15.16Z"/>
      <path class="cls-1" d="M770.36,15.16a1.84,1.84,0,0,1-.76-.16,2.06,2.06,0,0,1-1.06-1.06,1.9,1.9,0,0,1-.16-.78,1.79,1.79,0,0,1,.16-.75,2.11,2.11,0,0,1,.43-.62,2.07,2.07,0,0,1,.63-.43,1.84,1.84,0,0,1,.76-.16,1.91,1.91,0,0,1,.77.16,2,2,0,0,1,.64.43,2.12,2.12,0,0,1,.43.62,1.79,1.79,0,0,1,.16.75,1.9,1.9,0,0,1-.16.78,2.06,2.06,0,0,1-.43.63,2,2,0,0,1-.64.43A1.91,1.91,0,0,1,770.36,15.16Z"/>
      <path class="cls-1" d="M776.1,15.16a1.84,1.84,0,0,1-.76-.16,2.06,2.06,0,0,1-1.06-1.06,1.9,1.9,0,0,1-.16-.78,1.79,1.79,0,0,1,.16-.75,2.11,2.11,0,0,1,.43-.62,2.07,2.07,0,0,1,.63-.43,1.84,1.84,0,0,1,.76-.16,1.91,1.91,0,0,1,.77.16,2,2,0,0,1,.64.43,2.12,2.12,0,0,1,.43.62,1.79,1.79,0,0,1,.16.75,1.9,1.9,0,0,1-.16.78,2.06,2.06,0,0,1-.43.63,2,2,0,0,1-.64.43A1.91,1.91,0,0,1,776.1,15.16Z"/>
      <path class="cls-1" d="M781.84,15.16a1.84,1.84,0,0,1-.76-.16A2.06,2.06,0,0,1,780,13.94a1.9,1.9,0,0,1-.16-.78,1.79,1.79,0,0,1,.16-.75,2.11,2.11,0,0,1,.43-.62,2.07,2.07,0,0,1,.63-.43,1.84,1.84,0,0,1,.76-.16,1.91,1.91,0,0,1,.77.16,2,2,0,0,1,.64.43,2.12,2.12,0,0,1,.43.62,1.79,1.79,0,0,1,.16.75,1.9,1.9,0,0,1-.16.78,2.06,2.06,0,0,1-.43.63,2,2,0,0,1-.64.43A1.91,1.91,0,0,1,781.84,15.16Z"/>
      <path class="cls-1" d="M787.58,15.16a1.84,1.84,0,0,1-.76-.16,2.06,2.06,0,0,1-1.06-1.06,1.9,1.9,0,0,1-.16-.78,1.79,1.79,0,0,1,.16-.75,2.11,2.11,0,0,1,.43-.62,2.07,2.07,0,0,1,.63-.43,1.84,1.84,0,0,1,.76-.16,1.91,1.91,0,0,1,.77.16,2,2,0,0,1,.64.43,2.12,2.12,0,0,1,.43.62,1.79,1.79,0,0,1,.16.75,1.9,1.9,0,0,1-.16.78,2.06,2.06,0,0,1-.43.63,2,2,0,0,1-.64.43A1.91,1.91,0,0,1,787.58,15.16Z"/>
      <path class="cls-1" d="M793.32,15.16a1.84,1.84,0,0,1-.76-.16,2.06,2.06,0,0,1-1.06-1.06,1.9,1.9,0,0,1-.16-.78,1.79,1.79,0,0,1,.16-.75,2.11,2.11,0,0,1,.43-.62,2.07,2.07,0,0,1,.63-.43,1.84,1.84,0,0,1,.76-.16,1.91,1.91,0,0,1,.77.16,2,2,0,0,1,.64.43,2.12,2.12,0,0,1,.43.62,1.79,1.79,0,0,1,.16.75,1.9,1.9,0,0,1-.16.78,2.06,2.06,0,0,1-.43.63,2,2,0,0,1-.64.43A1.91,1.91,0,0,1,793.32,15.16Z"/>
      <path class="cls-1" d="M799.06,15.16a1.84,1.84,0,0,1-.76-.16,2.06,2.06,0,0,1-1.06-1.06,1.9,1.9,0,0,1-.16-.78,1.79,1.79,0,0,1,.16-.75,2.11,2.11,0,0,1,.43-.62,2.07,2.07,0,0,1,.63-.43,1.84,1.84,0,0,1,.76-.16,1.91,1.91,0,0,1,.77.16,2,2,0,0,1,.64.43,2.12,2.12,0,0,1,.43.62,1.79,1.79,0,0,1,.16.75,1.9,1.9,0,0,1-.16.78,2.06,2.06,0,0,1-.43.63,2,2,0,0,1-.64.43A1.91,1.91,0,0,1,799.06,15.16Z"/>
      <path class="cls-1" d="M804.8,15.16A1.84,1.84,0,0,1,804,15,2.06,2.06,0,0,1,803,13.94a1.9,1.9,0,0,1-.16-.78,1.79,1.79,0,0,1,.16-.75,2.11,2.11,0,0,1,.43-.62,2.07,2.07,0,0,1,.63-.43,1.84,1.84,0,0,1,.76-.16,1.91,1.91,0,0,1,.77.16,2,2,0,0,1,.64.43,2.12,2.12,0,0,1,.43.62,1.79,1.79,0,0,1,.16.75,1.9,1.9,0,0,1-.16.78,2.06,2.06,0,0,1-.43.63,2,2,0,0,1-.64.43A1.91,1.91,0,0,1,804.8,15.16Z"/>
      <path class="cls-1" d="M810.54,15.16a1.84,1.84,0,0,1-.76-.16,2.06,2.06,0,0,1-1.06-1.06,1.9,1.9,0,0,1-.16-.78,1.79,1.79,0,0,1,.16-.75,2.11,2.11,0,0,1,.43-.62,2.07,2.07,0,0,1,.63-.43,1.84,1.84,0,0,1,.76-.16,1.91,1.91,0,0,1,.77.16,2,2,0,0,1,.64.43,2.12,2.12,0,0,1,.43.62,1.79,1.79,0,0,1,.16.75,1.9,1.9,0,0,1-.16.78,2.06,2.06,0,0,1-.43.63,2,2,0,0,1-.64.43A1.91,1.91,0,0,1,810.54,15.16Z"/>
      <path class="cls-1" d="M816.28,15.16a1.84,1.84,0,0,1-.76-.16,2.06,2.06,0,0,1-1.06-1.06,1.9,1.9,0,0,1-.16-.78,1.79,1.79,0,0,1,.16-.75,2.11,2.11,0,0,1,.43-.62,2.07,2.07,0,0,1,.63-.43,1.84,1.84,0,0,1,.76-.16,1.91,1.91,0,0,1,.77.16,2,2,0,0,1,.64.43,2.12,2.12,0,0,1,.43.62,1.79,1.79,0,0,1,.16.75,1.9,1.9,0,0,1-.16.78,2.06,2.06,0,0,1-.43.63A2,2,0,0,1,817,15,1.91,1.91,0,0,1,816.28,15.16Z"/>
      <path class="cls-1" d="M822,15.16a1.84,1.84,0,0,1-.76-.16,2.06,2.06,0,0,1-1.06-1.06,1.9,1.9,0,0,1-.16-.78,1.79,1.79,0,0,1,.16-.75,2.11,2.11,0,0,1,.43-.62,2.07,2.07,0,0,1,.63-.43,1.84,1.84,0,0,1,.76-.16,1.91,1.91,0,0,1,.77.16,2,2,0,0,1,.64.43,2.12,2.12,0,0,1,.43.62,1.79,1.79,0,0,1,.16.75,1.9,1.9,0,0,1-.16.78,2.06,2.06,0,0,1-.43.63,2,2,0,0,1-.64.43A1.91,1.91,0,0,1,822,15.16Z"/>
    </g>
  </g>
</svg>
