<svg xmlns="http://www.w3.org/2000/svg" viewBox="0 0 35 53">
  <defs>
    <style>
      .cls-1 {
        fill: #fff;
      }
    </style>
  </defs>
  <title>アートボード 19</title>
  <g id="graphcs">
    <path class="cls-1" d="M34.4,52.69a3.43,3.43,0,0,1-.68-.43,2.6,2.6,0,0,0-1-.41,5.4,5.4,0,0,1-.83-.26.16.16,0,0,0,0-.09c-.12-.31-.17-.66-.32-1s-.34-.62-.5-.94-.39-.6-.55-.91L30,47.75c-.16-.31-.27-.65-.44-1a2.09,2.09,0,0,0-.85-.85,3.91,3.91,0,0,0-1.13-.56.19.19,0,0,1-.17-.13c0-.14-.22-.24-.2-.41a1,1,0,0,0,0-.49c-.11-.3-.21-.59-.34-.88s-.29-.56-.44-.83a1.35,1.35,0,0,0-1.26-.73l-.68,0c-.17,0-.21-.16-.23-.3a.85.85,0,0,1,0-.2,3.5,3.5,0,0,0-.15-1.17,5.83,5.83,0,0,0-.5-1.07c-.14-.27-.33-.53-.47-.79a8.89,8.89,0,0,0-.55-.91,9.55,9.55,0,0,1-.6-.89c-.17-.33-.36-.64-.52-1s-.31-.64-.44-1a5.39,5.39,0,0,1-.3-1.08c0-.27-.09-.56-.12-.84s-.11-.54-.16-.8-.1-.61-.15-1.15c0-.36,0-.76,0-1.16s0-.81-.07-1.16c0-.59-.08-1-.07-1.15a11,11,0,0,0,0-1.16c0-.45,0-.92-.05-1.16a4.86,4.86,0,0,1-.19-1.14c-.22-.18,0-.51-.19-.7.05-.34-.18-.65-.17-1s.19-.77.19-1.15A3.14,3.14,0,0,1,20,19.71a1.93,1.93,0,0,1,.79-1,7.45,7.45,0,0,1,.81-.39,5.31,5.31,0,0,1,.85-.28,2,2,0,0,0,.87-.39c.33-.28.7-.51,1-.82a1.41,1.41,0,0,1,1.42-.22,4.77,4.77,0,0,1,1.22.49,4.36,4.36,0,0,0,1,.47,1,1,0,0,0,.95-.37c0-.05.38-.41.77-.86.24-.28.55-.56.8-.84.4-.45.71-.83.76-.86a.58.58,0,0,0,.12-.88,2.21,2.21,0,0,0-.53-.58,8.68,8.68,0,0,1-.95-.73,13.64,13.64,0,0,1-1.08-.94,1.85,1.85,0,0,0-.48-.35.64.64,0,0,0-.49,0,3.69,3.69,0,0,0-1.3.77,3.6,3.6,0,0,1-.93.54,1.46,1.46,0,0,1-1.25.11.38.38,0,0,1-.11-.06c-.23-.25-.62-.26-.89-.45a2.41,2.41,0,0,0-1.59-.51,7.82,7.82,0,0,1-1-.17,1.26,1.26,0,0,1-.53-.21,2.91,2.91,0,0,1-.69-.59,3.07,3.07,0,0,1-.46-.78c-.12-.28-.14-.6-.24-.89a2.19,2.19,0,0,0-.46-.83c-.29-.29-.47-.68-.77-1a1.48,1.48,0,0,1-.49-1.47,2.2,2.2,0,0,1,.28-.78,7.37,7.37,0,0,0,.74-1.13c.27-.62.22-.81-.25-1.28-.21-.21-.49-.31-.68-.54a1.17,1.17,0,0,0-.36-.36c-.16-.07-.24-.22-.49-.18,0,0,0-.09,0-.15s0-.1-.12-.14a15.54,15.54,0,0,1-1.32-1c-.21,0-.38,0-.59,0A.87.87,0,0,1,14,.35c-.24.24-.54.42-.76.68s-.39.55-.6.82a1.2,1.2,0,0,1-.23.21,7.33,7.33,0,0,0-.84.89A1.08,1.08,0,0,0,11.51,4a2.78,2.78,0,0,0,.64.86,5.18,5.18,0,0,1,.79,1.3,1.68,1.68,0,0,1,0,.5.84.84,0,0,1-.16.68c-.17.23-.24.5-.43.72s-.28.34-.12.58c0,.06,0,.13-.09.16-.29.08-.29,0-.31.32,0,.13.06.29-.07.4s-.06.12,0,.15-.08.38-.1.48a3.23,3.23,0,0,1-.26,1,2.46,2.46,0,0,1-.7.74,3,3,0,0,1-.91.44c-.23.07-.49.06-.72.12a3,3,0,0,0-.78.43c-.25.15-.49.32-.72.5a4.16,4.16,0,0,1-1.17.72A1.37,1.37,0,0,1,5.36,14c-.48-.23-1-.39-1.46-.65a5.24,5.24,0,0,0-.59-.22.65.65,0,0,0-.72.06c-.33.34-.55.77-.85,1.14,0,0-.12.07-.16.12a6.89,6.89,0,0,0-.58.72,4.47,4.47,0,0,1-.66.65c-.13.1-.14.29-.3.36,0,.21,0,.42,0,.63.24,0,.12.32.33.32L1.44,18c.37.29.75.56,1.12.84.18.14.41.24.58.41s.12.16.23.17A1.88,1.88,0,0,0,4.77,19a5,5,0,0,1,.89-.63,2.06,2.06,0,0,1,1.19-.39,2.21,2.21,0,0,1,.78.24c.47.23.9.51,1.36.75a1.24,1.24,0,0,0,.69.13,3.54,3.54,0,0,1,1.42.23,2.44,2.44,0,0,1,1.19.72,2.83,2.83,0,0,1,.48,1.3,8.38,8.38,0,0,0,.26,1c.1.33.2.67.32,1a12.13,12.13,0,0,0,.54,1.1c.18.37.36.74.52,1.11a4.12,4.12,0,0,1,.46,1.65,5.72,5.72,0,0,1-.26,1.27c-.11.49-.32.95-.44,1.43-.08.31-.11.63-.18.95a3.25,3.25,0,0,0-.11.95c0,.55,0,1.11,0,1.66a1.71,1.71,0,0,1,0,.75,3.54,3.54,0,0,0-.1.78,8.87,8.87,0,0,1-.3.95c-.1.32-.18.64-.3.94s-.3.74-.45,1.11-.32.73-.5,1.09a3.74,3.74,0,0,0-.36,1.2,6.5,6.5,0,0,0-.1,1.46,8.79,8.79,0,0,1-.08,1,5.88,5.88,0,0,1-.4,1c-.15.32-.28.7-.42,1a5.13,5.13,0,0,0-.43,1c0,.05,0,.1,0,.15a10.83,10.83,0,0,1-1.27.85c-.33.24-.73.4-1.06.65a3.67,3.67,0,0,0-.65.73,2.57,2.57,0,0,0-.52.82c0,.09-.05.19-.07.28-.28.2-.23.41-.6.53C5.66,50,5.6,51,4.48,51.09c-.51.06-.32.4-1,.49s-.84,1.83-.84,1.83c0,.82,1.51.81,3.55,1.68a8.93,8.93,0,0,0,3,.89A14.92,14.92,0,0,0,13,55.32s1.24-.19,3.4-.38,1.16-.11,5.28.49,1.66.18,2.56.27,8.4-.82,10.1-1.71C35.46,53.4,34.92,52.94,34.4,52.69ZM26.89,14.19a5.89,5.89,0,0,1,.79-.77,1,1,0,0,1,.9,0,1.52,1.52,0,0,1,.77.52c.06.16-.11.5-.36.78a1.46,1.46,0,0,1-.74.43,1.38,1.38,0,0,1-.79-.33C27.12,14.55,26.82,14.28,26.89,14.19ZM4,16.88a1.48,1.48,0,0,1-.75.43A1.37,1.37,0,0,1,2.4,17c-.35-.25-.66-.59-.59-.68a5.23,5.23,0,0,1,.78-.8c.16-.14.6-.1,1,0a1.66,1.66,0,0,1,.81.53C4.43,16.23,4.22,16.61,4,16.88ZM15.78,3.74a1.49,1.49,0,0,1-.48.8c-.15.07-.46-.13-.76-.36A1.59,1.59,0,0,1,14,3.56a1.43,1.43,0,0,1,.3-.81c.22-.36.51-.74.61-.69a8.92,8.92,0,0,1,.81.78A1,1,0,0,1,15.78,3.74Z"/>
  </g>
</svg>
