<svg xmlns="http://www.w3.org/2000/svg" xmlns:xlink="http://www.w3.org/1999/xlink" viewBox="0 0 582.72 540.08">
  <defs>
    <style>
      .cls-1 {
        fill: none;
      }

      .cls-2 {
        clip-path: url(#clip-path);
      }

      .cls-3 {
        fill: #fff;
      }
    </style>
    <clipPath id="clip-path">
      <rect class="cls-1" x="-16" y="-32.92" width="609" height="572"/>
    </clipPath>
  </defs>
  <title>アートボード 11</title>
  <g id="graphcs">
    <g class="cls-2">
      <path class="cls-3" d="M581.43,241.29c-.69-10-1.7-18.62-4.2-24.35-2.29-5.25-6.52-12.35-10-21.32-2.62-6.68-5.21-14.22-8.42-22-2.91-7-4.95-14.82-8.29-22.09s-8.11-13.64-11.79-20.44c-1.19-2.2-2.35-4.39-3.5-6.54l1.4-1.63c6-7,11.14-13.17,13.3-16.67s5.42-12.67,8.51-22.9c2.43-8,5.33-16.56,7.2-23.5.72-2.69-3.56-5.34-5.73-3.46-3,2.61-5.78,5.67-8.67,7.53-2.24,1.44-5.93-.65-5.26-3.15,1.75-6.48,1.95-13.78,1.61-21.18a154.71,154.71,0,0,0-2.67-21.32c-.48-2.57-1.7-2.48-3.08-.11-3.45,5.94-9.67,9.68-13.2,12.55-1.79,1.46-3.52.83-3.82-1.33C523.31,18.67,516,6.71,510.4-.17c-1.64-2-5.89.1-5.87,2.78.05,6-.23,13.65-.89,21.79-.58,7.14-2,14.59-2.86,21.64-1,8.26-2.66,15.77-3.67,21.45a55,55,0,0,1-5.5,15.13c-1.17-.22-2.33-.51-3.51-.66-8.15-1.07-17.27-.53-26.42,1-8.35,1.37-16.7,4.81-25.22,7.5s-17.24,4.41-25.2,7.57c-8.65,3.44-16.47,8-23.84,11.07-7.82,3.29-15,4.81-21.61,6.33-8,1.85-15.1,4.41-22.21,4.44a174,174,0,0,1-22.66-1.68c-7-.88-14.12-3.45-22.25-4.35-8.38-.93-18.08-2.64-28.39-4.45-9.19-1.62-18.92-2.93-28.52-4.21a204.79,204.79,0,0,0-28.7-1.66c-.84,0-1.61.1-2.43.13-.16-.2-.34-.38-.5-.58a96.81,96.81,0,0,1-12.21-20.91c-3.32-7.49-6.71-15-8.9-22.78-2.36-8.39-5.85-16.26-7.16-23.62C180,25,180.6,15.94,180.17,11.14c-.21-2.41-3-2.73-4.45-.69-3.14,4.45-5.5,13.23-7.08,22.54-1.53,9-3.33,18.17-3.79,23.73-.18,2.24-2,3.16-3.57,1.73-5.93-5.35-15.93-14.41-21-20A2.43,2.43,0,0,0,136,40c.08,6.5,4,14.43,6.73,22.49,2.92,8.48,5.7,16.83,8.12,22,1.07,2.31-2.37,5.79-4.55,4.59-4.17-2.27-8.48-7.33-12.66-10.39-2.15-1.57-6.19,2-5,4.48,5,10.11,14.39,22.18,19.79,29.31,1.56,2.06-.93,6.13-3.33,5.23-9-3.4-19.15-12.48-26.11-18.17-2.1-1.72-5.82,1.31-4.58,3.8,2.3,4.6,7.34,9.49,13.2,15.95a103.8,103.8,0,0,0,15,14.16c2.53,1.89,5,3.71,7.49,5.49-2,2.64-4,5.33-6,8.1-5.52,7.9-11.05,16-15.75,23.92-5.34,9.05-8.94,18.35-13,25.53-4.15,7.39-8.54,15-11.54,23.6-2.81,8-4.14,16.77-6,25.62-1.78,8.4-3.46,17-4.47,25.9-1,8.6-1.6,17.35-1.92,26.25s-.09,17.87,2.49,25.79c2.87,8.83,7.71,16.55,11.89,23.16,7.94,12.55,15.36,7.34,16.11,20.31a63,63,0,0,0-22.17,10.73c-6.23,4.55-12.05,10.46-17.93,17-5.28,5.85-9.61,12.91-14.58,19.92q-7,9.83-13.51,20.65c-4.22,7-9.52,13.5-13.45,20.81s-8.58,14.28-12.19,21.6c-3.74,7.57-6,15.71-9.36,23-3.66,7.85-6.92,15.5-10.13,22.59-4.08,9-8.57,17.09-10.67,25.29-2.42,9.45-3,18.66-3.57,27.24a208.69,208.69,0,0,0,.07,27.4c.61,9.38,1.51,18.41,2.13,27.27a159.55,159.55,0,0,1-.13,27.19c-.65,6.49-.7,15.08-1.45,24.86-.59,7.62-2.17,15.95-2.76,24.75-.54,8,1.1,16.54.6,25-.49,8.3-3,16.56-3.38,24.75-.44,8.58.48,17,.17,24.93-.36,9.09-.34,17.52-.48,24.86a192,192,0,0,0,.83,24.72c2.51,20,4.89,9.26,18.37,7.38,13.83-1.93-1.75,10.84-4.44,26.59-1.44,8.45-3.91,17.91-5.17,27.51S-4.46,912.54-4.85,921c-.67,14.31,1.48,24.85,6,26.13C16,951.31,15.36,939.2,30,927.6c11.74-9.3-4,15.18-3.84,29.56.17,12.77,3.75,24.92,12.65,24.61,6.1-.21,13.71-5.88,21.12-13.33,5.79-5.82,10.6-13.51,15.52-20,8.42-11.11,3.64-25.16,15.54-20.79,10,3.67-2.55,12-1.26,21.9,1.07,8.21,4.77,15.1,12.59,14.22,5.51-.62,12.23-5.75,19.33-12.32a202.5,202.5,0,0,0,15.87-17.19c8.39-9.87,3.37-18.24,15.09-18.86,10.72-.57,7.17,9.34,19.25,9.86,5.74.25,12.25-2.31,20-7a131.67,131.67,0,0,0,22.84-18c7-6.89,15.07-13.51,21.11-20.37,10.86-12.34,3.42-20.22,17.52-24.12,14.4-4,4.37,7.33,28-5.55,5.82-3.18,12.6-9.25,21.18-16.13,6.26-5,14.59-9.14,21.83-15.65,6.28-5.65,12.09-12.63,18.82-19.12,4.1-4,8.58-7.75,13-11.73,9.34,7,17.69,14.82,19.51,19.75,1.29,3.51,3.16,5.3,6,5.73,4.41,10,10.66,24.71,12,33.58,10.45-1.06,2.53-9.74,4.59-20.52,1.36-7.1,2.68-14.63,1.14-20.65,2-2,5.72-3.8,8,.23,1.22,2.14,3.44,4,7.7,4.34,4.44,10,12.27,24.7,13.64,33.51,11.48-13.66,7.91-20.31,7.37-35.45,2.15-.34,2.95,1.29,3.41-.45,3.19-12.06.8-12.69-2.85-25-2.22-7.49-6.6-14.68-14.7-19.22-7.51-4.22-15-9.14-22.23-11.77a60.38,60.38,0,0,1-7.34-3.21c2.07-2.45,4.13-4.91,6.23-7.31,5.92-6.77,11.89-13.85,17.61-21.23s11.58-14.38,16.84-21.88c5.37-7.66,9.4-16.11,14.23-23.65,5.18-8.1,11.09-15.36,15.44-22.87,5.06-8.74,9-17.2,12.66-24.48,5.46-11,8.44-20.08,9.64-25.66,1.37-6.37,2-15.84,1.49-26.16-.4-8.75-.12-18.15-1-26.43-1.61-14.63-17.25-29.61-4.84-25.13,9.85,3.56,5.3,9.13,13.66,15.44.76-4.86.75-16.59.41-29.39-.25-9.41-.09-19.71-.53-28.95-.77-16-11.75-18.39-1.58-28.67,9.18,4.44,12.67,12.72,28.2,21.71,0-5.49-2.38-16.72-4.67-28.82-1.75-9.22-3.49-19.24-5.44-28.18-3.39-15.55-10.45-14.58-6.6-28.4,3.45-12.36,8.68-7.62,19.65-17.32,5.92-5.24,12.45-11.34,18.92-17.38,6.65-6.21,14.88-10.68,20.13-16.21,4.6-4.84,8.13-13.22,11.2-22.47,2.42-7.27,2.92-15.86,4.36-24.46,1.35-8.08,4-16.29,4.44-24.48C583.22,257.41,582,248.92,581.43,241.29Zm-285.27,45.5a59.5,59.5,0,0,1-14.8,20.63c-6.35,5.77-14.8,8.44-22.35,11.41A71.63,71.63,0,0,1,234.87,324c-9.08.24-17.76-2.72-26-7.62-7.92-4.69-15.93-10.09-20.9-18.11a50.85,50.85,0,0,1-7.36-26.82c0-10.17,3.22-19.69,7.25-27.72,7-14,3.41-17.56,16-24.56,9.39-5.2,9.68.43,21.93,2.29,6.32,1,13.77,1.78,20.95,4.8,8.4,3.53,17.74,11.07,26.88,17.29,13.95,9.5,17.21,5,25.65,18.59C299.27,271.44,299.13,279.71,296.16,286.79Zm70.35,53c-.71,5.67-4,14.16-7.83,22-4.16,8.49-8.62,16.73-11,20.64-.61,1-3.29.56-3.74-.53a199.31,199.31,0,0,0-8.41-19.29,173.38,173.38,0,0,0-11-17.91c-3.8-5.49-5.33-10.43-5.5-14.49-.38-9,1.4-7.61,5.81-14,7.28-10.59,6.79-13.13,20.83-11.81,7.32.69,14,5.6,17.47,13A42.86,42.86,0,0,1,366.51,339.76Zm130.88-57.48c-3.24,6.86-8.17,12.71-13.66,18A67.27,67.27,0,0,1,465,312.76c-7.13,3.34-14.19,6.56-21.57,6.76-7.83.21-16.46-1.55-25-4.25-8-2.52-16.33-5.42-23-10.83-6.43-5.18-11.2-12.43-14.88-20.58a60.24,60.24,0,0,1-5.75-24.93c4.84-10.37,7.29-7.11,17.53-15.1,5.58-4.36,13.33-7.32,19.81-11.77,6.76-4.64,13.09-9.49,19.13-12.43a104,104,0,0,1,21.93-8c13.26-3,12.8-8.36,23.5-3.57,13.56,6.07,9.61,10.14,17.37,24.25,4.42,8,9.26,17.33,9.26,28C503.28,268,500.63,275.41,497.39,282.28Z"/>
    </g>
  </g>
</svg>
