<svg xmlns="http://www.w3.org/2000/svg" viewBox="0 0 82.21 51.08">
  <defs>
    <style>
      .cls-1 {
        fill: #fff;
      }
    </style>
  </defs>
  <title>アートボード 16</title>
  <g id="graphcs">
    <path class="cls-1" d="M62,33.64c.27-.07.35-.49.08-.58a15.25,15.25,0,0,0-2.74-.5,21.51,21.51,0,0,0-2.77-.27c-.9,0-1.82.24-2.76.32s-1.83.15-2.75.29-1.85.19-2.75.39-1.82.41-2.7.64-1.8.51-2.67.78-1.76.7-2.6,1-1.81.6-2.62.91c-1,.37-1.85.67-2.59,1-1.25.52-2.13.94-2.52,1.15a2.51,2.51,0,0,1-2.66-.14,13.85,13.85,0,0,0-2.47-1.35c-.87-.25-.16-.89.59-1.65s1.2-1.41,1.17-1.89c0-.77-1.81-.09-2.75.26-.11,0-.18-.16-.26-.25a1.8,1.8,0,0,0-.83-.38,1.83,1.83,0,0,0-.86-.37c-.11,0-.31,0-.35-.06-.34-1-1-2.8-1.61-2.33-.38.28-.51,1.27-.59,2.18-.1,1.07-.16,2-.91,1.53a14.66,14.66,0,0,0-2.7-.84,2.82,2.82,0,0,1-1.85-2.13,19.51,19.51,0,0,0-.61-2.71c-.24-.77-.55-1.66-.9-2.64-.29-.82-.67-1.68-1-2.59S13.4,21.6,13,20.72s-.84-1.65-1.25-2.5-.87-1.64-1.31-2.46-.78-1.7-1.26-2.5-1-1.57-1.56-2.32S6.38,9.52,5.8,8.82A23,23,0,0,0,4,6.68,14.94,14.94,0,0,0,1.73,5c-.24-.15-.63.18-.51.43A16.46,16.46,0,0,1,2.57,8.15a12,12,0,0,1,.32,3,5.39,5.39,0,0,1-.36,2.93A4.35,4.35,0,0,1,.21,16c-.18.07-.27.18-.15.33a10.08,10.08,0,0,1,1.43,2.54A8.9,8.9,0,0,1,2,21.68a8,8,0,0,1-.22,2.91,10.27,10.27,0,0,1-1.38,2.6c-.09.13-.18.34,0,.43A25.2,25.2,0,0,1,2.5,29c.62.46,1.35,1,2.07,1.6s1.27,1.15,1.9,1.79,1.13,1.31,1.69,2A20,20,0,0,1,9.77,36.5,14.48,14.48,0,0,1,11,38.84a10.57,10.57,0,0,1,.62,2.56A8.67,8.67,0,0,1,11.27,44c-.05.27.38.49.58.3a5.8,5.8,0,0,1,2.67-1.58c.9-.14,1.76.27,2.44,1.58,0,0,1.67,1,1.76,1.06.28.19,2.65,1.41,2.75,1.43a3.87,3.87,0,0,0,1,0,2.3,2.3,0,0,1,2.75.94,5.92,5.92,0,0,1,.6,3,.25.25,0,0,0,.47.15,8.63,8.63,0,0,1,1.84-1.86A10.39,10.39,0,0,1,30.53,48a14.12,14.12,0,0,1,2.55-.46,19.23,19.23,0,0,1,2.57-.24,25.87,25.87,0,0,1,2.59.08c.9.07,1.77.11,2.58.24s1.78.41,2.53.59c1.19.27,2.11.4,2.54.54.16,0,.44,0,.48-.17a9.94,9.94,0,0,1,1-2.68,8.47,8.47,0,0,1,1.74-2.33,8.76,8.76,0,0,1,2.58-1.39,8.54,8.54,0,0,1,2.88-.37.41.41,0,0,0,.3-.49,4.34,4.34,0,0,1-.2-2.92,5.3,5.3,0,0,1,1.89-2.27,11.46,11.46,0,0,1,2.6-1.41A23.69,23.69,0,0,1,62,33.64Z"/>
    <path class="cls-1" d="M82.06,17.13c.16,0,.21-.29,0-.35a9.12,9.12,0,0,0-1.64-.3,12.87,12.87,0,0,0-1.66-.16c-.54,0-1.09.14-1.65.19s-1.09.09-1.65.18-1.1.12-1.65.23-1.09.25-1.62.39-1.08.31-1.6.46-1.05.42-1.55.59-1.08.36-1.57.54-1.11.4-1.55.59c-.75.31-1.27.56-1.51.69a1.5,1.5,0,0,1-1.59-.08,8.28,8.28,0,0,0-1.48-.81c-.52-.15-.09-.53.35-1s.72-.85.7-1.13c0-.46-1.08-.06-1.64.15-.07,0-.11-.1-.16-.15a1.08,1.08,0,0,0-.5-.23,1.1,1.1,0,0,0-.51-.22c-.07,0-.19,0-.21,0-.21-.57-.6-1.67-1-1.4s-.31.76-.36,1.3-.1,1.22-.54.91A8.77,8.77,0,0,0,56,17a1.69,1.69,0,0,1-1.11-1.27,11.67,11.67,0,0,0-.37-1.62c-.15-.46-.33-1-.54-1.58s-.4-1-.62-1.55S53,9.93,52.78,9.4s-.5-1-.75-1.5-.52-1-.78-1.47-.47-1-.75-1.49-.62-.94-.93-1.39-.75-.85-1.1-1.26A13.73,13.73,0,0,0,47.39,1,8.94,8.94,0,0,0,46,0c-.14-.09-.38.11-.3.26a9.85,9.85,0,0,1,.8,1.6,7.19,7.19,0,0,1,.19,1.78,3.22,3.22,0,0,1-.22,1.75,2.6,2.6,0,0,1-1.39,1.13c-.11,0-.16.11-.09.2a6,6,0,0,1,.86,1.52A5.33,5.33,0,0,1,46.17,10,4.75,4.75,0,0,1,46,11.72a6.14,6.14,0,0,1-.83,1.55c-.06.08-.11.2,0,.26a15.07,15.07,0,0,1,1.31.86c.37.28.81.58,1.24,1s.76.69,1.14,1.07.68.78,1,1.2a11.94,11.94,0,0,1,1,1.23,8.66,8.66,0,0,1,.71,1.4,6.32,6.32,0,0,1,.37,1.53,5.19,5.19,0,0,1-.19,1.55c0,.16.23.29.35.18a3.47,3.47,0,0,1,1.6-.95c.54-.08,1.05.16,1.46.95,0,0,1,.62,1.05.63s1.58.84,1.65.86a2.32,2.32,0,0,0,.6,0,1.38,1.38,0,0,1,1.65.56,3.54,3.54,0,0,1,.36,1.82.15.15,0,0,0,.28.09,5.16,5.16,0,0,1,1.1-1.11,6.21,6.21,0,0,1,1.43-.64,8.45,8.45,0,0,1,1.53-.27,11.5,11.5,0,0,1,1.54-.14,15.47,15.47,0,0,1,1.55,0c.54,0,1.06.07,1.54.15s1.07.25,1.51.35c.71.16,1.26.24,1.52.32.09,0,.26,0,.29-.1a5.94,5.94,0,0,1,.61-1.6,5.07,5.07,0,0,1,1-1.39,5.24,5.24,0,0,1,1.54-.83A5.11,5.11,0,0,1,77.66,22a.25.25,0,0,0,.18-.29A2.6,2.6,0,0,1,77.72,20a3.17,3.17,0,0,1,1.13-1.36,6.85,6.85,0,0,1,1.56-.84A14.17,14.17,0,0,1,82.06,17.13Z"/>
  </g>
</svg>
