<svg xmlns="http://www.w3.org/2000/svg" viewBox="0 0 80 160">
  <defs>
    <style>
      .cls-1 {
        fill: #fff;
      }
    </style>
  </defs>
  <title>アートボード 17</title>
  <g id="graphcs">
    <path class="cls-1" d="M17.76,0A6.18,6.18,0,0,1,18,2.46a29.12,29.12,0,0,1,0,3.25,4.87,4.87,0,0,0,.29,1.78c.1.34.31.39.62.28a3.1,3.1,0,0,0,2-2c.32-.9.59-1.82.87-2.74A3.08,3.08,0,0,1,22,2.24c.11-.18.2-.49.47-.41s.18.34.2.55a3.54,3.54,0,0,1-.13,1.17,9.79,9.79,0,0,1-1.48,3.68,4.14,4.14,0,0,1-.79.79c-.24.18-.17.28.07.38a5.74,5.74,0,0,0,3.49.34,13.07,13.07,0,0,0,1.72-.57c.13-.05.28-.16.4,0s0,.28-.06.41A2.17,2.17,0,0,1,24.4,9.62c-1,.29-1.05.49-.31,1.26a2.23,2.23,0,0,0,1.7.91.18.18,0,0,1,.14.09c0,.09,0,.15-.13.18a2,2,0,0,1-1.29,0,3.1,3.1,0,0,1-1.37-.84c-.53-.53-1.05-1.07-1.58-1.6a1.74,1.74,0,0,0-2-.53,2,2,0,0,0-1,2,15.62,15.62,0,0,1,0,3.68c0,.12-.06.28,0,.36.36.5.07.88-.11,1.36-.47,1.21-1.05,2.36-1.62,3.52a7.55,7.55,0,0,0-.51,1.54c0,.08-.07.18,0,.23s.15,0,.21-.09A7.7,7.7,0,0,0,18,20.27,9.42,9.42,0,0,1,19.18,19c.1-.1.23-.24.38-.14s.1.26,0,.4a15.19,15.19,0,0,1-3.25,5.29A1.94,1.94,0,0,0,15.83,26c0,.94-.19,1.87-.15,2.81a2.72,2.72,0,0,0,0,.43c0,.12.06.26.2.29s.21-.11.28-.2l.89-1a1.39,1.39,0,0,1,1.28-.51c.51,0,.58.18.3.61s-.62.94-.91,1.42a9.12,9.12,0,0,0-.44.82c-.1.2-.3.48-.18.63s.41,0,.61-.12a14.23,14.23,0,0,1,3.43-.62.49.49,0,0,1,.59.34.55.55,0,0,1-.26.69,2.36,2.36,0,0,1-1.17.4,3.39,3.39,0,0,1-.69,0,1.7,1.7,0,0,0-1.8.71,2.15,2.15,0,0,1-1,.66,1.05,1.05,0,0,0-.67.9,13.25,13.25,0,0,0,0,4.23c0,.27.08.54.12.8a6.3,6.3,0,0,0,1.77,3.36,31.12,31.12,0,0,0,6.19,4.62,9.1,9.1,0,0,0,2.73.87c.25.07.38-.08.35-.3-.09-.77.61-1.14.86-1.73a.42.42,0,0,1,.44-.18c.41,0,.68-.07.76-.52a.5.5,0,0,1,.41-.42c.34-.05.44-.27.49-.55a1.22,1.22,0,0,1,.16-.47,1,1,0,0,1,1.14-.43c.38.17.49.53.3,1.08a23.63,23.63,0,0,0-1.07,3.85,11.78,11.78,0,0,0,0,3,4.45,4.45,0,0,0,1.21,2.22,21.09,21.09,0,0,1,3,4.24,12.56,12.56,0,0,1,1.05,4c0,.56.19,1.11.29,1.66a2.31,2.31,0,0,1-.09,1.35,1.38,1.38,0,0,0,0,.86,32,32,0,0,1,.83,5.23c0,.1,0,.24.11.25s.14-.14.2-.22a20.68,20.68,0,0,0,3.1-7.58c.34-1.82.59-3.66.84-5.49a19.22,19.22,0,0,0-.25-5.6c-.14-.86-.31-1.72-.48-2.58a13.39,13.39,0,0,0-1.78-4.51,12.25,12.25,0,0,1-1-1.89,10.37,10.37,0,0,0-2.13-3.21,31.17,31.17,0,0,0-3.43-3.19,2.94,2.94,0,0,0-1.39-.62,4,4,0,0,1-3-2.7.55.55,0,0,1,.1-.69c.23-.19.46-.11.7,0s.45.42.64.23,0-.5-.14-.75a9.48,9.48,0,0,1-.83-3.75,5.62,5.62,0,0,1,.66-2.7,1.46,1.46,0,0,0,.06-1.37,16.22,16.22,0,0,0-1.16-2.28,20.33,20.33,0,0,1-1.53-2.86,2.67,2.67,0,0,1-.13-1.89,2,2,0,0,1,.18-.4c.1-.16.23-.32.44-.3s.28.22.34.4a2.88,2.88,0,0,1,.09,1.05,1.66,1.66,0,0,0,.61,1.31c.35.31.65.27.85-.16a11.87,11.87,0,0,0,1.36-4.32,7.23,7.23,0,0,1,.37-1.89,5.47,5.47,0,0,0,.07-3.38A6.38,6.38,0,0,1,30.38,9a.36.36,0,0,1,.18-.43c.19-.08.3.06.41.19s.11.31.21.27.06-.26,0-.39a5.26,5.26,0,0,0-.22-1,.36.36,0,0,1,.11-.5.44.44,0,0,1,.52.07,1.64,1.64,0,0,1,.71,1.57c0,.41-.09.83-.17,1.24a15.89,15.89,0,0,0-.25,3.48,4.89,4.89,0,0,1-.47,1.8c-.4,1.12-.87,2.21-1.18,3.36a9.18,9.18,0,0,0-.36,3.76,1.45,1.45,0,0,0,0,.31c.06.15,0,.38.22.42s.25-.18.33-.31A22.05,22.05,0,0,0,33,17.74a17.83,17.83,0,0,0,.42-2.33c0-.19,0-.47.28-.48a.53.53,0,0,1,.52.46,2.65,2.65,0,0,1,0,1.06,29.74,29.74,0,0,1-.54,3.39c-.15.55.12.79.67.63a2.12,2.12,0,0,0,.88-.58,5.31,5.31,0,0,1,1.09-.72c.09-.05.19-.1.29,0s.06.19,0,.29a2.69,2.69,0,0,1-.83,1.37,3.51,3.51,0,0,1-1.86.82,1.38,1.38,0,0,0-1.05.66,11.24,11.24,0,0,0-2.05,7.56,5.6,5.6,0,0,0,1.19,2.64c.2.31.38.11.53-.08a5,5,0,0,0,1-2.47,18.53,18.53,0,0,0,.26-3.23s0-.08,0-.13,0-.37.21-.4.27.16.31.32c.18.66.37,1.32.53,2a4.35,4.35,0,0,1-.34,3c-.24.51-.49,1-.73,1.52a1.88,1.88,0,0,0,.08,1.91,9.82,9.82,0,0,0,2.34,2.66c.86.62,1.71,1.26,2.58,1.87.39.27.49.21.52-.26a7,7,0,0,1,.9-3.34,7.28,7.28,0,0,1,1.37-1.53,11.15,11.15,0,0,0,1.79-2.24c.26-.4.23-.47-.26-.54a1.69,1.69,0,0,1-1.41-1.17A17.57,17.57,0,0,1,41,19.5a2.24,2.24,0,0,1,.34-.8c.1-.13.16-.34.35-.32s.2.24.25.39a2.34,2.34,0,0,1,0,1.11,15.12,15.12,0,0,0-.21,3.24,21.8,21.8,0,0,0,.72,5.24,8.14,8.14,0,0,1,.25,1.1.69.69,0,0,0,.75.67,2.23,2.23,0,0,1,.79.17c.5.18.59.15.77-.37a7.46,7.46,0,0,0,.35-3.45,11.6,11.6,0,0,0-.5-2,1.6,1.6,0,0,1-.11-.42c0-.27.14-.33.36-.19a1,1,0,0,1,.36.42A12.35,12.35,0,0,1,46.67,28a3.35,3.35,0,0,1-.1,1.3c0,.11-.16.23,0,.33s.18-.08.27-.12a1.08,1.08,0,0,0,.57-.55,1.65,1.65,0,0,1,.25-.36c.15-.18.32-.34.59-.23a.58.58,0,0,1,.35.54,3.41,3.41,0,0,1-.94,2.75A9.54,9.54,0,0,1,46,33.08c-.7.48-1.39,1-2.1,1.47a4.58,4.58,0,0,0-1.69,3.22A9.73,9.73,0,0,0,44,45.39c1,1.46,1.91,3,2.77,4.53a2.57,2.57,0,0,0,1.25,1.25,2.62,2.62,0,0,1,.8.69c.72.72,1.12.72,1.82,0a9.46,9.46,0,0,0,1.95-3.94,22.86,22.86,0,0,0,.74-7.55c-.06-1.22-.34-2.43-.5-3.65a20.33,20.33,0,0,1,0-4.12.57.57,0,0,0,0-.06A7.4,7.4,0,0,1,54.36,28c.58-.87.79-1.93,1.39-2.79a.32.32,0,0,0-.06-.45,2.85,2.85,0,0,1-.58-1,1.31,1.31,0,0,0-.67-.62c-.51-.29-.52-.51-.09-.9a1,1,0,0,1,1.3-.19c.22.11.43.25.65.38.46.27.56.22.59-.33a3.64,3.64,0,0,0-.8-2.5,13.56,13.56,0,0,0-1.1-1.2,4.28,4.28,0,0,1-1.11-2c-.1-.39,0-.47.37-.34a4.32,4.32,0,0,1,1.57,1.11,7.68,7.68,0,0,1,2.14,4.29A3.32,3.32,0,0,0,58,22c0,.13-.06.35.14.36s.21-.19.27-.31a8.64,8.64,0,0,0,.89-5.87,8.14,8.14,0,0,0-1.7-3.77,6,6,0,0,0-4.63-2,2.14,2.14,0,0,0-2.13,1.74c-.07.3-.18.59-.53.61s-.53-.26-.63-.58a2.1,2.1,0,0,1-.1-.61c0-.51-.14-.61-.65-.5-.18,0-.36.11-.54.17a.45.45,0,0,1-.53-.22.46.46,0,0,1,0-.58,1.19,1.19,0,0,1,.94-.54,2.25,2.25,0,0,0,1.2-.46c.33-.25.67-.33,1,.07a.46.46,0,0,0,.61.12A6,6,0,0,1,53.78,9c.23,0,.23-.2.17-.38a5,5,0,0,0-.76-1.7c-.3-.37-.58-.77-.86-1.15-.11-.14-.17-.29,0-.45a.36.36,0,0,1,.5-.07,1.76,1.76,0,0,1,.34.28A15.71,15.71,0,0,0,54.72,7a1.22,1.22,0,0,1,.48,1c0,.61.26,1.17.27,1.79,0,.27.91.79,1.15.71s.15-.2.11-.31a1.46,1.46,0,0,1,.65-1.78,3.06,3.06,0,0,0,.71-.95A7.53,7.53,0,0,1,59,6.29c.16-.19.38-.42.63-.27s.12.43,0,.64a10.7,10.7,0,0,0-.49,2.06,11.28,11.28,0,0,0-.09,1.56A10.63,10.63,0,0,1,59,11.58c-.12.79.36,1.21,1.14,1.05a5.91,5.91,0,0,1,1.3-.14,1,1,0,0,0,1.07-.77,3.63,3.63,0,0,0,.25-1.28,5.42,5.42,0,0,1,1-2.59c.17-.31.45-.25.7-.06a1.29,1.29,0,0,1,.14,1.69A1.2,1.2,0,0,0,64.35,11a.81.81,0,0,1-.14,1.06,11.43,11.43,0,0,1-1.54,1.46,2.1,2.1,0,0,1-1.27.47c-.72,0-.72,0-.56.77a19.46,19.46,0,0,1,.49,4.08c0,.55-.31,1.08-.09,1.65,0,.1-.12.29-.21.44a1.17,1.17,0,0,0-.2.45c0,.12,0,.26.06.35s.24,0,.35,0a3.55,3.55,0,0,0,.71-.5A10.56,10.56,0,0,0,64.48,18a5.09,5.09,0,0,1,.47-.81c.21-.28.51-.24.61.1A2,2,0,0,1,65.43,19a12.65,12.65,0,0,0-1.66,3,1.29,1.29,0,0,1-.54.59,6.73,6.73,0,0,1-1.21.65c-.48.21-.95.43-1.42.66-.19.09-.43.19-.44.41s.28.26.46.33a3.17,3.17,0,0,1,1.56,1.2.61.61,0,0,1,.11.7c-.17.29-.45.26-.73.19a2.57,2.57,0,0,1-1.27-.46c-.26-.24-.56-.09-.82,0a5.48,5.48,0,0,0-3,3A15.31,15.31,0,0,0,55.2,35.9c.09,1.37.07,1.39,1.21.69,1.57-1,3.26-1.68,4.84-2.61,1.4-.83,2.78-1.68,4.23-2.41a3.34,3.34,0,0,0,1.66-1.95A29.94,29.94,0,0,0,68,26.23a24.23,24.23,0,0,1,1.25-4.31,1.37,1.37,0,0,0-.07-1.2,22.19,22.19,0,0,1-1-2.29c-.23-.66-.15-1,.24-1.21s.7.06,1.06.59a2.91,2.91,0,0,1,.39.78,4.64,4.64,0,0,0,.27.89c.85,1.56.22,3-.42,4.37a3.77,3.77,0,0,0-.53,1.71c0,.12,0,.27.1.34s.23-.06.31-.14.4-.43.61-.63a1.75,1.75,0,0,1,1.1-.53,1.63,1.63,0,0,0,1.51-1.21,2.17,2.17,0,0,1,.11-.29c.21-.42.47-.56.78-.39a.6.6,0,0,1,.2.91c-.2.32-.45.6-.66.91-.38.53-.32.69.29.87a2.33,2.33,0,0,0,2.59-.8c.68-.79,1.42-1.52,2.13-2.28.17-.18.33-.43.62-.24s.23.42.15.68-.23.71-.36,1.07c0,.1-.07.22-.14.27-.78.51-1.13,1.43-1.87,2a5.18,5.18,0,0,1-4.82.58,1,1,0,0,1-.27-.15c-.67-.45-1-.43-1.44.25-.94,1.53-1.88,3.05-2.69,4.65-.16.32,0,.45.29.5a6.38,6.38,0,0,0,1.18.1c.4,0,.51.15.4.54a1.23,1.23,0,0,1-.53.67c-.33.22-.21.35.09.43a7.89,7.89,0,0,0,2.66.2,26.08,26.08,0,0,0,4.13-.65l.18,0c.25,0,.57-.06.67.2s-.13.47-.33.62a9.1,9.1,0,0,1-3.7,1.59,7.46,7.46,0,0,1-5.14-.84,3.46,3.46,0,0,0-4.26.49,6.22,6.22,0,0,1-2.25,1.21A7.54,7.54,0,0,0,57,39.33a3.66,3.66,0,0,0-.77,3.16,28.69,28.69,0,0,1,.65,3.12,4,4,0,0,1-.59,2.63,1.9,1.9,0,0,0-.33,1.05,2.2,2.2,0,0,1-.25,1,13.53,13.53,0,0,0-1.15,5.84c0,.06,0,.16,0,.17s.15,0,.19-.1c.14-.23.28-.46.41-.7,1-1.9,1.85-3.87,3-5.71a13,13,0,0,1,3.12-3.63,4.1,4.1,0,0,1,1.45-.71c.25-.07.52,0,.48.28s.1.34.34.2a37.22,37.22,0,0,0,4.13-2.59c1.36-1,2.81-1.94,4.17-3,.1-.07.19-.19.33-.13s.1.25.09.39a1.71,1.71,0,0,1-.68,1.15c-.45.4-.93.77-1.4,1.16-.1.08-.28.1-.28.29.12,0,.23-.06.35-.11a2.3,2.3,0,0,1,1.1-.2,1.62,1.62,0,0,1,.43.07c.25.09.58.14.57.48s-.3.44-.56.5a11.88,11.88,0,0,1-1.22.25,7.73,7.73,0,0,0-2.84,1.09c-.07,0-.23.07-.17.19s.15,0,.21-.07a3.29,3.29,0,0,1,1.9-.52,29.37,29.37,0,0,1,3.06-.1,27.51,27.51,0,0,1,4.28.47,1.33,1.33,0,0,1,1,.67.9.9,0,0,0,.74.41,1.58,1.58,0,0,1,1.24,1.18c.06.18.13.36,0,.52s-.33.11-.51,0c-.94-.44-1.93-.79-2.84-1.3A4,4,0,0,0,74,46.19a.63.63,0,0,1-.69-.29.44.44,0,0,0-.5-.18l-1.64.38c-.27.07-.29.18-.05.35.44.31.88.63,1.32,1a2.51,2.51,0,0,1,.68.73c.1.16.23.33.07.51s-.34,0-.5,0l-2.49-1.44-.54-.32a2.34,2.34,0,0,0-2.21-.2c-1.09.42-2.09,1-3.18,1.46-.82.31-1.61.69-2.42,1a2.3,2.3,0,0,0-1.27,1.31,8.29,8.29,0,0,0-.71,4.5,9.3,9.3,0,0,1,0,2.56,29.13,29.13,0,0,1-2.48,8,10.77,10.77,0,0,1-2.22,3.45,7.68,7.68,0,0,1-1.22,1,73.76,73.76,0,0,0-6.17,4.69,33.89,33.89,0,0,0-2.65,2.91c-1.81,1.84-2.69,4.19-3.57,6.53a2.52,2.52,0,0,0,0,1.89,2.44,2.44,0,0,1,.15.86c0,.23.14.31.34.2,1.14-.63,2.29-1.26,2.7-2.62a3.7,3.7,0,0,1,.82-1.52.63.63,0,0,1,.72-.25.6.6,0,0,1,.33.68,4.9,4.9,0,0,1-.45,1.62c-.17.38-.35.76-.51,1.14-.06.13-.21.29-.12.39s.25-.07.37-.11l.11-.06c.17-.09.34-.2.51,0a.41.41,0,0,1,0,.57,3.53,3.53,0,0,1-.3.4A12.87,12.87,0,0,0,43,94a17.39,17.39,0,0,0,.23,6.08,27.6,27.6,0,0,0,.71,2.78c0,.13.05.33.24.31s.13-.19.17-.31a20.68,20.68,0,0,1,2.51-5.22,10.28,10.28,0,0,0,.69-1.19,9.25,9.25,0,0,1,1.21-1.89A17.81,17.81,0,0,0,51.25,90a4,4,0,0,1,.47-.87A3.39,3.39,0,0,0,52.25,88a14.28,14.28,0,0,1,2.38-4.23,11.05,11.05,0,0,1,2.37-2,2.37,2.37,0,0,0,.89-1.09,1.79,1.79,0,0,1,.77-.87,21,21,0,0,0,3.06-2.57,8.23,8.23,0,0,0,2.16-4.16c.06-.26.11-.53.18-.79a1.47,1.47,0,0,1,.36-.72c.19-.19.41-.43.7-.32s.19.45.16.71a11.42,11.42,0,0,0,.47,5.35c.15.44.22.45.57.11l1.11-1.1a1.84,1.84,0,0,1,1-.56.69.69,0,0,1,.83.91,6.3,6.3,0,0,1-.44,1c.31.09.65-.11.95.07.78.48,1.22-.22,1.73-.54.29-.18.51-.47.87-.57a1.08,1.08,0,0,0,.56-.48L74,74.67c.13-.17.28-.34.52-.22a.5.5,0,0,1,.23.54.82.82,0,0,1-.18.53c-.57.56-.65,1.4-1.16,2a.55.55,0,0,0-.11.29,3.32,3.32,0,0,1-1.4,2.14,12.14,12.14,0,0,1-2.45,1.49,48.24,48.24,0,0,0-5.18,3.15c-.23.15-.43.32-.73.17a.54.54,0,0,0-.49,0,3.66,3.66,0,0,0-1.63,1.58c-.54,1.2-1.23,2.32-1.8,3.5C59,91.2,58.43,92.61,57.88,94a22,22,0,0,1-2,4.43,9,9,0,0,0-1.35,3.21,10,10,0,0,1-.36,1.32c-.14.4,0,.59.36.72a7.25,7.25,0,0,1,.82.31,9.22,9.22,0,0,1,5.17,6,24.09,24.09,0,0,1,.83,4,14.46,14.46,0,0,1-.35,4.33,1.2,1.2,0,0,0,0,.9c.15.28,0,.51-.19.74-.57.83-.45,1.12.46,1.55a1.74,1.74,0,0,0,1.44,0,6.08,6.08,0,0,0,3.08-2.72,18.87,18.87,0,0,0,1.55-3.48c.6-1.62,1-3.31,1.67-4.91a9.66,9.66,0,0,1,1-1.85,2.51,2.51,0,0,1,.55-.59c.37-.27.69-.11.73.35a.26.26,0,0,1,0,.12c-.32.67-.24,1.46-.57,2.12a6.55,6.55,0,0,0-.52,1.47c0,.13-.12.32,0,.39s.2-.11.29-.19.41-.42.62-.62a1,1,0,0,1,.67-.3c.33,0,.55.11.44.48s0,.67-.15,1c0,.05-.05.14,0,.18.49.68,0,1.56.51,2.27a1.94,1.94,0,0,1,0,1.41c-.06.31-.16.59.38.47.36-.08.44.23.44.53a2.81,2.81,0,0,1-.4,1.24,2.75,2.75,0,0,0-.34,1.62c.08.68.28.8.89.52s1-.47,1.48-.66.77,0,.61.54c-.09.3,0,.22.18.17l.47-.17c.25-.08.52-.11.67.16a.57.57,0,0,1-.12.74A14.62,14.62,0,0,1,74.5,124a2,2,0,0,0-.95,1.13,17.51,17.51,0,0,1-2.62,4.81,24.65,24.65,0,0,1-1.84,2.75c-.22.24-.1.37.19.39a2.6,2.6,0,0,0,1.46-.25c.33-.18.68-.32,1-.53s.73-.12,1.09-.13a.25.25,0,0,1,.24.35c-.3.7-.23,1.52-.72,2.16A42.7,42.7,0,0,0,69.64,138,9.68,9.68,0,0,1,67,141,3.58,3.58,0,0,0,66,142.11a20.28,20.28,0,0,1-2.59,3.35,13.35,13.35,0,0,0-2.27,3.5,1,1,0,0,1-.3.47,2.43,2.43,0,0,0-.83,1.36,16.67,16.67,0,0,0-1,5.12c0,.37-.08.74-.11,1.12a7.78,7.78,0,0,0,.92,4.28,4.29,4.29,0,0,1,.47,2,1.71,1.71,0,0,1-.88,1.54l-.33.18c-.84.44-.86.59-.07,1.16a1.25,1.25,0,0,1,.6,1A1.75,1.75,0,0,0,60,168.4a.42.42,0,0,1,0,.65c-.16.16-.32.33-.49.48a1.47,1.47,0,0,1-2.26-.14,8.68,8.68,0,0,1-1.42-2.05,4.79,4.79,0,0,0-.49-.87.7.7,0,0,0-.82-.3c-.19.06-.47,0-.54.26s.21.27.33.4A.7.7,0,0,1,54,168a2.26,2.26,0,0,1-1.45.25,13.68,13.68,0,0,1-1.72-.25c-.17-.06-.26.05-.37.15a1.11,1.11,0,0,1-1.78-.08l-.12-.14c-.63-.77-.63-.77-1.56-.5a1.9,1.9,0,0,1-2.39-.81.69.69,0,0,0-.69-.31,2.17,2.17,0,0,1-1.67-.54,1.14,1.14,0,0,0-1.49.05,2.52,2.52,0,0,1-2.06.47c-.53-.09-.79,0-.77.57a2.26,2.26,0,0,1-3.48,1.89.92.92,0,0,1-.6-1.1c0-.08,0-.16,0-.25,0-.35.31-.83-.1-1a1.42,1.42,0,0,0-1.54,0,3.11,3.11,0,0,0-.41.38,2.21,2.21,0,0,1-2.41.58.87.87,0,0,1-.77-.85,1.44,1.44,0,0,0,0-.25c0-.19.07-.49-.17-.53s-.2.28-.31.43-.32.48-.48.73a1.38,1.38,0,0,1-1.2.67,4.91,4.91,0,0,0-1.52.3,1.75,1.75,0,0,1-2.23-.74.31.31,0,0,0-.19-.14H22.4c-.49-.07-1.06-.23-1.2-.66a1.92,1.92,0,0,1,.19-1.67,32,32,0,0,0,2.87-5.89,21.71,21.71,0,0,0,1.25-3.86,7,7,0,0,1,.66-1.89,16.42,16.42,0,0,0,1.56-5.63,4.93,4.93,0,0,1,.18-.85,1.16,1.16,0,0,0,0-1.13.36.36,0,0,1,.13-.54,1.36,1.36,0,0,0,.6-1.17,36.43,36.43,0,0,0,.16-6,56.58,56.58,0,0,0-1.91-10.93c-.71-2.55-1.19-5.15-1.88-7.71a11.65,11.65,0,0,0-.84-2.28,2.07,2.07,0,0,0-1.51-1.19,3,3,0,0,1-1.78-1.08,25.35,25.35,0,0,1-2.53-3.17,5.14,5.14,0,0,0-2.41-2.11,2.82,2.82,0,0,1-1.42-1.27,1.31,1.31,0,0,1-.18-.46.35.35,0,0,1,.15-.38.29.29,0,0,1,.34.07,2,2,0,0,0,.57.38c.26.1.43.24.69-.15s.67-.45.94-.77c.06-.07.24-.07.36-.07a8,8,0,0,1,3,.26c1,.32,2,.26,2.95.51.27.07.4-.12.36-.37-.28-1.62-.12-3.29-.68-4.87-.28-.8-.47-1.64-.73-2.46a12,12,0,0,0-4.78-6.53,35.5,35.5,0,0,1-3.84-2.57c-1-.89-2.14-1.66-3.09-2.64a2.41,2.41,0,0,0-1-.58A9.94,9.94,0,0,0,7,86.82a1.85,1.85,0,0,0-1.38.47,1.64,1.64,0,0,1-1.55.44.94.94,0,0,0-.61.06A7.06,7.06,0,0,0,.82,89.61c-.22.26-.43.52-.82.44V88.8A10.22,10.22,0,0,1,2.55,87c.13-.06.3-.12.26-.3s-.22-.18-.36-.19-.33,0-.43-.18a.78.78,0,0,1,.62-1.18c.27,0,.54,0,.81,0s.47.07.5-.12-.3-.24-.47-.27c-.53-.09-1.07-.14-1.61-.2S1.11,84.4,1,84A.88.88,0,0,1,1.47,83a1.57,1.57,0,0,1,.38-.21,5.06,5.06,0,0,1,2.07-.39A1.67,1.67,0,0,0,5.18,82a3.54,3.54,0,0,1,.44-.35A1.25,1.25,0,0,1,7.33,82a1.65,1.65,0,0,0,2,.85,13.28,13.28,0,0,0,1.7-.39,13.13,13.13,0,0,1,6.83-.56c.86.2,1.24-.17,1.27-1a3.31,3.31,0,0,0-.74-2A19.83,19.83,0,0,1,16,74.73a8.33,8.33,0,0,0-.71-1.39,12.62,12.62,0,0,1-1.69-5.06,5.13,5.13,0,0,1,0-1.5.44.44,0,0,1,.28-.39c.21-.06.28.13.37.26a4.49,4.49,0,0,1,.59,1.83c.07.37-.18.89.47,1,0,0,0,0,0,.05.19.72.77,1.24,1,1.95.06.18,0,.45.28.51a.22.22,0,0,0,.26-.13c.09-.24-.1-.39-.23-.54a2.64,2.64,0,0,1-.25-2.39c.05-.25.3-.35.45-.08s.69.65.61,1.19a.21.21,0,0,0,.13.25c.37.16.41.5.41.84a3.18,3.18,0,0,0,.5,1.53c.13.22.28.41.6.23s.56-.22.84.21c.09.14.16.29.25.43s.1.19.15,0c.2-.69.5-.31.81-.1a37.9,37.9,0,0,0,3.36,2.39,5.34,5.34,0,0,0,2.92.76,2.2,2.2,0,0,1,1.54.34c.23.16.35.17.43-.14a11.68,11.68,0,0,0,.45-2.45,22.36,22.36,0,0,0-.39-5.47,25.47,25.47,0,0,0-1.4-5.37,36.4,36.4,0,0,0-2.63-4.89,8.26,8.26,0,0,0-2.35-2.47A28.08,28.08,0,0,1,15,47.76a15.65,15.65,0,0,1-2.33-5.22c-.17-.81-.33-1.63-.55-2.44a10.37,10.37,0,0,1-.35-3.46,4.08,4.08,0,0,1,.74-2.71c.29-.32.17-.69,0-1.06a3.69,3.69,0,0,0-2.16-1.79,1.57,1.57,0,0,0-2.12.44,17.85,17.85,0,0,1-2.09,2,5.79,5.79,0,0,1-2.7.9A.57.57,0,0,1,2.8,34a1,1,0,0,1,0-.9c.17-.27.43-.2.67-.09a.78.78,0,0,0,.43,0c.27,0,.68.15.73-.24s-.38-.39-.64-.47a5.36,5.36,0,0,1-4-4.37.22.22,0,0,0,0-.06v-1c.11-.37.62-.45.62-.89,0-.18,0-.42.26-.41s.26.23.27.42a7.61,7.61,0,0,0,.41,1.89,3.53,3.53,0,0,0,1.76,2.4,1,1,0,0,1,.41.46,1.74,1.74,0,0,0,1.47.8s.1,0,.11,0,0-.1-.08-.13L5,31.29a.56.56,0,0,1-.2-.81c.18-.33.47-.31.76-.17a5.69,5.69,0,0,1,.78.4c.37.24.61.16.81-.21a2.08,2.08,0,0,1,.94-1,1,1,0,0,0,.64-.78.46.46,0,0,1,.59-.4c.7.08,1.41.11,2.12.17.31,0,.69.07.82.38s.64.64.85,1.05a.4.4,0,0,0,.52.24c.21-.08.23-.28.23-.47a7.15,7.15,0,0,0-.19-2.23,8.11,8.11,0,0,1-.37-1.39,3.3,3.3,0,0,0-2.05-2.63,6.71,6.71,0,0,1-3.67-4.92c-.08-.41-.07-.83-.16-1.24,0-.2-.08-.39.16-.46s.33.13.4.31l.47,1.22c0,.06.07.16.09.15s.05-.12.06-.19,0-.42.2-.47.34.13.47.27A3.1,3.1,0,0,1,10,19.81a2.12,2.12,0,0,0,.69,1.36c.21.18.38.39.69.13a.4.4,0,0,1,.52.08c.67.59,1.48,1,2.09,1.68,0,0,.1.12.13.11s.06-.13.06-.2c0-.54,0-1.08.08-1.62.2-1.94.19-3.85-1.2-5.44a.61.61,0,0,1-.1-.8.84.84,0,0,1,.76-.47c.37,0,.41.37.5.64a28.37,28.37,0,0,1,1.06,3.2c0,.1,0,.22.16.25s.18-.09.23-.18a8.08,8.08,0,0,0,.39-.71,9.28,9.28,0,0,0,.64-4.28,11.59,11.59,0,0,0-1.53-5.29A12.23,12.23,0,0,0,13,5.48c-.09-.09-.22-.18-.18-.31S13,5,13.19,5a2.18,2.18,0,0,1,1.58.44,7.46,7.46,0,0,1,1.55,1.79c.12.17.2.51.47.43S17,7.22,17,7a.28.28,0,0,0,0-.06,18,18,0,0,1-.09-4.73A4.9,4.9,0,0,1,17.26,0Z"/>
  </g>
</svg>
