<svg xmlns="http://www.w3.org/2000/svg" viewBox="0 0 111.81 105.12">
  <defs>
    <style>
      .cls-1 {
        fill: #fff;
      }
    </style>
  </defs>
  <title>アートボード 14</title>
  <g id="graphcs">
    <path class="cls-1" d="M5.37,26.85a.92.92,0,0,1,.87,0c.93.46,1.75.94,2.54,1.34s1.73.91,2.54,1.33,1.75.76,2.6,1.21,1.57,1,2.47,1.45,1.59.89,2.52,1.38a4,4,0,0,0,2.44.25c1.08-.12,2.14-.29,3.21-.46s2.19-.08,3.25-.32,2.07-.65,3.11-1a12.65,12.65,0,0,0,2.78-1.38,13.24,13.24,0,0,0,2.56-1.78,16.51,16.51,0,0,0,1.9-2.48,24.57,24.57,0,0,0,1.72-3.26,16.19,16.19,0,0,0,1.31-3.43A4.71,4.71,0,0,0,41,17.27c-.35-1.19-.53-2.31-.86-3.31-.39-1.15-.74-2.22-1.12-3.23s-.78-2.13-1.18-3.2-1-2-1.36-3.14c-.33-1-.57-2.1-.91-3.3,0-.12.1-.28.07-.4-.09-.34-.21-.5.23-.63s.62,0,.72.28c.26.78.45,1.58.7,2.37.39,1.23.87,2.23,1.24,3.18C39,7,39.4,8,39.84,9s.84,2,1.29,3.16c.37.94.77,2,1.15,3.22a2.93,2.93,0,0,0,1.15,1.45c.75.6,1.34,1.42,2.11,2S47.1,20,47.9,20.54s1.66,1,2.51,1.45a27.77,27.77,0,0,0,2.65,1.17,11.37,11.37,0,0,0,2.3.75,12,12,0,0,0,2.42.13A21.61,21.61,0,0,0,61,23.64a22.13,22.13,0,0,0,3.11-.73A24.22,24.22,0,0,0,67,21.63a7.42,7.42,0,0,0,1.92-1.49,8.42,8.42,0,0,0,1.62-1.84c.63-1.15,1.18-2.14,1.69-3.05.62-1.09,1.21-2,1.78-3s1-2,1.65-3.08c.52-.9,1.12-1.88,1.76-3A2.11,2.11,0,0,1,78,5.4c.14.07-1.35,3.19-1.21,3.26a1.09,1.09,0,0,1-.12.94c-.67,1.31-1.15,2.16-1.5,2.84-.59,1.14-.79,1.77-1.42,2.88-.37.66-1,1.42-1.75,2.7a4.3,4.3,0,0,0-.31,2.72c.12,1.08.07,2.17.24,3.24s.36,2.14.59,3.2.67,2.06,1,3.1A12.4,12.4,0,0,0,75,33.5a13.77,13.77,0,0,0,2.36,2.62,19.35,19.35,0,0,0,2.77,2.21A22,22,0,0,0,83,39.86a18.52,18.52,0,0,0,3.15.81,3.23,3.23,0,0,0,1.73.09c1-.31,2-.65,2.89-.87s2-.49,2.95-.66,2-.07,3-.22,2-.33,3-.5,1.94-.27,3-.49,1.84-.67,2.87-1a5.74,5.74,0,0,1,.67-.1c.14,0,1.44-.41,2.76-.75a9.46,9.46,0,0,1,2.86-.47,13.54,13.54,0,0,1-2.66,1.1,26.33,26.33,0,0,0-2.59,1.21c-.3.13-.71,0-1,.1-1.06.33-2,.75-2.88,1s-2,.36-3,.52l-3,.47c-.95.15-1.94.26-3,.5s-1.87.51-2.92.84a1.72,1.72,0,0,0-.8.52c-.67.75-1.31,1.51-1.94,2.28s-1.33,1.5-1.92,2.3-1.17,1.63-1.7,2.47-1,1.73-1.46,2.62A13,13,0,0,0,81.69,55a12.32,12.32,0,0,0,0,3.51A23.48,23.48,0,0,0,82,61.53a20.24,20.24,0,0,0,1,2.91,19,19,0,0,0,1.14,2.88,2.81,2.81,0,0,0,1.2,1c1.09.56,2,.89,2.62,1.23,1.38.72,1.91,1.14,2.5,1.46s1.18.63,2.54,1.38c.64.35,1.49.75,2.57,1.33.08,0,1.58,1,3.11,1.8s3,1.75,3.06,1.81.37.25.22.49a14,14,0,0,1-3.72-1.1,23.67,23.67,0,0,1-3.36-2c-.28-.11.18.34-.09.2-2.8-1.4-3.17-1.52-3.5-1.69s-.62-.41-3.43-1.83a3.84,3.84,0,0,0-2.07-.6c-1,.07-1.88.39-2.83.49s-1.92,0-2.86.17-1.83.56-2.76.77-1.92.17-2.84.45a13.15,13.15,0,0,0-2.9,1.28,13.45,13.45,0,0,0-2.5,1.94,16.93,16.93,0,0,0-2,2.45,22.58,22.58,0,0,0-1.83,3.11A16.34,16.34,0,0,0,64,84.76a2.7,2.7,0,0,0,.15,1.45c.32,1,.48,2.06.76,3s.71,2,1,2.92.6,2,.9,3,.5,2,.8,3,.6,1.91.9,3,.67,1.89,1,2.94a4.42,4.42,0,0,1,0,.48.56.56,0,0,1-.32.68c-.34.1-.44-.2-.55-.5-.39-1-.68-1-.83-1.45-.33-1-.6-1.91-.88-2.76s-.43-1.94-.71-2.81-.57-1.83-.87-2.76-.72-1.73-1-2.71-.63-1.74-1-2.74A2.78,2.78,0,0,0,62.48,88c-.89-.76-1.65-1.66-2.57-2.37S58,84.37,57,83.73s-1.92-1.31-2.94-1.87a16,16,0,0,0-2.47-.93,13,13,0,0,0-2.53-.7A12.16,12.16,0,0,0,46.41,80a26.8,26.8,0,0,0-3.16.5,19.88,19.88,0,0,0-3,1.05,16.56,16.56,0,0,0-2.86,1.37A4.06,4.06,0,0,0,36,84.5c-.53.94-1.1,1.84-1.62,2.75s-1,1.88-1.53,2.8-1.16,1.79-1.69,2.71-1,1.87-1.52,2.8S28.52,97.38,28,98.31s-1.07,1.82-1.6,2.76c-.18.32-.34.75-.77.47-.22-.14.22-1.56.83-2.83s1.33-2.39,1.41-2.54c.62-1.22,1.19-2,1.53-2.63.54-1,.77-1.7,1.34-2.73.36-.65.7-1.53,1.36-2.73a21.81,21.81,0,0,1,1.3-1.91c.89-1.28.78-2.71.55-4.25-.14-1-.1-2-.27-2.92s-.43-1.9-.65-2.85-.58-1.85-.88-2.78A13,13,0,0,0,30.56,70,13,13,0,0,0,28,67.19a25.56,25.56,0,0,0-2.34-1.8A20.27,20.27,0,0,0,23,64a17.7,17.7,0,0,0-2.81-.92,2.73,2.73,0,0,0-1.43.27c-1,.3-2,.56-2.94.85s-2,.48-3,.79L10,66c-1,.32-1.92.68-2.9,1s-1.93.59-2.93.89-2,.45-3,.72a2.1,2.1,0,0,1-.53.16c-.23,0-.56,0-.62-.26s.21-.41.44-.5c.38-.15.78-.23,1.17-.35,1-.31,1.85-.87,2.76-1.18s1.91-.64,2.83-1,1.94-.49,2.88-.83,1.85-.67,2.81-1,1.78-.82,2.77-1.14A2.63,2.63,0,0,0,17,61.65c.74-.88,1.46-1.78,2.16-2.7s1.47-1.78,2.1-2.75,1.29-1.92,1.83-2.94a13.65,13.65,0,0,0,1-2.56A12.64,12.64,0,0,0,24.42,48a13.54,13.54,0,0,0,0-2.74,25.52,25.52,0,0,0-.47-2.62A20.71,20.71,0,0,0,23,40.12a18.14,18.14,0,0,0-1-2.48,6,6,0,0,0-2.56-2.17c-1-.54-1.88-1.12-2.73-1.59S14.86,32.79,14,32.3l-2.74-1.56c-.88-.5-1.88-.82-2.85-1.36s-1.61-1.26-2.62-1.8a1.93,1.93,0,0,1-.71-.45C5.12,27,5.3,27,5.37,26.85Zm13.8,34.42a1.41,1.41,0,0,0,.9,0c.91-.27,1.84-.51,2.75-.79s1.83-.52,2.75-.75a5.25,5.25,0,0,0,2.93-2.06,22.17,22.17,0,0,0,2.21-3A13.86,13.86,0,0,0,32,51.54a13.2,13.2,0,0,0,.13-3.34,15.56,15.56,0,0,0-.41-3.28,21.48,21.48,0,0,0-.7-3.28c-.1-.25-.41-.36-.64-.48-1-.53-2.08-1-3.09-1.5s-1.93-1.24-2.95-1.77a.44.44,0,0,0-.57,0c.34.88.85,1.7,1.16,2.59a21.18,21.18,0,0,1,.78,3.24A17.6,17.6,0,0,1,26.06,47a15.74,15.74,0,0,1-.54,3.28,15.94,15.94,0,0,1-1.08,3.12,18.49,18.49,0,0,1-1.65,2.86c-.58.84-1,1.81-1.56,2.64S19.79,60.45,19.17,61.27Zm3.58-26.1c.13.15.2.39.26.42,1.09.59,2.16,1.22,3.26,1.81s2.18,1.19,3.27,1.77a1.65,1.65,0,0,0,.84.08A21.76,21.76,0,0,0,33.43,39a16.3,16.3,0,0,0,3-.8A13.56,13.56,0,0,0,39,36.58a13.44,13.44,0,0,0,2.27-2,16,16,0,0,0,2.09-2.25,22.8,22.8,0,0,0,1.31-2.78c.15-.34,0-.61-.1-.93-.33-1.06-.46-2.18-.79-3.24s-.75-2.09-1.08-3.15a.52.52,0,0,0-.37-.43c-.06.08,0,0-.08.09a27.19,27.19,0,0,1-1.15,2.76,24.07,24.07,0,0,1-1.68,2.48,20.26,20.26,0,0,1-1.94,2.4,14.39,14.39,0,0,1-2.33,2,12.52,12.52,0,0,1-2.63,1.65c-.87.33-1.8.52-2.69.77s-1.83.31-2.75.48C25.67,34.71,24.25,34.91,22.75,35.17ZM43.54,18.91c0,.31-.08.57-.05.66.36,1.19.67,2.4,1,3.59s.7,2.39,1.06,3.59c.07.22.3.36.48.52a24.3,24.3,0,0,0,2,1.82,16.48,16.48,0,0,0,2.32,1.45,13.57,13.57,0,0,0,2.64.7,14,14,0,0,0,3.43.42A16.58,16.58,0,0,0,60,31.6a22.83,22.83,0,0,0,3.32-1.13c.47-.18.6-.59.81-1,.52-.95,1.2-1.8,1.72-2.75s.94-1.95,1.46-2.9c.12-.21.36-.25.19-.6-1.05.43-2.08.81-3.16,1.14a31.23,31.23,0,0,1-3.32.9,18.36,18.36,0,0,1-3.43.16A13.51,13.51,0,0,1,54.22,25a17.3,17.3,0,0,1-2.79-1,25.89,25.89,0,0,1-2.75-1.19c-.85-.51-1.63-1.16-2.45-1.71S44.55,19.64,43.54,18.91ZM37.9,80.65a1.54,1.54,0,0,0,.92-.19,24.21,24.21,0,0,1,3.44-1.07,22.37,22.37,0,0,1,3.55-.56,17.81,17.81,0,0,1,3-.16,11.49,11.49,0,0,1,2.9.75,24.9,24.9,0,0,1,3.2,1.48,35.32,35.32,0,0,1,3.17,1.61c1,.66,2,1.34,2.9,2.06.39.3.64,1,1.23,1.14,0-.18,0-.44-.06-.53-.36-1.17-.83-2.31-1.2-3.48s-.54-2.4-.91-3.56a1.66,1.66,0,0,0-.45-.65,20.56,20.56,0,0,0-2.06-1.62,17.23,17.23,0,0,0-2.12-1.52,15.48,15.48,0,0,0-2.41-1,13.77,13.77,0,0,0-2.64-.82,14.32,14.32,0,0,0-2.77-.13,17.41,17.41,0,0,0-2.76.37,24,24,0,0,0-2.59,1,1.13,1.13,0,0,0-.75.5c-.39.72-.92,1.35-1.31,2.07L39,78.45A12.91,12.91,0,0,0,37.9,80.65ZM35.68,81.7c.17-.27.35-.62.47-.84.46-.83.95-1.65,1.4-2.48s.93-1.65,1.43-2.46a4.88,4.88,0,0,0,.47-3.22,17.22,17.22,0,0,0-.53-3.32,14.43,14.43,0,0,0-1.32-3.11,14.19,14.19,0,0,0-2.24-2.5,15.91,15.91,0,0,0-2.58-2.1,9.52,9.52,0,0,0-2.49-1.61,3.86,3.86,0,0,0-2.89.54s-.06.13-.1.14c-.79.28-1.64.37-2.42.65s-1.54.65-2.32.93c.16.08.47.08.73.19a25.2,25.2,0,0,1,2.36,1.26,24.51,24.51,0,0,1,2.3,1.37,18.15,18.15,0,0,1,2.3,2.16,14.26,14.26,0,0,1,1.93,2.46,13.32,13.32,0,0,1,1.32,2.83c.3.87.78,1.68,1,2.57S34.8,77,35,77.89s.15,1.83.28,2.74A1.87,1.87,0,0,0,35.68,81.7Zm27.3,1c.43-.9.94-1.9,1.38-2.74a22.28,22.28,0,0,1,1.55-2.44,19,19,0,0,1,2.2-2.57,14.69,14.69,0,0,1,2.58-2.2,14.06,14.06,0,0,1,3.14-1.29c1-.31,2-.53,3-.75s2-.67,3-.83,2-.32,3.05-.43c.32,0,.84.12,1.15-.24-.81-.45-1.74-.82-2.54-1.25s-1.68-.76-2.49-1.17-1.55-1-2.37-1.4c-.16-.08-.4,0-.59,0a21,21,0,0,0-3,.32,17.27,17.27,0,0,0-2.95.54,14.42,14.42,0,0,0-2.72,1.24,13.91,13.91,0,0,0-2.55,1.6,15.32,15.32,0,0,0-2.07,2.2,18.53,18.53,0,0,0-1.64,2.55,2.47,2.47,0,0,0,0,2.31c.36.83.44,1.76.73,2.62C62.21,80,62.52,81.34,63,82.7ZM81.79,66.53a2.49,2.49,0,0,0,.14-.38c-.08-.22-.11-.46-.2-.68a23.64,23.64,0,0,1-1.13-3.68A21.81,21.81,0,0,1,80,58a13.16,13.16,0,0,1,.4-3.43,13.8,13.8,0,0,1,1.19-3.22c.47-.94.75-2,1.3-2.86s1.12-1.77,1.73-2.62,1.48-1.49,2.14-2.31a1.08,1.08,0,0,0,.24-.76c-.41-.06-.71.2-1,.3-.89.27-1.84.37-2.72.65s-1.75.64-2.66.86a5.25,5.25,0,0,0-3,2,27.26,27.26,0,0,0-2.18,2.86,12.64,12.64,0,0,0-1.16,2.7,12.87,12.87,0,0,0-.74,2.86,15.51,15.51,0,0,0,0,3A21.32,21.32,0,0,0,74,61a3.17,3.17,0,0,0,2.35,2.52c.2.06.34.32.53.42.82.41,1.56,1,2.39,1.38ZM70.3,22c-.22.28-.47.43-.53.53-.61,1.1-1.27,2.16-1.88,3.26S66.65,28,66,29.09A1.68,1.68,0,0,0,66,30a19.29,19.29,0,0,0,.19,3,15.61,15.61,0,0,0,.8,2.92,13.84,13.84,0,0,0,1.64,2.53,13.93,13.93,0,0,0,1.95,2.25,16.23,16.23,0,0,0,2.18,2.09,21.63,21.63,0,0,0,2.71,1.33,1.36,1.36,0,0,0,1.06,0c1.41-.44,2.89-.65,4.3-1.1a20.82,20.82,0,0,0,3-1.1c-.11-.11-.22,0-.28-.06s-.3-.23-.47-.3a24,24,0,0,1-3-1.31,22.07,22.07,0,0,1-2.6-1.92,21.57,21.57,0,0,1-2.38-2.16,11.54,11.54,0,0,1-1.75-2.4,16.5,16.5,0,0,1-1.42-2.65c-.32-.94-.48-1.94-.72-2.92s-.27-2-.44-3S70.45,23.08,70.3,22ZM30.08,58.34a22.72,22.72,0,0,1,2.4-.78,5.65,5.65,0,0,0,2.32-.84,6,6,0,0,0,1.7-1.81,21.84,21.84,0,0,0,1.26-2.49,6.17,6.17,0,0,0,.72-2.69,14.41,14.41,0,0,0-.77-4.4c-.1-.29-.42-.38-.72-.53l-3.7-1.88c-.13-.07-.3-.44-.44-.34s0,.41.05.54.22.36.26.55A19.88,19.88,0,0,1,33.54,47a15.78,15.78,0,0,1,0,3.37,14.24,14.24,0,0,1-.71,3.32,15.44,15.44,0,0,1-1.69,3A5.44,5.44,0,0,0,30.08,58.34Zm2.65-18c0,.06,0,.31,0,.37.73.42,1.47.84,2.15,1.33a4.86,4.86,0,0,0,2.22.89,7.49,7.49,0,0,0,2.36-.3,12,12,0,0,0,3.42-1.09,8.18,8.18,0,0,0,2.71-2.38,7.51,7.51,0,0,0,1-2.41,3,3,0,0,0-.34-2.44C46,33.8,46.19,33,46,32.42a1.94,1.94,0,0,0-.65-.91,21.84,21.84,0,0,1-1.64,2.79,17,17,0,0,1-2.3,2.26,15,15,0,0,1-2.53,2A15.15,15.15,0,0,1,36,40,18.33,18.33,0,0,1,32.73,40.38Zm25.79,34.4.29-.29c-.31-1-.63-2.1-.86-3.16a4.3,4.3,0,0,0-1.72-2.53,15.24,15.24,0,0,0-2.64-1.52,9.3,9.3,0,0,0-2.87-1,8.68,8.68,0,0,0-3.07.12c-1.54.35-2.7.93-3.25,2.6A21.29,21.29,0,0,1,43,71.72a20.09,20.09,0,0,1,3.17-.45A17.77,17.77,0,0,1,49.44,71a15.5,15.5,0,0,1,3.32.44,15.75,15.75,0,0,1,3,1.43A18,18,0,0,1,58.52,74.78ZM47,29.84c-.06,0-.23.23-.3.27.45,1.49.85,3,1.31,4.48a.78.78,0,0,0,.2.29,17,17,0,0,0,3,2,9.51,9.51,0,0,0,3.4,1.23,9.27,9.27,0,0,0,3.64-.3,3.49,3.49,0,0,0,2.56-2.27,34.59,34.59,0,0,1,1.62-3.14,21.68,21.68,0,0,1-2.61.46,19.45,19.45,0,0,1-2.76.44,17,17,0,0,1-2.81,0,13.08,13.08,0,0,1-2.59-.82,16.28,16.28,0,0,1-2.51-1A24.66,24.66,0,0,1,47,29.84ZM40.9,72a28.17,28.17,0,0,0,1.65-2.81,4.5,4.5,0,0,0,.63-3.62A12.44,12.44,0,0,0,42,61.92a8,8,0,0,0-2.65-2.76,7.41,7.41,0,0,0-2.14-1.24,3.43,3.43,0,0,0-2.47.28,17.11,17.11,0,0,1-2.69,1.12c.79.46,1.5.78,2.2,1.29a19.61,19.61,0,0,1,1.87,1.92A15.48,15.48,0,0,1,38,64.42a13.13,13.13,0,0,1,1.47,2.26,17.1,17.1,0,0,1,.74,2.59C40.45,70.11,40.74,71.12,40.9,72Zm32.49-8.29c-1-.7-2.26-1.09-3.29-1.71a4,4,0,0,0-2.44-.51,15,15,0,0,0-2.8.43,10.27,10.27,0,0,0-2.55,1.21,8.79,8.79,0,0,0-2.24,1.72,10.28,10.28,0,0,0-1.56,2.38,1.48,1.48,0,0,0,.12,1.17c.4,1.16.78,2.34,1.17,3.51.07.22-.1.78.23.8s.33-.46.44-.64a19.34,19.34,0,0,1,1.63-2.5,16,16,0,0,1,2.24-2,14.92,14.92,0,0,1,2.41-1.74,15.74,15.74,0,0,1,2.7-1.29A18.7,18.7,0,0,1,72.39,64,1.68,1.68,0,0,0,73.39,63.73Zm.42-18.9a23.42,23.42,0,0,1-2.89-1.73,16.85,16.85,0,0,1-2.36-2.22,14.74,14.74,0,0,1-1.88-2.62,15.07,15.07,0,0,1-1.42-2.92,19,19,0,0,1-.61-3.26c-.47.73-1,1.43-1.43,2.09s-.57,1.55-.93,2.26a.67.67,0,0,0,0,.38,15.72,15.72,0,0,0,.11,3A10.35,10.35,0,0,0,63.6,42.5a8.91,8.91,0,0,0,2,2.17A10.46,10.46,0,0,0,68,46.41a1.07,1.07,0,0,0,.78.12c.81-.27,1.58-.69,2.4-1S73,45.13,73.81,44.84Zm-.92,17a23.08,23.08,0,0,1-.8-3.31A16.74,16.74,0,0,1,72,55.21,14.83,14.83,0,0,1,72.62,52a15.38,15.38,0,0,1,1.12-3.08,19.45,19.45,0,0,1,1.94-2.74c-.81.19-1.7.27-2.45.48s-1.47.69-2.23.92c-.12,0-.15.11-.24.2A24,24,0,0,0,68.59,50a10.81,10.81,0,0,0-1.25,2.87,7.13,7.13,0,0,0-.1,3.09,18.12,18.12,0,0,0,.55,3.07c0,.14.25.26.37.32.75.38,1.58.63,2.37,1S72.08,61.4,72.89,61.8ZM37.42,56.18a26.7,26.7,0,0,1,3-.9,3.16,3.16,0,0,0,2.91-2.66,9.22,9.22,0,0,0,.41-3.77,1.56,1.56,0,0,0-.89-1.18c-1-.46-1.86-1.06-2.82-1.53-.15-.07-.43-.25-.61-.12s.14.41.17.58c.06.32.15.64.21,1a9.78,9.78,0,0,1-.2,3.35,8.47,8.47,0,0,1-1,3.16A15.57,15.57,0,0,0,37.42,56.18ZM56.69,67.38a31.81,31.81,0,0,1-.94-3.24,3,3,0,0,0-2.4-2.67,9.94,9.94,0,0,0-4.22-.5,1.5,1.5,0,0,0-1.07.94c-.41.84-1,1.61-1.39,2.45-.11.23-.43.63-.2.87S47,65,47.27,65a13.58,13.58,0,0,1,3.22-.29,8.75,8.75,0,0,1,3,1C54.52,66.15,55.52,66.84,56.69,67.38ZM39.37,44l0,.43c1.35.75,2.67,1.54,4,2.29a.77.77,0,0,0,.59,0,15.46,15.46,0,0,0,2.35-1.24A8.45,8.45,0,0,0,48.52,44a1.94,1.94,0,0,0,.44-2.2c-.25-.55-.62-1.06-.83-1.63s0-.94-.48-1.46a10.57,10.57,0,0,1-2.19,2.55,9.25,9.25,0,0,1-2.73,2A11.26,11.26,0,0,1,39.37,44Zm9.32-6.67c.22.76.57,1.57.78,2.32s.38,1.53.6,2.28a.72.72,0,0,0,.28.34,14.46,14.46,0,0,0,2.85.88,7.48,7.48,0,0,0,3,.22,1.75,1.75,0,0,0,1.34-1c.38-.82.59-1.71,1-2.52.12-.24.42-.37.22-.61a.65.65,0,0,0-.72-.2,11.88,11.88,0,0,1-2.84.45,9.49,9.49,0,0,1-2.87-.38,10,10,0,0,1-2.48-1.49A2,2,0,0,0,48.69,37.33ZM44.35,65.28l.42-.06c.74-1.29,1.53-2.55,2.27-3.85a.89.89,0,0,0,.09-.73,16.55,16.55,0,0,0-1.2-2.22,8.1,8.1,0,0,0-1.48-2c-.39-.35-.94-.89-1.49-.74-1.32.35-2.52,1.07-3.81,1.49,0,.06,0-.11-.08,0a10.85,10.85,0,0,1,2.55,2.22,9.17,9.17,0,0,1,2,2.68A11.1,11.1,0,0,1,44.35,65.28Zm22-4.82c0-.09-.06-.36-.08-.44-.7-.38-1.37-.82-2.06-1.2S62.79,58,62.1,57.64c-.17-.09-.39.06-.57.12a16.27,16.27,0,0,0-2.4.91A9.65,9.65,0,0,0,57,60.17a1.88,1.88,0,0,0-.35,2.41,29,29,0,0,1,1.05,3c.07,0,.14.19.21.21a10.76,10.76,0,0,1,2-2.85,9.68,9.68,0,0,1,2.91-2A12.76,12.76,0,0,1,66.31,60.45Zm1.81-11.84c0-.06-.23-.22-.28-.28-.77.22-1.56.37-2.32.59s-1.54.41-2.31.63c-.13,0-.22.29-.28.41a13.68,13.68,0,0,0-1.17,2.72,7.52,7.52,0,0,0-.19,3c.06.36.36.55.75.73l3.11,1.51c.14.07.3.46.45.37s0-.46,0-.63-.22-.54-.26-.82a10.85,10.85,0,0,1,.07-3,7.28,7.28,0,0,1,.8-2.86A26.5,26.5,0,0,1,68.12,48.61ZM61,39.09c-.07,0-.31,0-.38,0C59.84,40.44,59,41.73,58.28,43a.84.84,0,0,0-.06.67,13.86,13.86,0,0,0,1.28,2.38,8.18,8.18,0,0,0,1.67,2.12A1.77,1.77,0,0,0,63,48.6c.87-.35,1.7-.84,2.6-1.16.23-.08.49.05.52-.26a.55.55,0,0,0-.27-.56,11.64,11.64,0,0,1-2.22-1.55,9.18,9.18,0,0,1-1.72-2.13,9.47,9.47,0,0,1-.71-2.64C61.12,39.9,61.07,39.47,61,39.09ZM46.69,49.35l-.06.13c-.43-.22-.84-.49-1.27-.7a.37.37,0,0,0-.56.36,10.07,10.07,0,0,1-.66,4.5c-.16.42-.1.7.42.55,1-.29,2.08-.52,3.11-.8.21-.05.22-.35.35-.54A1.78,1.78,0,0,0,47.3,50C47.05,49.87,46.94,49.47,46.69,49.35ZM49.8,58l.13.07c-.15.29-.37.56-.51.86-.4.88-.31,1,.65,1a8.2,8.2,0,0,1,.85-.1,12.24,12.24,0,0,1,3.18.91c.22.09.77.15.66-.33-.29-1.19-.9-2.29-1.24-3.46,0-.09-.09-.09-.17-.15a2.08,2.08,0,0,0-3.15.43Zm5.71-11.65-.13-.07c.21-.41.48-.79.69-1.21s.06-.65-.36-.62a10.64,10.64,0,0,1-4.48-.63c-.45-.17-.7-.06-.56.44.29,1,.51,2,.76,2.95.09.35.48.41.81.57a1.73,1.73,0,0,0,2.65-.89C55,46.65,55.39,46.56,55.51,46.33Zm-8.16,2.75c.23.11.55.07.75.23.66.52,1.28.21,1.82-.13a1.61,1.61,0,0,0,.9-1.68c-.24-1-.73-1.85-1-2.79-.07-.21-.21-.47-.46-.19A8.58,8.58,0,0,1,47.53,46a14.93,14.93,0,0,1-2,1.37c-.36.17-.3.08,0,.27C46.23,48.05,46.71,48.71,47.35,49.09Zm11,6.4A10.86,10.86,0,0,1,57.15,55c-.75-.48-1.35,0-1.9.3A1.48,1.48,0,0,0,54.5,57c.26.85.72,1.65,1,2.5.18.53.44.47.71.16a9.29,9.29,0,0,1,2.25-1.69A10.16,10.16,0,0,0,60,56.87,7.28,7.28,0,0,0,58.36,55.48Zm3-5.46c-1.13.3-2.25.78-3.36,1-.94.2-1.14.9-1.24,1.61a1.6,1.6,0,0,0,.85,1.77c.75.35,1.57.57,2.32.93.51.25.65,0,.62-.39a9.75,9.75,0,0,1,.64-3.56A3.07,3.07,0,0,0,61.32,50Zm-16.8,5.11a9.31,9.31,0,0,1,2,2.12A27.64,27.64,0,0,1,48,59.74c.65-1.12,1.25-2.15,1.87-3.1.46-.71-.07-1.26-.41-1.78A1.45,1.45,0,0,0,47.93,54C46.87,54.3,45.72,54.72,44.52,55.12Zm11.12-7.78.1.06c-.08.16-.2.29-.3.44-.42.66,0,1.27.32,1.77a1.39,1.39,0,0,0,1.58.63c1-.26,1.92-.49,2.86-.8a.38.38,0,0,0,.17-.67,10.56,10.56,0,0,1-2.82-3.51c-.23-.47-.15-.34-.36,0C56.78,46,56.07,46.62,55.64,47.35ZM52,52.11a8.63,8.63,0,0,0-2.25-1c-.69-.09-.29.7-.51,1.06-.09.15-.28.62.16.74,0,0,.07-.13.09-.14A15.39,15.39,0,0,0,52,52.11Zm1.91.87c-.16-.06-.45-.2-.66,0s0,.42,0,.6c.15.46.3.92.46,1.37s.32.3.62.06c1.11-.88,1.19-.91,0-1.65C54.23,53.26,54.1,53.1,53.91,53ZM49.67,50.3a8,8,0,0,0,2.42,1.21c-.2-.66-.32-1.28-.49-1.86s-.53-.63-.92-.21A8.33,8.33,0,0,1,49.67,50.3Zm3.56,1.43A10.36,10.36,0,0,0,55.54,51a.27.27,0,0,0,.13-.43c-.26-.32-.49-.65-.75-1-.12-.15-.34-.07-.42.11A13.92,13.92,0,0,0,53.22,51.72Zm-.41,1.4c-.07,0-.31,0-.37,0-.31.6-.68,1.18-1,1.78-.13.26,0,.63.34.57s.94.32,1.41-.15c0,0,.1-.1.09-.15C53.11,54.52,53,53.8,52.82,53.12Zm-.16-1.49c.42-.82.81-1.59,1.13-2.22.1-.19.08-.45-.19-.48-.5-.06-1.1-.06-1.68-.12C52.14,49.69,52.4,50.66,52.66,51.63Zm-.56.94c-.83.29-1.63.61-2.29.85-.11,0-.36.19-.27.31.29.41.61.82.95,1.19.07.08.24-.08.3-.17s.14,0,.15,0A11.15,11.15,0,0,0,52.1,52.57Zm1.3-.3a15.63,15.63,0,0,0,2.11,1c.11.06.38.08.41-.08.09-.47.19-.94.24-1.42,0-.18-.25-.16-.38-.13A14.22,14.22,0,0,0,53.4,52.27Z"/>
  </g>
</svg>
