<svg xmlns="http://www.w3.org/2000/svg" viewBox="0 0 45.32 43.35">
  <defs>
    <style>
      .cls-1 {
        fill: #fff;
      }
    </style>
  </defs>
  <title>アートボード 15</title>
  <g id="graphcs">
    <path class="cls-1" d="M24.06,0a6.43,6.43,0,0,1-.2,1.82c-.17,1.08-.26,2.16-.34,3.24s-.08,2.17-.09,3.26-.14,2.17-.11,3.26.18,2.17.23,3.26a10,10,0,0,1,0,2.38c0,.22-.29.57,0,.69s.37-.33.51-.54c.72-1.06,1.43-2.12,2.13-3.19a2,2,0,0,1,1.78-.91,14.07,14.07,0,0,1,3.39.51,6.19,6.19,0,0,1,3,1.71,6.06,6.06,0,0,0,2.47,1.42c-.77.38-2.55.32-3.09-.32A5,5,0,0,0,31.4,15a18.44,18.44,0,0,0-2.84-.58,1.27,1.27,0,0,0-1.14.41c-1,1.1-1.38,2.56-2.18,3.77-.27.41,0,.88.65.8,1.18-.17,2.34,0,3.51-.1a6.2,6.2,0,0,1,2.34.37c.77.24,1.52.54,2.27.85a24.31,24.31,0,0,1,3.27,1.67c1.06.63,2.13,1.23,3.12,2,.66.48,1.39.85,2.07,1.3s1.41.81,2.1,1.24a2.21,2.21,0,0,1,.75.88,1.92,1.92,0,0,1-1.38-.18,22,22,0,0,1-2.37-1.57c-.8-.49-1.58-1-2.36-1.55A25,25,0,0,0,36,22.34c-1.09-.55-2.23-1-3.32-1.54-.9-.45-1.93,0-2.89-.28.06,0,.09.18.16.2a10.82,10.82,0,0,1,3,1.53,17,17,0,0,1,2.73,2c.81.79,1.48,1.72,2.25,2.56s1.66,1.55,2.35,2.44,1.17,1.93,1.78,2.88c.19.3.71.57.37.85s-.58-.21-.84-.45a19.42,19.42,0,0,1-1.77-2.11c-.55-.73-1-1.55-1.58-2.25a22,22,0,0,0-2-1.87c-.68-.62-1.43-1.13-2.16-1.7S32.7,23.45,32,22.91c-.08-.06-.13-.17-.23-.19-1.5-.34-3-.6-4.56-1,.16.75.4,1.33,0,1.9a.68.68,0,0,1-.89.32c-.36-.17-.21-.46-.13-.72.14-.44.22-.89-.23-1.14a1.18,1.18,0,0,0-1.3.08,7.69,7.69,0,0,1-2.2,1.21c-.51.11-.5.13-.4.44s.19.71.3,1.06.35.66-.06.87-.57-.06-.78-.42c-.05-.09-.3-.12-.44-.35a13.19,13.19,0,0,0,0,4.67c.17,1,.3,1.92.49,2.87s.33,1.91.54,2.86.47,1.88.69,2.83.25,1.93.46,2.88a9,9,0,0,0,.43,1.19c.16.42.19.89-.22,1s-.74-.52-.74-.79a10.34,10.34,0,0,0-.81-2.77c-.33-1.18-.62-2.37-.91-3.56s-.54-2.39-.78-3.59-.4-2.41-.59-3.62a12.19,12.19,0,0,1-.26-2.43c0-.81.33-1.6.43-2.41,0-.25.08-.52-.19-.67a.59.59,0,0,0-.64.14,13.24,13.24,0,0,0-2.59,2.13,13,13,0,0,0-1.07,3.17c-.27.9-.25,1.87-.46,2.79s-.63,1.78-.81,2.7-.3,1.85-.5,2.76S13.26,39.06,13,40c-.12.4-.79,1-.7.34.12-1,.2-2,.33-2.93s.37-1.93.52-2.9.37-1.92.58-2.88.33-1.94.63-2.88a1.69,1.69,0,0,0,.1-.38,7,7,0,0,1,1.08-3.52,10.33,10.33,0,0,1,2.68-2.57c.11-.07.31,0,.39-.14s0-.11,0-.2a18.27,18.27,0,0,0-2.92.53,14.54,14.54,0,0,0-2.79.95,13.63,13.63,0,0,0-2.57,1.44c-.71.53-1.35,1.11-2,1.69a16.53,16.53,0,0,0-2,1.69,13.56,13.56,0,0,1-3.09,2.63.55.55,0,0,1,0-.71c.8-.76,1.59-1.52,2.31-2.35a25.86,25.86,0,0,1,2.2-2.47A25.19,25.19,0,0,1,10,23.68a17.88,17.88,0,0,1,2.44-1.43A14.63,14.63,0,0,1,15,21a13.94,13.94,0,0,1,2.84-.33,1.36,1.36,0,0,0,.37-.11c.18-.06.48,0,.46-.26a.52.52,0,0,0-.45-.43,1.41,1.41,0,0,1-1.35-1,5.26,5.26,0,0,0-1.37-1.8s-.16.1-.18.08A6.82,6.82,0,0,0,13,15.38a12.56,12.56,0,0,0-2.74-1.14c-1-.25-2-.36-2.93-.61a15.16,15.16,0,0,0-3.89-.12,8,8,0,0,1-3.48-1,.67.67,0,0,1,.65-.35,13.37,13.37,0,0,0,2.56.58c.87,0,1.75-.21,2.63-.21a18.83,18.83,0,0,1,3.47.45,15.91,15.91,0,0,1,3.31,1,15.49,15.49,0,0,1,3.13,1.53c.08.06.21.2.31.26,0-1.84.42-2.49,1.84-2.83a3.53,3.53,0,0,1,3.71,1.62c.17.32.37.75.57,1.23,0-1.06-.23-2.17-.22-3.23s.12-2.12.16-3.17,0-2.13.11-3.18.48-2.06.7-3.1A25.39,25.39,0,0,1,23.58,0Z"/>
  </g>
</svg>
