<svg xmlns="http://www.w3.org/2000/svg" xmlns:xlink="http://www.w3.org/1999/xlink" viewBox="0 0 32.24 50">
  <defs>
    <style>
      .cls-1 {
        fill: none;
      }

      .cls-2 {
        fill: #fff;
      }

      .cls-3 {
        clip-path: url(#clip-path);
      }
    </style>
    <clipPath id="clip-path">
      <rect class="cls-1" x="54.56" y="-525.39" width="320" height="650"/>
    </clipPath>
  </defs>
  <title>アートボード 20</title>
  <g id="graphcs">
    <path class="cls-2" d="M31.76,51.2a2.83,2.83,0,0,1-.55-.33,2.18,2.18,0,0,0-.8-.31C29,50.22,29.53,50,29,49.7s-.11-.54-1.15-1.22c-1.37-.9-1.26-.23-2.4-.26h-.32l-.1-.43c-.07-.32-.26-.64-.33-1s0-.69-.08-1-.19-.67-.25-1-.16-.68-.22-1,0-.72,0-1S24,42,24,41.66a9.65,9.65,0,0,1-.19-1c0-.3,0-.65,0-1s0-.66,0-1-.05-.67-.06-1,0-.68,0-1,0-.68,0-1-.14-.68-.15-1,0-.68,0-1-.07-.68-.08-1,.06-.7,0-1-.12-.7-.14-1,0-.72-.05-1c0-.51.05-.89,0-1s-.2-.51-.32-.93-.18-.6-.28-1-.22-.61-.31-.94-.09-.65-.17-1-.23-.62-.31-.94-.12-.66-.21-1-.25-.63-.33-.94-.16-.67-.25-1a3.66,3.66,0,0,1-.07-1.08,8,8,0,0,1,.18-1.06c.06-.34.15-.69.24-1s.18-.69.29-1,.16-.71.28-1,.31-.67.44-1,.31-.7.43-1a3.85,3.85,0,0,0,.29-1c0-.21,0-.61,0-1a4.07,4.07,0,0,0,0-1,4,4,0,0,0-.69-1,9.68,9.68,0,0,0-.74-1,3.71,3.71,0,0,0-1-.67,2.13,2.13,0,0,0-1-.1,1.79,1.79,0,0,0-.64.17l0,0a7.46,7.46,0,0,0-.8-.61c-.25-.2-.53-.41-.77-.66a3.55,3.55,0,0,1-.52-.86,1,1,0,0,0-.84-.6,5.89,5.89,0,0,0-1.08,0,9.53,9.53,0,0,1-1,0,2.07,2.07,0,0,0-.33,0l0-.06c-.18-.3-.48-.54-.69-.85s-.4-.6-.61-.89-.42-.61-.63-.88-.41-.68-.61-.9a1.17,1.17,0,0,0-.65-.38C9.89-.18,9-.23,9.28.33a4.42,4.42,0,0,1,.35,1.16,1.36,1.36,0,0,0-.29.31,2.17,2.17,0,0,0-.44,1.05,2.07,2.07,0,0,0,.47,1.06,9.23,9.23,0,0,0,.77.86c.18.21.34.43.5.64a2.46,2.46,0,0,0-.38.19h0c-1.1.31-1.28.93-.75.84l.27,0a.77.77,0,0,0,0,.15c.12.43.57.77.81.71s.57,0,1.13.05h.09l.09.3c.11.33.16.72.25,1.1a5.38,5.38,0,0,1,.12,1.11,4.65,4.65,0,0,1-.07.91,7.35,7.35,0,0,1-.15.92,5.58,5.58,0,0,1-.46.81c-.19.37-.34.65-.51.73s-.56-.19-.87-.72c-.18-.31-.27-.73-.47-1.11s-.46-.67-.66-1-.26-.72-.41-1A5.64,5.64,0,0,0,8,8.53a1.6,1.6,0,0,0-.82-.59,8.57,8.57,0,0,1-1-.53c-.31-.15-.64-.3-1.05-.48a10.78,10.78,0,0,0-1-.51,5.25,5.25,0,0,0-1.2-.27,3,3,0,0,0-1,.07C.34,6-.21,6.71.41,6.78a3.3,3.3,0,0,1,.74.2.79.79,0,0,0,.13.33A3.35,3.35,0,0,0,2.14,8a8,8,0,0,0,.9.68c.47.25.89.39,1,.47a5.28,5.28,0,0,1,.84.86,5.7,5.7,0,0,0,.8.92,2.65,2.65,0,0,1,.48.85c.13.27.4.53.54.87s.15.66.27,1,.3.62.4.93.15.71.22,1a5.41,5.41,0,0,1,.25,1,10.46,10.46,0,0,1-.06,1.05c0,.34.05.7,0,1.06s-.11.7-.17,1-.15.7-.23,1a4.18,4.18,0,0,1-.38,1,1.45,1.45,0,0,1-.76.75,1.37,1.37,0,0,1-1.06-.2,5.6,5.6,0,0,0-1-.51,3.13,3.13,0,0,0-1.12-.27,3.85,3.85,0,0,0-1.16.19,2,2,0,0,0-1,.71l-.06.1a2.39,2.39,0,0,1-.5-.07c-.54-.14-.36.54.61,1l.06.08A1.82,1.82,0,0,0,2,24.07c.42.07.9.09,1.15.38a4.86,4.86,0,0,0,.87.85c.31.22.66.47,1,.7s.75.4,1.06.61a7.61,7.61,0,0,0,.94.62c.3.16.69.25,1,.43s.65.37,1,.55.7.31,1,.49.65.43.94.64a4.75,4.75,0,0,1,.82.78,3.71,3.71,0,0,1,.59.81,6.66,6.66,0,0,1,.35.94c.09.3.12.64.19,1s.11.64.16,1,.06.65.09,1,0,.66,0,1,.06.66.06,1,0,.66,0,1-.08.64-.1,1,0,.67,0,1-.07.67-.1,1-.06.67-.1,1-.08.67-.12,1-.07.68-.12,1-.11.68-.16,1-.11.68-.15,1-.1.7-.14,1-.11.67-.15.94l-1.82.39c-1,.2-.65.48-1.09.61s-.48.86-1.38,1c-.41,0-.25.3-.81.36s-.65,1.36-.65,1.36c0,.61,1.21.62,2.84,1.28a7.57,7.57,0,0,0,2.42.69,12.49,12.49,0,0,0,3-.47s1-.14,2.7-.26.92-.08,4.21.4,1.32.14,2,.22,6.69-.56,8-1.22C32.61,51.74,32.18,51.39,31.76,51.2ZM20.17,10.29a1.52,1.52,0,0,1,.65,1,3.79,3.79,0,0,1,.06.85c-.07.18-.31.18-.71.47s-.48,0-.62-.32a1.94,1.94,0,0,1-.2-.84c0-.25.1-.68.12-1.15a2.51,2.51,0,0,0,0-.47A5.52,5.52,0,0,1,20.17,10.29Zm-5-2.86c.13,0,.39.45.69.82a5.37,5.37,0,0,1,.59.85,2.06,2.06,0,0,1,.22.95,9.32,9.32,0,0,1-.18,1,9.83,9.83,0,0,1-.13,1c-.14.58-.43.6-.74.4a1.52,1.52,0,0,1-.65-.86c0-.22-.07-.62-.12-1.09s-.15-.71-.18-1.09.1-.76.07-1.11a7,7,0,0,0-.13-.82C14.88,7.44,15.09,7.42,15.14,7.43Z"/>
    <g class="cls-3">
      <path class="cls-2" d="M431.92-146.46c-.38-5.42-1.05-11.11-1.93-16.86-.84-5.51-2.62-11-3.88-16.51s-2.65-11-4.27-16.37c-1.7-5.57-3-11.15-5.08-16.18-2.27-5.57-5.46-10.35-8.08-14.85a123.6,123.6,0,0,0-9.6-14.87,134,134,0,0,0-12-13c-4.35-4.2-8.46-8.55-13-12A163.6,163.6,0,0,0,359.28-277a170.44,170.44,0,0,0-15.66-8.31A144.73,144.73,0,0,0,327-291.44c-7.83-2.59-13.95-3.62-17.17-3.6-4.46,0-11.45.22-19.12.33-6.27.09-13-.52-19.17,0-7.84.69-14.54,2.58-18.41,4.67s-9.89,1.89-16.37,1.34c0-.66,0-1.31,0-2,0-4.3,1-8.7,1.19-13.25a116,116,0,0,0-.49-13.28c-.31-4.22-.29-8.71-1.63-13.19a59.1,59.1,0,0,0-5.38-12.2,58.22,58.22,0,0,0-6.89-9.83c-2.67-3-6.1-5.25-9.14-7.71s-6.21-5.3-9.48-7.24a73,73,0,0,0-10.86-4.88c-4.64-1.82-8.65-3.14-11.46-3.15-4.71,0-7.87,2.58-10.34,5.52a52.84,52.84,0,0,0-6.43,10.23c-2.76,5.54-3.94,7.07.27,9.85,4.82,3.18,4.86,1,11.2,2.67,3.45.9,7.53,1.44,11.26,2.8a52.28,52.28,0,0,1,10.18,5.51c4,2.55,6.7,5.65,7.84,9.67a46.88,46.88,0,0,1,1.29,12.7c0,4-.8,8.29-.7,12.68a53.91,53.91,0,0,1-1.3,12q-.35,1.67-.73,3.32c-.67.22-1.37.4-2,.68-7.84-5.55-4-8.5-12.73-14.21-4.7-3.07-10.53-5.8-18-5.64s-14.2,1.93-20.22,3.47c-11.42,2.92-9.27,4.87-19.34,7.07-7.74,1.69-6.31-1-15.9-.77a116.32,116.32,0,0,0-15.76.9,113,113,0,0,0-15.56,3.18,90.37,90.37,0,0,0-16.18,6.56c-5,2.65-9.66,6.31-14.42,9.84a125.56,125.56,0,0,0-13.49,11.05,115.49,115.49,0,0,0-11.12,13.45c-3.58,4.79-7.21,9.47-9.68,14.55-2.24,4.61-4.16,10.57-6.41,17.19-1.82,5.36-3.46,11.3-5.15,17.58-1.53,5.68-2.65,11.72-4,17.88C4-179.77,1.79-173.92.79-167.83s-1.88,12.16-2.53,18.2c-.66,6.2-.43,12.41-.65,18.36-.23,6.37-.81,12.56-.43,18.36s1.3,11.61,2,17.3C-.14-89.76.59-84,1.59-78.38,2.63-72.51,4.69-67,6-61.56c1.45,5.85,2.84,11.47,4.63,16.7a141.27,141.27,0,0,0,6.16,16.21,76.56,76.56,0,0,0,9.3,14.58A180.83,180.83,0,0,0,39.15.61,150.43,150.43,0,0,0,53.73,13.75c5.09,3.87,11,6.86,16.86,10a91.32,91.32,0,0,0,18.13,7c6.15,1.71,12.43,3.61,19.14,3.75,8.32.17,14.83.06,20.17.37,9,.52,14.73.67,20.14,1.24,5.75.61,11.15,2,20,2.19,6.59.14,11.88-1.11,17.12-1.57s10.7-1,17.16-1.21c4.87-.15,10.45.14,17.2.59,5,.33,10.58,1.23,17.07,2.07s12.73,1.46,18.3,1.88c6.85.51,12.93.15,18.37.13,7.12,0,13.21.66,18.42,0,7.41-.92,13-3,17.9-4.39,6.94-1.92,12.17-3.77,17.89-4.19a93.43,93.43,0,0,0,19.69-3.26c5.64-1.62,12-3.43,18.52-7.61,4.95-3.19,9.8-7.79,15.21-13.18A151,151,0,0,0,394.16-7.68a130.06,130.06,0,0,0,9.94-15.47,163.82,163.82,0,0,0,8.51-16.36c2.4-5.68,4-11.66,5.88-17.5s3.6-11.85,5-17.76c1.46-6.15,3.08-12.13,4.09-18,1.09-6.37,2.45-12.46,3.1-18.26.74-6.68.48-13,.77-18.47C431.73-134.73,432.34-140.46,431.92-146.46ZM258.47-192c2.91-.25,9.84-.5,16.82-3.72,4.77-2.2,9-6.37,13-11.25a146.08,146.08,0,0,0,11.49-16.69c4.3-7,8.23-12,14.58-13.09,5.79-1,13.31.85,19.15,5.52,5.12,4.09,9.47,10.24,10.21,17.57.53,5.27.62,12.65,1.27,20.45.57,6.78,1.67,13.92,1.53,20.46-.18,8.32-1.51,15.75-4.21,20-2.83,4.45-6.64,10.25-11.89,14.47A28.81,28.81,0,0,1,313-131.64c-5.22.11-11-2.06-17.56-5.79a74.61,74.61,0,0,1-13.66-9.72c-4.29-3.92-7.61-8.49-10.8-12.86a84.37,84.37,0,0,1-8.6-14.36,52.83,52.83,0,0,1-4.85-15.94C257.46-191.16,257.63-192,258.47-192ZM230-160.73c15.93-.7,20.78,16.7,20.9,29.89s-13.1,3.13-19.73-2.61S222.88-160.42,230-160.73Zm-38.75,22.11c2.23-11.68,13.27-20,13.27-20,14.09-1.08,6.1,25.21-2.78,30.91S189-126.95,191.26-138.62ZM88.63-201.91a75.29,75.29,0,0,1,5-17.63c2.36-6.1,5.15-11.76,8.81-16a25.39,25.39,0,0,1,15.5-8.95c9.49-1.36,15.3.73,19.87,5.23,4.38,4.31,7.26,11,12.23,17.57a84.44,84.44,0,0,0,11,11.73c4.06,3.62,9,6.22,13.32,8.85,5.37,3.28,10.33,5.79,14.5,6.1A1.54,1.54,0,0,1,190-192.6a174.54,174.54,0,0,0-9.84,18.6,95.12,95.12,0,0,1-7.32,13.39c-2.67,4.09-5.65,8.64-9.32,12.13a28.87,28.87,0,0,1-13.39,7c-6.65,1.53-12.28,3.75-17.47,4.53-6.44,1-12.33.64-17.77-2.45-4.29-2.44-8.61-6.48-13-11.83-3.23-3.94-7-8.5-9.34-15-1.75-4.86-2.76-10.71-3.6-17.39A74.19,74.19,0,0,1,88.63-201.91Zm306.89,91.17c-.45,3-1.43,6.57-2.2,10.86a47.79,47.79,0,0,1-2.47,9.16A72.52,72.52,0,0,1,387-82c-1.54,2.77-3.66,5.21-5.45,7.84s-3.32,5.53-5.26,8-4,5.12-6.05,7.38c-2.31,2.6-4.72,4.75-6.71,6.78-2.93,3-5.57,5-7.05,6.39-.87.79-2.24,1.23-3,.36-4.33-4.65-4-5-8.33-9.6a2.38,2.38,0,0,0-2.18-.73c-4.47,1.11-4.46,1.14-8.93,2.25-1.49.37-4.75,2.38-4.73,3.94.35,3.71.26,3.72.67,7.42s.29,3.72.7,7.42a1.88,1.88,0,0,1-1.36,2.13c-1.32.43-3.27,1.19-5.68,1.78-.09,0-.25-.31-.34-.3-1.37.15-1.31.67-2.67.82-1.09.12-1.84-1-2.07-2.08-1.18-5.53-1.46-5.47-2.64-11-.25-1.15-1.3-1.53-2.45-1.3-4.21.81-4.26.57-8.47,1.38s-4.26.58-8.47,1.39A2.11,2.11,0,0,0,295-39.95c-.91,4.06-1,4-2,8.09s-1.3,4-2.21,8c-.21,1-.69,1.89-1.66,1.93-6.77.29-6.77.38-13.55.68a2.58,2.58,0,0,1-2.41-1.95c-.77-3.83-.4-3.91-1.17-7.74s-1.13-3.76-1.9-7.59a1.87,1.87,0,0,0-1.94-1.64c-6,.07-6-.22-12.09-.15s-6,.5-12.08.57a2,2,0,0,0-2.11,1.48c-.79,4.17-.58,4.21-1.38,8.38s-1.06,4.12-1.85,8.29a2.11,2.11,0,0,1-1.94,1.8c-7,.31-7,0-14,.28a1.73,1.73,0,0,1-2-1.77c-.19-4.33-.5-4.31-.69-8.64s.15-4.34,0-8.67c-.05-1.19-1.28-1.74-2.47-1.69-4.39.19-4.4,0-8.8.18s-4.4.11-8.79.3l-8.77.39c-1.15.05-1.79,4.49-2.09,9.41-.23,3.69-.36,7.59-.37,10a2.18,2.18,0,0,1-2.19,2.28c-5.59-.38-5.58-.55-11.16-.93a2.36,2.36,0,0,1-2.26-2.17c0-2.54.39-7.05-.42-11.24s-2.42-8.38-5.4-9.64a75.78,75.78,0,0,0-8-2.23c-2.65-.72-5.49-1.26-8.09-1.86-3.33-.76-6.29-1.45-8.1-1.81a1.87,1.87,0,0,0-2.26,1.3c-1.7,4.93-1.91,4.86-3.61,9.79a2.27,2.27,0,0,1-2.12,1.66c-7.11-.49-7.08-1-14.19-1.46a1.83,1.83,0,0,1-1.9-1.94,42.36,42.36,0,0,0-1.23-11.64c-1.08-3.94-3.14-7.63-6.76-9.12a61.41,61.41,0,0,0-7.92-2.23,60.76,60.76,0,0,0-8-1.66,1.78,1.78,0,0,0-2,.72C90-57.09,90.09-57,87-51.94a2.16,2.16,0,0,1-2.83.47c-1.93-.91-5.5-2.22-9.53-4.48-2.79-1.57-5.78-3.59-8.9-5.68a97.15,97.15,0,0,1-8.58-6.16A56.93,56.93,0,0,1,50-75.55a36,36,0,0,1-5.52-8c-1.28-2.82-1.89-6.12-2.9-9.34s-2.19-6.16-2.94-9.31-1.35-6.55-1.91-9.57c-.67-3.6-1-6.92-1.42-9.63A2,2,0,0,1,38.85-123a88.66,88.66,0,0,0,7.1,7.46A91.6,91.6,0,0,0,54-109.15a94.89,94.89,0,0,0,8.82,5.29c3.2,1.77,6.26,3.39,9.17,4.63a91.43,91.43,0,0,0,9.76,3.14c5.92,1.84,9.67,2.89,9.83,2.92a11.88,11.88,0,0,1,6.94,4A14.43,14.43,0,0,1,102-81.68c.2,1.91,3.86,3.36,8.11,4.26,3.36.71,7,1.36,9.45,1.72,2,.3,4.63-2.35,7.16-4.8a81.32,81.32,0,0,0,6-6.25c.4-.52.95-1.16,1.6-1.17,3.83-.07,3.83.29,7.66.22a2.33,2.33,0,0,1,2.43,2.31c-.4,4.65-.8,4.62-1.2,9.28a2.08,2.08,0,0,0,1.61,2,58,58,0,0,0,9.24,2.21c3.68.61,7.34,1.16,9.45,1.42A2.06,2.06,0,0,0,165.83-72c1.47-5.09,1.27-5.15,2.73-10.24A2.63,2.63,0,0,1,171.2-84l13.29,1.93a2.36,2.36,0,0,1,1.66,2.14c.69,4.92.58,4.94,1.27,9.86a2.4,2.4,0,0,0,2.31,1.89c2.85,0,7.49-.52,12.06-.89,4.89-.39,9.73-.46,12.09-.7.92-.09,1.38-1,1.58-1.92,1.19-5.24,1.59-5.15,2.78-10.39a1.86,1.86,0,0,1,2-1.51c4.67.1,4.67-.25,9.34-.15s4.66.46,9.32.57a2.15,2.15,0,0,1,2.25,1.56c1,5.93.83,5.95,1.8,11.88a1.83,1.83,0,0,0,1.87,1.47c2.12.21,5.07.41,8.27.4,2.74,0,5.65.17,8.33.09,3.44-.11,6.49-.54,8.3-.63a1.71,1.71,0,0,0,1.77-1.6c.84-5.5,1.08-5.46,1.91-11a2.13,2.13,0,0,1,2.08-1.82c2.16,0,6,0,9.62-.08,4.66-.07,9.09-.08,9.61-.1s1.39,3.4,2.19,7.34c.56,2.79,1,5.77,1.38,7.79a2.43,2.43,0,0,0,2.92,1.95c5.44-1.83,5.33-2.19,10.77-4s5.46-1.78,10.9-3.61a2.08,2.08,0,0,0,1.34-1.43c1.9-6.55,2-6.54,3.85-13.1a2.18,2.18,0,0,1,1.54-1.51c2.16-.55,6.44-1.37,7.35,0,2.57,4-1.78,14.08.24,14,1.33-.06,5.23-.44,9.11-.88s7.66-.78,9.1-1c.36,0,.33-.75.37-1.11,1.49-4.65,1.94-4.5,3.46-9.14.15-.45.12-1.13.51-1.39a55.73,55.73,0,0,1,5-2.63c2-.85,5-3.28,8.15-6.75,2.2-2.41,4.14-5.58,6.49-8.47s4.93-5.35,7-8c2.56-3.24,5-6.06,6.8-8.18a2.07,2.07,0,0,1,3.74,1.3C396.83-119.36,396.28-115.87,395.52-110.74Z"/>
    </g>
  </g>
</svg>
