<svg xmlns="http://www.w3.org/2000/svg" viewBox="0 0 280.67 62.2">
  <defs>
    <style>
      .cls-1 {
        fill: #221e1f;
      }
    </style>
  </defs>
  <title>アートボード 22</title>
  <g id="type">
    <g>
      <path class="cls-1" d="M.9,0H4.4V5.14H7V0h3.5V13.94H7V8.08H4.4v5.86H.9Z"/>
      <path class="cls-1" d="M15.66,0H19.2l3.7,13.94H19.22l-.52-2.32H16l-.48,2.32H11.92Zm.84,9.06h1.64l-.5-2.32a11.53,11.53,0,0,1-.21-1.33q-.07-.69-.09-1.09h0c0,.13,0,.29,0,.48s0,.39-.07.6-.07.44-.1.67a6.73,6.73,0,0,1-.13.67Z"/>
      <path class="cls-1" d="M24.32,0h3.44V11h4.06v2.94h-7.5Z"/>
      <path class="cls-1" d="M33.76,0H37.2V11h4.06v2.94h-7.5Z"/>
      <path class="cls-1" d="M48.1,14.2a7.09,7.09,0,0,1-2.49-.4,4.14,4.14,0,0,1-1.78-1.26,5.74,5.74,0,0,1-1.07-2.23A13.26,13.26,0,0,1,42.4,7a13.26,13.26,0,0,1,.36-3.33,5.76,5.76,0,0,1,1.08-2.24A4.18,4.18,0,0,1,45.63.14a7.09,7.09,0,0,1,2.49-.4,7,7,0,0,1,2.48.4,4,4,0,0,1,1.76,1.27,5.83,5.83,0,0,1,1,2.24A13.63,13.63,0,0,1,53.76,7a13.63,13.63,0,0,1-.35,3.33,5.75,5.75,0,0,1-1.06,2.24,4,4,0,0,1-1.77,1.26A7.19,7.19,0,0,1,48.1,14.2Zm0-2.84a1.88,1.88,0,0,0,.92-.2,1.36,1.36,0,0,0,.57-.7,4.91,4.91,0,0,0,.3-1.37A22,22,0,0,0,50,6.88a20.6,20.6,0,0,0-.09-2.14,4.57,4.57,0,0,0-.3-1.32A1.32,1.32,0,0,0,49,2.75a2.33,2.33,0,0,0-1.84,0,1.31,1.31,0,0,0-.57.68,4.73,4.73,0,0,0-.3,1.34,20.89,20.89,0,0,0-.09,2.15,21.68,21.68,0,0,0,.09,2.2,4.89,4.89,0,0,0,.3,1.36,1.31,1.31,0,0,0,.57.69A2,2,0,0,0,48.08,11.36Z"/>
      <path class="cls-1" d="M54.7,0h3.6l.64,3.72q.14.82.23,1.74t.15,1.75q.06.83.09,1.44t0,.81h0q0-.84.17-2.12t.51-3.24L60.9,0h2.78l.76,4.06q.1.56.21,1.24t.2,1.39q.09.71.16,1.42l.13,1.33h0q0-1,.11-2.57t.29-3.17L66.12,0h3.56L67,13.94H63.58l-1-5.38q-.16-1-.24-1.9t-.12-1.6h0q0,.68-.12,1.6t-.24,1.9l-1,5.38H57.3Z"/>
      <path class="cls-1" d="M71.32,0h7.6V2.94h-4.1V5.28H78V8.12H74.82V11h4.46v3h-8Z"/>
      <path class="cls-1" d="M81,0h7.6V2.94H84.5V5.28h3.22V8.12H84.5V11H89v3H81Z"/>
      <path class="cls-1" d="M90.68,0h3.24L96.4,5.42q.16.34.32.74c.11.27.21.54.31.82s.19.55.28.82.16.52.23.76h0c0-.2-.06-.45-.09-.74s-.07-.6-.1-.93-.06-.66-.09-1,0-.65,0-.94V0h3.16V13.94H96.94L94.6,8.48q-.32-.76-.62-1.6t-.52-1.5h0c0,.13,0,.34.09.61s.09.59.14,1,.09.75.12,1.17.05.85.05,1.29v4.54H90.68Z"/>
      <path class="cls-1" d="M107.3,0h3.24L113,5.42q.16.34.32.74c.11.27.21.54.31.82s.19.55.28.82.16.52.23.76h0c0-.2-.06-.45-.09-.74s-.07-.6-.1-.93-.06-.66-.09-1,0-.65,0-.94V0H117V13.94h-3.46l-2.34-5.46q-.32-.76-.62-1.6t-.52-1.5h0c0,.13,0,.34.09.61s.09.59.14,1,.09.75.12,1.17.05.85.05,1.29v4.54H107.3Z"/>
      <path class="cls-1" d="M119.46,0H123V13.94h-3.54Z"/>
      <path class="cls-1" d="M132.64,13.17a3,3,0,0,1-1.07.78,3.28,3.28,0,0,1-1.29.26,5.7,5.7,0,0,1-2.19-.4,4,4,0,0,1-1.64-1.26,6,6,0,0,1-1-2.23A13.63,13.63,0,0,1,125.08,7a13.06,13.06,0,0,1,.4-3.52,5.63,5.63,0,0,1,1.14-2.23,3.94,3.94,0,0,1,1.8-1.16,8,8,0,0,1,2.38-.33,9,9,0,0,1,1.32.09,5.75,5.75,0,0,1,1.12.28,6.26,6.26,0,0,1,1,.47,7.24,7.24,0,0,1,.94.66l-1.9,2.5a7.91,7.91,0,0,0-1-.76,2.37,2.37,0,0,0-1.24-.3,3,3,0,0,0-1,.14,1.17,1.17,0,0,0-.64.57A3.62,3.62,0,0,0,129,4.63a16.52,16.52,0,0,0-.11,2.15A19.81,19.81,0,0,0,129,9.12a4.13,4.13,0,0,0,.36,1.36,1.25,1.25,0,0,0,.63.63,2.51,2.51,0,0,0,.92.15,2.25,2.25,0,0,0,.67-.08A1.85,1.85,0,0,0,132,11V8.84h-1.36V6h4.82v7.94H133Z"/>
      <path class="cls-1" d="M137.62,0h3.5V5.14h2.6V0h3.5V13.94h-3.5V8.08h-2.6v5.86h-3.5Z"/>
      <path class="cls-1" d="M151.88,2.94H149V0h9.2V2.94h-2.88v11h-3.44Z"/>
      <path class="cls-1" d="M167.26,0h3.54l3.7,13.94h-3.68l-.52-2.32h-2.74l-.48,2.32h-3.56Zm.84,9.06h1.64l-.5-2.32A11.53,11.53,0,0,1,169,5.41q-.07-.69-.09-1.09h0c0,.13,0,.29,0,.48s0,.39-.07.6-.07.44-.1.67a6.73,6.73,0,0,1-.13.67Z"/>
      <path class="cls-1" d="M177.18,2.94H174.3V0h9.2V2.94h-2.88v11h-3.44Z"/>
      <path class="cls-1" d="M189.8,0h3.44V11h4.06v2.94h-7.5Z"/>
      <path class="cls-1" d="M199.24,0h7.6V2.94h-4.1V5.28H206V8.12h-3.22V11h4.46v3h-8Z"/>
      <path class="cls-1" d="M209,0h3.54V13.94H209Z"/>
      <path class="cls-1" d="M219.51,0H223V5.14h2.6V0h3.5V13.94h-3.5V8.08H223v5.86h-3.5Z"/>
      <path class="cls-1" d="M234.27,0h3.54l3.7,13.94h-3.68l-.52-2.32h-2.74l-.48,2.32h-3.56Zm.84,9.06h1.64l-.5-2.32A11.53,11.53,0,0,1,236,5.41Q236,4.72,236,4.32h0c0,.13,0,.29,0,.48s0,.39-.07.6-.07.44-.1.67a6.73,6.73,0,0,1-.13.67Z"/>
      <path class="cls-1" d="M247.43,14.2a7.52,7.52,0,0,1-1.89-.23,3.85,3.85,0,0,1-1.55-.79,3.8,3.8,0,0,1-1-1.49,6.2,6.2,0,0,1-.38-2.33V0h3.5V9.54a2.61,2.61,0,0,0,.27,1.35,1.65,1.65,0,0,0,2.22,0,2.61,2.61,0,0,0,.27-1.35V0h3.5V9.36a5.92,5.92,0,0,1-.4,2.33A3.78,3.78,0,0,1,249.3,14,7.45,7.45,0,0,1,247.43,14.2Z"/>
      <path class="cls-1" d="M260,14.2a7.09,7.09,0,0,1-2.49-.4,4.14,4.14,0,0,1-1.78-1.26,5.74,5.74,0,0,1-1.07-2.23A13.26,13.26,0,0,1,254.27,7a13.26,13.26,0,0,1,.36-3.33,5.76,5.76,0,0,1,1.08-2.24A4.18,4.18,0,0,1,257.5.14,7.09,7.09,0,0,1,260-.26a7,7,0,0,1,2.48.4,4,4,0,0,1,1.76,1.27,5.83,5.83,0,0,1,1,2.24A13.63,13.63,0,0,1,265.63,7a13.63,13.63,0,0,1-.35,3.33,5.75,5.75,0,0,1-1.06,2.24,4,4,0,0,1-1.77,1.26A7.19,7.19,0,0,1,260,14.2Zm0-2.84a1.88,1.88,0,0,0,.92-.2,1.36,1.36,0,0,0,.57-.7,4.91,4.91,0,0,0,.3-1.37,22,22,0,0,0,.09-2.21,20.6,20.6,0,0,0-.09-2.14,4.57,4.57,0,0,0-.3-1.32,1.32,1.32,0,0,0-.57-.67,2.33,2.33,0,0,0-1.84,0,1.31,1.31,0,0,0-.57.68,4.73,4.73,0,0,0-.3,1.34,20.89,20.89,0,0,0-.09,2.15,21.68,21.68,0,0,0,.09,2.2,4.89,4.89,0,0,0,.3,1.36,1.31,1.31,0,0,0,.57.69A2,2,0,0,0,260,11.36Z"/>
      <path class="cls-1" d="M267.63,0h3.44V11h4.06v2.94h-7.5Z"/>
      <path class="cls-1" d="M277.13,0h3.54V13.94h-3.54Z"/>
      <path class="cls-1" d="M.9,24H8.38v2.94h-4v2.34H7.46v2.84H4.4v5.82H.9Z"/>
      <path class="cls-1" d="M10.06,24h4.56a9.67,9.67,0,0,1,2.49.27,3.91,3.91,0,0,1,1.58.79,2.89,2.89,0,0,1,.84,1.26,5.3,5.3,0,0,1,.25,1.7,6.09,6.09,0,0,1-.16,1.5,2.9,2.9,0,0,1-.47,1,2.4,2.4,0,0,1-.76.66,4.73,4.73,0,0,1-1,.41,2,2,0,0,1,1.15.91,7,7,0,0,1,.69,1.71l1,3.7H16.46l-.94-4a7.94,7.94,0,0,0-.23-.78,1.28,1.28,0,0,0-.28-.47,1,1,0,0,0-.44-.24,2.86,2.86,0,0,0-.69-.07h-.32v5.56h-3.5Zm4.78,5.84a1.13,1.13,0,0,0,1-.37,2.1,2.1,0,0,0,.27-1.21,1.45,1.45,0,0,0-.31-1.06,1.32,1.32,0,0,0-1-.3H13.56v2.94Z"/>
      <path class="cls-1" d="M21.9,24h3.54V37.94H21.9Z"/>
      <path class="cls-1" d="M27.92,24H32.8a7,7,0,0,1,2.29.35,3.85,3.85,0,0,1,1.69,1.14,5.34,5.34,0,0,1,1,2.08,11.86,11.86,0,0,1,.36,3.15,15.87,15.87,0,0,1-.25,2.93,6.49,6.49,0,0,1-.85,2.28,4.15,4.15,0,0,1-1.61,1.48,5.46,5.46,0,0,1-2.55.53h-5Zm4.74,11a2,2,0,0,0,.77-.14,1.1,1.1,0,0,0,.54-.59,4.47,4.47,0,0,0,.31-1.32,20.94,20.94,0,0,0,.1-2.31,12.36,12.36,0,0,0-.12-1.94,3.2,3.2,0,0,0-.35-1.1,1.11,1.11,0,0,0-.57-.5,2.34,2.34,0,0,0-.78-.12H31.42v8Z"/>
      <path class="cls-1" d="M42.54,24h3.54l3.7,13.94H46.1l-.52-2.32H42.84l-.48,2.32H38.8Zm.84,9.06H45l-.5-2.32a11.53,11.53,0,0,1-.21-1.33q-.07-.69-.09-1.09h0c0,.13,0,.29,0,.48s0,.39-.07.6-.07.44-.1.67a6.73,6.73,0,0,1-.13.67Z"/>
      <path class="cls-1" d="M52.48,31.88,48.88,24h3.8l1,2.48q.28.72.45,1.3a9.28,9.28,0,0,1,.27,1.28q.14-.7.29-1.29a9.41,9.41,0,0,1,.41-1.23l1-2.54h3.7L56,31.8v6.14h-3.5Z"/>
      <path class="cls-1" d="M66.38,38.88A21.17,21.17,0,0,1,67,35.16a20.06,20.06,0,0,1,1.07-3A14.58,14.58,0,0,1,69.4,29.8a13.44,13.44,0,0,1,1.34-1.66h-5.6v-3H74v3.22a9.69,9.69,0,0,0-1.12,1.4,15.22,15.22,0,0,0-1.33,2.42,22.1,22.1,0,0,0-1.15,3.27,18.29,18.29,0,0,0-.6,4Z"/>
      <path class="cls-1" d="M75.84,24h4.08a13.42,13.42,0,0,1,2.32.18,4.15,4.15,0,0,1,1.71.67A3.08,3.08,0,0,1,85,26.18a5.54,5.54,0,0,1,.36,2.16,8.33,8.33,0,0,1-.2,1.91,3.19,3.19,0,0,1-.76,1.46,3.58,3.58,0,0,1-1.58.94,8.77,8.77,0,0,1-2.64.33h-.84v5h-3.5Zm4.38,6.18a1.9,1.9,0,0,0,1.18-.3,1.61,1.61,0,0,0,.38-1.28,3.39,3.39,0,0,0-.09-.87,1.2,1.2,0,0,0-.27-.52A.86.86,0,0,0,81,27a2.5,2.5,0,0,0-.57-.06H79.34v3.28Z"/>
      <path class="cls-1" d="M87.6,24h3.9l1,5q.18.84.29,1.59T93,32.18h0q.1-.82.22-1.6t.3-1.54l1.14-5h3.82l1,13.94H96.12l-.3-5.22q-.08-.94-.09-1.64t0-1.58h0q-.1.9-.22,1.84t-.3,1.8l-1,4.8H91.76l-1-4.8q-.2-1-.31-1.84t-.23-1.8h0q0,.94,0,1.68t-.06,1.6l-.3,5.16H86.52Z"/>
      <path class="cls-1" d="M112.86,38.2a4.25,4.25,0,0,1-3.47-1.32,6.48,6.48,0,0,1-1.09-4.16,6.27,6.27,0,0,1,1.08-4.09,4.07,4.07,0,0,1,3.28-1.27,5.23,5.23,0,0,1,1.88.31,4.43,4.43,0,0,1,1.44.9l-1.52,2.09a2.36,2.36,0,0,0-.62-.51A1.61,1.61,0,0,0,113,30a1.44,1.44,0,0,0-.54.09.72.72,0,0,0-.36.37,2.53,2.53,0,0,0-.2.82,13.29,13.29,0,0,0-.06,1.42q0,.89.05,1.45a3,3,0,0,0,.19.9.9.9,0,0,0,.38.46,1.25,1.25,0,0,0,.6.13,2,2,0,0,0,.92-.18,3.26,3.26,0,0,0,.7-.52L116,37.09a5,5,0,0,1-1.32.79A4.59,4.59,0,0,1,112.86,38.2Z"/>
      <path class="cls-1" d="M121.24,38.2a5.75,5.75,0,0,1-2-.31,3.45,3.45,0,0,1-1.43-1,4.36,4.36,0,0,1-.88-1.7,9.09,9.09,0,0,1-.3-2.5,8.88,8.88,0,0,1,.3-2.48,4.18,4.18,0,0,1,.88-1.66,3.36,3.36,0,0,1,1.44-.93,6.19,6.19,0,0,1,2-.29,4.39,4.39,0,0,1,3.41,1.28,6.11,6.11,0,0,1,1.17,4.18,8.92,8.92,0,0,1-.3,2.48,4.29,4.29,0,0,1-.88,1.67,3.3,3.3,0,0,1-1.44.94A6.19,6.19,0,0,1,121.24,38.2Zm0-2.4a1,1,0,0,0,.56-.14.9.9,0,0,0,.31-.49,3.93,3.93,0,0,0,.14-1q0-.6,0-1.5t0-1.53a3.38,3.38,0,0,0-.14-.89.68.68,0,0,0-.32-.42,1.33,1.33,0,0,0-.57-.1,1.09,1.09,0,0,0-.56.12.79.79,0,0,0-.31.45,3.64,3.64,0,0,0-.14.92q0,.59,0,1.55t0,1.48a3.6,3.6,0,0,0,.14.91.82.82,0,0,0,.32.46A1.08,1.08,0,0,0,121.26,35.8Z"/>
      <path class="cls-1" d="M127.4,27.62h2.72l.2.82a5.47,5.47,0,0,1,1.18-.78,3.47,3.47,0,0,1,1.52-.3,2.37,2.37,0,0,1,2.22,1.08,5.46,5.46,0,0,1,1.18-.78,3.47,3.47,0,0,1,1.52-.3,2.71,2.71,0,0,1,1.94.63,3.12,3.12,0,0,1,.66,2.29v7.66h-3.3V31c0-.44-.07-.72-.21-.83a.76.76,0,0,0-.49-.17,1.54,1.54,0,0,0-.92.34v7.64h-3.3V31q0-.66-.21-.83a.76.76,0,0,0-.49-.17,1.54,1.54,0,0,0-.92.34v7.64h-3.3Z"/>
      <path class="cls-1" d="M147.36,38.2a8.26,8.26,0,0,1-2.42-.31,3.68,3.68,0,0,1-2.6-2.67,9.09,9.09,0,0,1-.3-2.5,9.18,9.18,0,0,1,.29-2.48,4.17,4.17,0,0,1,.86-1.66,3.3,3.3,0,0,1,1.4-.93,5.71,5.71,0,0,1,1.89-.29,5.87,5.87,0,0,1,2.13.34,3.07,3.07,0,0,1,1.39,1,4.62,4.62,0,0,1,.75,1.77A11.92,11.92,0,0,1,151,33v.86h-5.36a3.7,3.7,0,0,0,.16.91,1.38,1.38,0,0,0,.31.54,1,1,0,0,0,.48.26,3,3,0,0,0,.69.07,2.69,2.69,0,0,0,1.22-.26,6.6,6.6,0,0,0,1-.6L150.8,37a4.21,4.21,0,0,1-1.42.87A5.36,5.36,0,0,1,147.36,38.2Zm-.73-8.48a.82.82,0,0,0-.8.4,4.19,4.19,0,0,0-.25,1.58h2.1c0-.33,0-.63-.05-.88a2.05,2.05,0,0,0-.13-.62.74.74,0,0,0-.3-.36A1.1,1.1,0,0,0,146.63,29.72Z"/>
      <path class="cls-1" d="M161.26,38.2a5.75,5.75,0,0,1-2-.31,3.45,3.45,0,0,1-1.43-1,4.36,4.36,0,0,1-.88-1.7,9.09,9.09,0,0,1-.3-2.5,8.88,8.88,0,0,1,.3-2.48,4.18,4.18,0,0,1,.88-1.66,3.36,3.36,0,0,1,1.44-.93,6.19,6.19,0,0,1,2-.29,4.39,4.39,0,0,1,3.41,1.28,6.11,6.11,0,0,1,1.17,4.18,8.92,8.92,0,0,1-.3,2.48,4.29,4.29,0,0,1-.88,1.67,3.3,3.3,0,0,1-1.44.94A6.19,6.19,0,0,1,161.26,38.2Zm0-2.4a1,1,0,0,0,.56-.14.9.9,0,0,0,.31-.49,3.93,3.93,0,0,0,.14-1q0-.6,0-1.5t0-1.53a3.38,3.38,0,0,0-.14-.89.68.68,0,0,0-.32-.42,1.33,1.33,0,0,0-.57-.1,1.09,1.09,0,0,0-.56.12.79.79,0,0,0-.31.45,3.64,3.64,0,0,0-.14.92q0,.59,0,1.55t0,1.48a3.6,3.6,0,0,0,.14.91.82.82,0,0,0,.32.46A1.08,1.08,0,0,0,161.28,35.8Z"/>
      <path class="cls-1" d="M167.42,27.62h2.72l.26,1.08a2.77,2.77,0,0,1,.9-.94,2.21,2.21,0,0,1,1.16-.3l.45,0,.37.06v3.22h-.08a3.39,3.39,0,0,0-.54-.2,2.42,2.42,0,0,0-.68-.1,2.64,2.64,0,0,0-1.26.26v7.22h-3.3Z"/>
      <path class="cls-1" d="M184.64,38.2a2.86,2.86,0,0,1-1.46-.36,4,4,0,0,1-1-.82l-.22.92h-2.72V23.24h3.3v5a2.12,2.12,0,0,1,.31-.24,4.16,4.16,0,0,1,.5-.28,3.42,3.42,0,0,1,.64-.23,2.94,2.94,0,0,1,.73-.09,4.06,4.06,0,0,1,1.48.25,2.39,2.39,0,0,1,1.07.84,4.12,4.12,0,0,1,.64,1.58,12.2,12.2,0,0,1,.21,2.47,14.71,14.71,0,0,1-.22,2.8,4.82,4.82,0,0,1-.66,1.75,2.31,2.31,0,0,1-1.09.9A4.12,4.12,0,0,1,184.64,38.2Zm-1.18-2.6a1.13,1.13,0,0,0,.58-.13.84.84,0,0,0,.34-.46,3.21,3.21,0,0,0,.15-.9q0-.57,0-1.45t0-1.36a3,3,0,0,0-.14-.82.73.73,0,0,0-.31-.41,1.08,1.08,0,0,0-.52-.11,1.7,1.7,0,0,0-.64.1,1.43,1.43,0,0,0-.4.24v4.94a2.09,2.09,0,0,0,.36.24A1.21,1.21,0,0,0,183.46,35.6Z"/>
      <path class="cls-1" d="M194.62,38.2a8.26,8.26,0,0,1-2.42-.31,3.68,3.68,0,0,1-2.6-2.67,9.09,9.09,0,0,1-.3-2.5,9.18,9.18,0,0,1,.29-2.48,4.17,4.17,0,0,1,.86-1.66,3.3,3.3,0,0,1,1.4-.93,5.71,5.71,0,0,1,1.89-.29,5.87,5.87,0,0,1,2.13.34,3.07,3.07,0,0,1,1.39,1,4.62,4.62,0,0,1,.75,1.77,11.92,11.92,0,0,1,.23,2.5v.86h-5.36a3.7,3.7,0,0,0,.16.91,1.38,1.38,0,0,0,.31.54,1,1,0,0,0,.48.26,3,3,0,0,0,.69.07,2.69,2.69,0,0,0,1.22-.26,6.6,6.6,0,0,0,1-.6L198.06,37a4.21,4.21,0,0,1-1.42.87A5.36,5.36,0,0,1,194.62,38.2Zm-.73-8.48a.82.82,0,0,0-.8.4,4.19,4.19,0,0,0-.25,1.58h2.1c0-.33,0-.63-.05-.88a2.05,2.05,0,0,0-.13-.62.74.74,0,0,0-.3-.36A1.1,1.1,0,0,0,193.89,29.72Z"/>
      <path class="cls-1" d="M204.3,23.24h3.3v5a4,4,0,0,1,1-.58,3.71,3.71,0,0,1,1.49-.26,2.88,2.88,0,0,1,2.07.65,3.24,3.24,0,0,1,.67,2.35v7.58h-3.3V31c0-.47-.08-.76-.25-.89a1,1,0,0,0-.59-.19,1.82,1.82,0,0,0-.59.07,2.12,2.12,0,0,0-.47.27v7.64h-3.3Z"/>
      <path class="cls-1" d="M217.8,38.2a3.94,3.94,0,0,1-1.5-.27,2.49,2.49,0,0,1-1.1-.89,4.55,4.55,0,0,1-.67-1.63,11.53,11.53,0,0,1-.23-2.51,14.16,14.16,0,0,1,.22-2.76,4.72,4.72,0,0,1,.64-1.7,2.16,2.16,0,0,1,1-.85,4.07,4.07,0,0,1,1.42-.23,3.05,3.05,0,0,1,1.38.29,3.64,3.64,0,0,1,1.1.89l.22-.92H223V37.94h-2.72L220.1,37q-.28.3-.53.52a2.91,2.91,0,0,1-.52.37,2.17,2.17,0,0,1-.57.22A3.05,3.05,0,0,1,217.8,38.2Zm1-2.6a1.38,1.38,0,0,0,.6-.1,1.69,1.69,0,0,0,.36-.24V30.32a3.38,3.38,0,0,0-.32-.24,1,1,0,0,0-.54-.12,1.07,1.07,0,0,0-.57.13.81.81,0,0,0-.32.46,3.29,3.29,0,0,0-.13.9q0,.57,0,1.45t0,1.36a3,3,0,0,0,.12.82.73.73,0,0,0,.28.41A1,1,0,0,0,218.78,35.6Z"/>
      <path class="cls-1" d="M227.86,38.2a2.74,2.74,0,0,1-3-3.12V27.62h3.3v6.9q0,.7.25.89a.94.94,0,0,0,.59.19,1.53,1.53,0,0,0,.62-.1,2,2,0,0,0,.44-.28v-7.6h3.3V37.94h-2.72l-.22-.92-.5.48a2.51,2.51,0,0,1-.52.37,2.71,2.71,0,0,1-.66.24A4,4,0,0,1,227.86,38.2Z"/>
      <path class="cls-1" d="M235.32,27.62H238l.22.88a4.6,4.6,0,0,1,1.17-.82,3.73,3.73,0,0,1,1.65-.32,2.88,2.88,0,0,1,2.07.65,3.24,3.24,0,0,1,.67,2.35v7.58h-3.3V31c0-.47-.08-.76-.25-.89a1,1,0,0,0-.59-.19,1.82,1.82,0,0,0-.59.07,2.12,2.12,0,0,0-.47.27v7.64h-3.3Z"/>
      <path class="cls-1" d="M245,27.62h1V25.16l3.3-.52v3h1.8v2.46h-1.8v4.5a3.45,3.45,0,0,0,0,.6.81.81,0,0,0,.13.34.43.43,0,0,0,.23.16,1.18,1.18,0,0,0,.32,0,1.52,1.52,0,0,0,.5-.07l.3-.11.4,2.18a8,8,0,0,1-.81.32,4.21,4.21,0,0,1-1.31.16,5.81,5.81,0,0,1-1.29-.13,2.45,2.45,0,0,1-1-.45,2,2,0,0,1-.62-.85,3.56,3.56,0,0,1-.21-1.31V30.08h-1Z"/>
      <path class="cls-1" d="M257.48,38.2a8.26,8.26,0,0,1-2.42-.31,3.68,3.68,0,0,1-2.6-2.67,9.09,9.09,0,0,1-.3-2.5,9.18,9.18,0,0,1,.29-2.48,4.17,4.17,0,0,1,.86-1.66,3.3,3.3,0,0,1,1.4-.93,5.71,5.71,0,0,1,1.89-.29,5.87,5.87,0,0,1,2.13.34,3.07,3.07,0,0,1,1.39,1,4.62,4.62,0,0,1,.75,1.77,11.92,11.92,0,0,1,.23,2.5v.86h-5.36a3.7,3.7,0,0,0,.16.91,1.38,1.38,0,0,0,.31.54,1,1,0,0,0,.48.26,3,3,0,0,0,.69.07,2.69,2.69,0,0,0,1.22-.26,6.6,6.6,0,0,0,1-.6L260.92,37a4.21,4.21,0,0,1-1.42.87A5.36,5.36,0,0,1,257.48,38.2Zm-.73-8.48a.82.82,0,0,0-.8.4,4.19,4.19,0,0,0-.25,1.58h2.1c0-.33,0-.63-.05-.88a2.05,2.05,0,0,0-.13-.62.74.74,0,0,0-.3-.36A1.1,1.1,0,0,0,256.75,29.72Z"/>
      <path class="cls-1" d="M265.84,38.2a4,4,0,0,1-1.51-.27,2.54,2.54,0,0,1-1.12-.89,4.55,4.55,0,0,1-.69-1.63,11.06,11.06,0,0,1-.24-2.51,14.92,14.92,0,0,1,.21-2.76,4.61,4.61,0,0,1,.63-1.7,2.15,2.15,0,0,1,1-.85,4.28,4.28,0,0,1,1.47-.23,2.86,2.86,0,0,1,1.35.29,4.55,4.55,0,0,1,.87.57v-5h3.3v14.7h-2.72l-.22-.92a5.5,5.5,0,0,1-1.1.88A2.53,2.53,0,0,1,265.84,38.2Zm1-2.6a1.68,1.68,0,0,0,.64-.1,1.44,1.44,0,0,0,.4-.24V30.32a2.08,2.08,0,0,0-.36-.24,1.21,1.21,0,0,0-.58-.12,1.13,1.13,0,0,0-.58.13.83.83,0,0,0-.34.46,3.22,3.22,0,0,0-.15.9q0,.57,0,1.45t0,1.36a3,3,0,0,0,.14.82.74.74,0,0,0,.3.41A1.06,1.06,0,0,0,266.82,35.6Z"/>
      <path class="cls-1" d="M0,51.62H1v-1a5.4,5.4,0,0,1,.27-1.9A2.54,2.54,0,0,1,2,47.62a2.18,2.18,0,0,1,1-.47A6,6,0,0,1,4.12,47a6.29,6.29,0,0,1,1.52.15,5.45,5.45,0,0,1,.92.31l-.7,2.2a1.76,1.76,0,0,0-.37-.13,2.24,2.24,0,0,0-.51,0q-.68,0-.68.74v1.36H5.94v2.46H4.3v7.86H1V54.08H0Z"/>
      <path class="cls-1" d="M11.42,62.2a5.75,5.75,0,0,1-2-.31,3.45,3.45,0,0,1-1.43-1,4.36,4.36,0,0,1-.88-1.7,9.09,9.09,0,0,1-.3-2.5,8.88,8.88,0,0,1,.3-2.48A4.18,4.18,0,0,1,8,52.58a3.36,3.36,0,0,1,1.44-.93,6.19,6.19,0,0,1,2-.29,4.39,4.39,0,0,1,3.41,1.28A6.11,6.11,0,0,1,16,56.82a8.92,8.92,0,0,1-.3,2.48A4.29,4.29,0,0,1,14.84,61a3.3,3.3,0,0,1-1.44.94A6.19,6.19,0,0,1,11.42,62.2Zm0-2.4a1,1,0,0,0,.56-.14.9.9,0,0,0,.31-.49,3.93,3.93,0,0,0,.14-1q0-.6,0-1.5t0-1.53a3.38,3.38,0,0,0-.14-.89.68.68,0,0,0-.32-.42,1.33,1.33,0,0,0-.57-.1,1.09,1.09,0,0,0-.56.12.79.79,0,0,0-.31.45,3.64,3.64,0,0,0-.14.92q0,.59,0,1.55t0,1.48a3.6,3.6,0,0,0,.14.91.82.82,0,0,0,.32.46A1.08,1.08,0,0,0,11.44,59.8Z"/>
      <path class="cls-1" d="M17.58,51.62H20.3l.26,1.08a2.77,2.77,0,0,1,.9-.94,2.21,2.21,0,0,1,1.16-.3l.45,0,.37.06v3.22h-.08a3.39,3.39,0,0,0-.54-.2,2.42,2.42,0,0,0-.68-.1,2.64,2.64,0,0,0-1.26.26v7.22h-3.3Z"/>
      <path class="cls-1" d="M29.82,62.2a8.26,8.26,0,0,1-2.42-.31,3.68,3.68,0,0,1-2.6-2.67,10.64,10.64,0,0,1,0-5,4.17,4.17,0,0,1,.86-1.66,3.3,3.3,0,0,1,1.4-.93,5.71,5.71,0,0,1,1.89-.29,5.87,5.87,0,0,1,2.13.34,3.07,3.07,0,0,1,1.39,1,4.62,4.62,0,0,1,.75,1.77,11.92,11.92,0,0,1,.23,2.5v.86H28.08a3.7,3.7,0,0,0,.16.91,1.38,1.38,0,0,0,.31.54,1,1,0,0,0,.48.26,3,3,0,0,0,.69.07,2.69,2.69,0,0,0,1.22-.26,6.6,6.6,0,0,0,1-.6L33.26,61a4.21,4.21,0,0,1-1.42.87A5.36,5.36,0,0,1,29.82,62.2Zm-.73-8.48a.82.82,0,0,0-.8.4A4.19,4.19,0,0,0,28,55.7h2.1c0-.33,0-.63-.05-.88A2.05,2.05,0,0,0,30,54.2a.74.74,0,0,0-.3-.36A1.1,1.1,0,0,0,29.09,53.72Z"/>
      <path class="cls-1" d="M34.1,51.62h3.44l.84,2.94c0,.15.09.34.14.58s.11.5.18.78.13.57.19.87.12.59.19.87h0q.08-.76.25-1.66t.39-1.66l.74-2.72h3.38L40.5,61.94H37.66Z"/>
      <path class="cls-1" d="M49.68,62.2a8.26,8.26,0,0,1-2.42-.31,3.68,3.68,0,0,1-2.6-2.67,10.64,10.64,0,0,1,0-5,4.17,4.17,0,0,1,.86-1.66,3.3,3.3,0,0,1,1.4-.93,5.71,5.71,0,0,1,1.89-.29,5.87,5.87,0,0,1,2.13.34,3.07,3.07,0,0,1,1.39,1,4.62,4.62,0,0,1,.75,1.77A11.92,11.92,0,0,1,53.3,57v.86H47.94a3.7,3.7,0,0,0,.16.91,1.38,1.38,0,0,0,.31.54,1,1,0,0,0,.48.26,3,3,0,0,0,.69.07,2.69,2.69,0,0,0,1.22-.26,6.6,6.6,0,0,0,1-.6L53.12,61a4.21,4.21,0,0,1-1.42.87A5.36,5.36,0,0,1,49.68,62.2ZM49,53.72a.82.82,0,0,0-.8.4,4.19,4.19,0,0,0-.25,1.58H50c0-.33,0-.63-.05-.88a2.05,2.05,0,0,0-.13-.62.74.74,0,0,0-.3-.36A1.1,1.1,0,0,0,49,53.72Z"/>
      <path class="cls-1" d="M54.84,51.62h2.72l.26,1.08a2.77,2.77,0,0,1,.9-.94,2.21,2.21,0,0,1,1.16-.3l.45,0,.37.06v3.22h-.08a3.39,3.39,0,0,0-.54-.2,2.42,2.42,0,0,0-.68-.1,2.64,2.64,0,0,0-1.26.26v7.22h-3.3Z"/>
      <path class="cls-1" d="M62.82,62.2a1.84,1.84,0,0,1-.76-.16,2.09,2.09,0,0,1-.63-.43A2.07,2.07,0,0,1,61,61a1.9,1.9,0,0,1-.16-.78,1.79,1.79,0,0,1,.16-.75,2.13,2.13,0,0,1,.43-.62,2.09,2.09,0,0,1,.63-.43,1.86,1.86,0,0,1,.76-.16,1.92,1.92,0,0,1,.77.16,2,2,0,0,1,.64.43,2.14,2.14,0,0,1,.43.62,1.79,1.79,0,0,1,.16.75,1.9,1.9,0,0,1-.16.78,2.07,2.07,0,0,1-.43.63,2,2,0,0,1-.64.43A1.91,1.91,0,0,1,62.82,62.2Z"/>
      <path class="cls-1" d="M68.56,62.2A1.84,1.84,0,0,1,67.8,62a2.09,2.09,0,0,1-.63-.43,2.07,2.07,0,0,1-.43-.63,1.9,1.9,0,0,1-.16-.78,1.79,1.79,0,0,1,.16-.75,2.13,2.13,0,0,1,.43-.62,2.09,2.09,0,0,1,.63-.43,1.86,1.86,0,0,1,.76-.16,1.92,1.92,0,0,1,.77.16,2,2,0,0,1,.64.43,2.14,2.14,0,0,1,.43.62,1.79,1.79,0,0,1,.16.75,1.9,1.9,0,0,1-.16.78,2.07,2.07,0,0,1-.43.63,2,2,0,0,1-.64.43A1.91,1.91,0,0,1,68.56,62.2Z"/>
      <path class="cls-1" d="M74.3,62.2a1.84,1.84,0,0,1-.76-.16,2.09,2.09,0,0,1-.63-.43,2.07,2.07,0,0,1-.43-.63,1.9,1.9,0,0,1-.16-.78,1.79,1.79,0,0,1,.16-.75,2.13,2.13,0,0,1,.43-.62,2.09,2.09,0,0,1,.63-.43,1.86,1.86,0,0,1,.76-.16,1.92,1.92,0,0,1,.77.16,2,2,0,0,1,.64.43,2.14,2.14,0,0,1,.43.62,1.79,1.79,0,0,1,.16.75,1.9,1.9,0,0,1-.16.78,2.07,2.07,0,0,1-.43.63,2,2,0,0,1-.64.43A1.91,1.91,0,0,1,74.3,62.2Z"/>
      <path class="cls-1" d="M80,62.2a1.84,1.84,0,0,1-.76-.16,2.09,2.09,0,0,1-.63-.43,2.07,2.07,0,0,1-.43-.63,1.9,1.9,0,0,1-.16-.78,1.79,1.79,0,0,1,.16-.75,2.13,2.13,0,0,1,.43-.62,2.09,2.09,0,0,1,.63-.43,1.86,1.86,0,0,1,.76-.16,1.92,1.92,0,0,1,.77.16,2,2,0,0,1,.64.43,2.14,2.14,0,0,1,.43.62,1.79,1.79,0,0,1,.16.75,1.9,1.9,0,0,1-.16.78,2.07,2.07,0,0,1-.43.63,2,2,0,0,1-.64.43A1.91,1.91,0,0,1,80,62.2Z"/>
      <path class="cls-1" d="M85.78,62.2A1.84,1.84,0,0,1,85,62a2.09,2.09,0,0,1-.63-.43A2.07,2.07,0,0,1,84,61a1.9,1.9,0,0,1-.16-.78,1.79,1.79,0,0,1,.16-.75,2.13,2.13,0,0,1,.43-.62A2.09,2.09,0,0,1,85,58.4a1.86,1.86,0,0,1,.76-.16,1.92,1.92,0,0,1,.77.16,2,2,0,0,1,.64.43,2.14,2.14,0,0,1,.43.62,1.79,1.79,0,0,1,.16.75,1.9,1.9,0,0,1-.16.78,2.07,2.07,0,0,1-.43.63,2,2,0,0,1-.64.43A1.91,1.91,0,0,1,85.78,62.2Z"/>
      <path class="cls-1" d="M91.52,62.2a1.84,1.84,0,0,1-.76-.16,2.09,2.09,0,0,1-.63-.43A2.07,2.07,0,0,1,89.7,61a1.9,1.9,0,0,1-.16-.78,1.79,1.79,0,0,1,.16-.75,2.13,2.13,0,0,1,.43-.62,2.09,2.09,0,0,1,.63-.43,1.86,1.86,0,0,1,.76-.16,1.92,1.92,0,0,1,.77.16,2,2,0,0,1,.64.43,2.14,2.14,0,0,1,.43.62,1.79,1.79,0,0,1,.16.75,1.9,1.9,0,0,1-.16.78,2.07,2.07,0,0,1-.43.63,2,2,0,0,1-.64.43A1.91,1.91,0,0,1,91.52,62.2Z"/>
      <path class="cls-1" d="M97.26,62.2A1.84,1.84,0,0,1,96.5,62a2.09,2.09,0,0,1-.63-.43,2.07,2.07,0,0,1-.43-.63,1.9,1.9,0,0,1-.16-.78,1.79,1.79,0,0,1,.16-.75,2.13,2.13,0,0,1,.43-.62,2.09,2.09,0,0,1,.63-.43,1.86,1.86,0,0,1,.76-.16,1.92,1.92,0,0,1,.77.16,2,2,0,0,1,.64.43,2.14,2.14,0,0,1,.43.62,1.79,1.79,0,0,1,.16.75,1.9,1.9,0,0,1-.16.78,2.07,2.07,0,0,1-.43.63A2,2,0,0,1,98,62,1.91,1.91,0,0,1,97.26,62.2Z"/>
      <path class="cls-1" d="M103,62.2a1.84,1.84,0,0,1-.76-.16,2.09,2.09,0,0,1-.63-.43,2.07,2.07,0,0,1-.43-.63,1.9,1.9,0,0,1-.16-.78,1.79,1.79,0,0,1,.16-.75,2.13,2.13,0,0,1,.43-.62,2.09,2.09,0,0,1,.63-.43,1.86,1.86,0,0,1,.76-.16,1.92,1.92,0,0,1,.77.16,2,2,0,0,1,.64.43,2.14,2.14,0,0,1,.43.62,1.79,1.79,0,0,1,.16.75,1.9,1.9,0,0,1-.16.78,2.07,2.07,0,0,1-.43.63,2,2,0,0,1-.64.43A1.91,1.91,0,0,1,103,62.2Z"/>
      <path class="cls-1" d="M108.74,62.2A1.84,1.84,0,0,1,108,62a2.09,2.09,0,0,1-.63-.43,2.07,2.07,0,0,1-.43-.63,1.9,1.9,0,0,1-.16-.78,1.79,1.79,0,0,1,.16-.75,2.13,2.13,0,0,1,.43-.62,2.09,2.09,0,0,1,.63-.43,1.86,1.86,0,0,1,.76-.16,1.92,1.92,0,0,1,.77.16,2,2,0,0,1,.64.43,2.14,2.14,0,0,1,.43.62,1.79,1.79,0,0,1,.16.75,1.9,1.9,0,0,1-.16.78,2.07,2.07,0,0,1-.43.63,2,2,0,0,1-.64.43A1.91,1.91,0,0,1,108.74,62.2Z"/>
      <path class="cls-1" d="M114.48,62.2a1.84,1.84,0,0,1-.76-.16,2.09,2.09,0,0,1-.63-.43,2.07,2.07,0,0,1-.43-.63,1.9,1.9,0,0,1-.16-.78,1.79,1.79,0,0,1,.16-.75,2.13,2.13,0,0,1,.43-.62,2.09,2.09,0,0,1,.63-.43,1.86,1.86,0,0,1,.76-.16,1.92,1.92,0,0,1,.77.16,2,2,0,0,1,.64.43,2.14,2.14,0,0,1,.43.62,1.79,1.79,0,0,1,.16.75,1.9,1.9,0,0,1-.16.78,2.07,2.07,0,0,1-.43.63,2,2,0,0,1-.64.43A1.91,1.91,0,0,1,114.48,62.2Z"/>
      <path class="cls-1" d="M120.22,62.2a1.84,1.84,0,0,1-.76-.16,2.09,2.09,0,0,1-.63-.43,2.07,2.07,0,0,1-.43-.63,1.9,1.9,0,0,1-.16-.78,1.79,1.79,0,0,1,.16-.75,2.13,2.13,0,0,1,.43-.62,2.09,2.09,0,0,1,.63-.43,1.86,1.86,0,0,1,.76-.16,1.92,1.92,0,0,1,.77.16,2,2,0,0,1,.64.43,2.14,2.14,0,0,1,.43.62,1.79,1.79,0,0,1,.16.75,1.9,1.9,0,0,1-.16.78,2.07,2.07,0,0,1-.43.63A2,2,0,0,1,121,62,1.91,1.91,0,0,1,120.22,62.2Z"/>
      <path class="cls-1" d="M126,62.2a1.84,1.84,0,0,1-.76-.16,2.09,2.09,0,0,1-.63-.43,2.07,2.07,0,0,1-.43-.63,1.9,1.9,0,0,1-.16-.78,1.79,1.79,0,0,1,.16-.75,2.13,2.13,0,0,1,.43-.62,2.09,2.09,0,0,1,.63-.43,1.86,1.86,0,0,1,.76-.16,1.92,1.92,0,0,1,.77.16,2,2,0,0,1,.64.43,2.14,2.14,0,0,1,.43.62,1.79,1.79,0,0,1,.16.75,1.9,1.9,0,0,1-.16.78,2.07,2.07,0,0,1-.43.63,2,2,0,0,1-.64.43A1.91,1.91,0,0,1,126,62.2Z"/>
      <path class="cls-1" d="M131.7,62.2a1.84,1.84,0,0,1-.76-.16,2.09,2.09,0,0,1-.63-.43,2.07,2.07,0,0,1-.43-.63,1.9,1.9,0,0,1-.16-.78,1.79,1.79,0,0,1,.16-.75,2.13,2.13,0,0,1,.43-.62,2.09,2.09,0,0,1,.63-.43,1.86,1.86,0,0,1,.76-.16,1.92,1.92,0,0,1,.77.16,2,2,0,0,1,.64.43,2.14,2.14,0,0,1,.43.62,1.79,1.79,0,0,1,.16.75,1.9,1.9,0,0,1-.16.78,2.07,2.07,0,0,1-.43.63,2,2,0,0,1-.64.43A1.91,1.91,0,0,1,131.7,62.2Z"/>
      <path class="cls-1" d="M137.44,62.2a1.84,1.84,0,0,1-.76-.16,2.09,2.09,0,0,1-.63-.43,2.07,2.07,0,0,1-.43-.63,1.9,1.9,0,0,1-.16-.78,1.79,1.79,0,0,1,.16-.75,2.13,2.13,0,0,1,.43-.62,2.09,2.09,0,0,1,.63-.43,1.86,1.86,0,0,1,.76-.16,1.92,1.92,0,0,1,.77.16,2,2,0,0,1,.64.43,2.14,2.14,0,0,1,.43.62,1.79,1.79,0,0,1,.16.75,1.9,1.9,0,0,1-.16.78,2.07,2.07,0,0,1-.43.63,2,2,0,0,1-.64.43A1.91,1.91,0,0,1,137.44,62.2Z"/>
      <path class="cls-1" d="M143.18,62.2a1.84,1.84,0,0,1-.76-.16,2.09,2.09,0,0,1-.63-.43,2.07,2.07,0,0,1-.43-.63,1.9,1.9,0,0,1-.16-.78,1.79,1.79,0,0,1,.16-.75,2.13,2.13,0,0,1,.43-.62,2.09,2.09,0,0,1,.63-.43,1.86,1.86,0,0,1,.76-.16,1.92,1.92,0,0,1,.77.16,2,2,0,0,1,.64.43,2.14,2.14,0,0,1,.43.62,1.79,1.79,0,0,1,.16.75A1.9,1.9,0,0,1,145,61a2.07,2.07,0,0,1-.43.63A2,2,0,0,1,144,62,1.91,1.91,0,0,1,143.18,62.2Z"/>
      <path class="cls-1" d="M148.92,62.2a1.84,1.84,0,0,1-.76-.16,2.09,2.09,0,0,1-.63-.43,2.07,2.07,0,0,1-.43-.63,1.9,1.9,0,0,1-.16-.78,1.79,1.79,0,0,1,.16-.75,2.13,2.13,0,0,1,.43-.62,2.09,2.09,0,0,1,.63-.43,1.86,1.86,0,0,1,.76-.16,1.92,1.92,0,0,1,.77.16,2,2,0,0,1,.64.43,2.14,2.14,0,0,1,.43.62,1.79,1.79,0,0,1,.16.75,1.9,1.9,0,0,1-.16.78,2.07,2.07,0,0,1-.43.63,2,2,0,0,1-.64.43A1.91,1.91,0,0,1,148.92,62.2Z"/>
      <path class="cls-1" d="M154.66,62.2a1.84,1.84,0,0,1-.76-.16,2.09,2.09,0,0,1-.63-.43,2.07,2.07,0,0,1-.43-.63,1.9,1.9,0,0,1-.16-.78,1.79,1.79,0,0,1,.16-.75,2.13,2.13,0,0,1,.43-.62,2.09,2.09,0,0,1,.63-.43,1.86,1.86,0,0,1,.76-.16,1.92,1.92,0,0,1,.77.16,2,2,0,0,1,.64.43,2.14,2.14,0,0,1,.43.62,1.79,1.79,0,0,1,.16.75,1.9,1.9,0,0,1-.16.78,2.07,2.07,0,0,1-.43.63,2,2,0,0,1-.64.43A1.91,1.91,0,0,1,154.66,62.2Z"/>
      <path class="cls-1" d="M160.4,62.2a1.84,1.84,0,0,1-.76-.16,2.09,2.09,0,0,1-.63-.43,2.07,2.07,0,0,1-.43-.63,1.9,1.9,0,0,1-.16-.78,1.79,1.79,0,0,1,.16-.75,2.13,2.13,0,0,1,.43-.62,2.09,2.09,0,0,1,.63-.43,1.86,1.86,0,0,1,.76-.16,1.92,1.92,0,0,1,.77.16,2,2,0,0,1,.64.43,2.14,2.14,0,0,1,.43.62,1.79,1.79,0,0,1,.16.75,1.9,1.9,0,0,1-.16.78,2.07,2.07,0,0,1-.43.63,2,2,0,0,1-.64.43A1.91,1.91,0,0,1,160.4,62.2Z"/>
      <path class="cls-1" d="M166.14,62.2a1.84,1.84,0,0,1-.76-.16,2.09,2.09,0,0,1-.63-.43,2.07,2.07,0,0,1-.43-.63,1.9,1.9,0,0,1-.16-.78,1.79,1.79,0,0,1,.16-.75,2.13,2.13,0,0,1,.43-.62,2.09,2.09,0,0,1,.63-.43,1.86,1.86,0,0,1,.76-.16,1.92,1.92,0,0,1,.77.16,2,2,0,0,1,.64.43,2.14,2.14,0,0,1,.43.62,1.79,1.79,0,0,1,.16.75A1.9,1.9,0,0,1,168,61a2.07,2.07,0,0,1-.43.63,2,2,0,0,1-.64.43A1.91,1.91,0,0,1,166.14,62.2Z"/>
      <path class="cls-1" d="M171.88,62.2a1.84,1.84,0,0,1-.76-.16,2.09,2.09,0,0,1-.63-.43,2.07,2.07,0,0,1-.43-.63,1.9,1.9,0,0,1-.16-.78,1.79,1.79,0,0,1,.16-.75,2.13,2.13,0,0,1,.43-.62,2.09,2.09,0,0,1,.63-.43,1.86,1.86,0,0,1,.76-.16,1.92,1.92,0,0,1,.77.16,2,2,0,0,1,.64.43,2.14,2.14,0,0,1,.43.62,1.79,1.79,0,0,1,.16.75,1.9,1.9,0,0,1-.16.78,2.07,2.07,0,0,1-.43.63,2,2,0,0,1-.64.43A1.91,1.91,0,0,1,171.88,62.2Z"/>
      <path class="cls-1" d="M177.63,62.2a1.84,1.84,0,0,1-.76-.16,2.09,2.09,0,0,1-.63-.43,2.07,2.07,0,0,1-.43-.63,1.9,1.9,0,0,1-.16-.78,1.79,1.79,0,0,1,.16-.75,2.13,2.13,0,0,1,.43-.62,2.09,2.09,0,0,1,.63-.43,1.86,1.86,0,0,1,.76-.16,1.92,1.92,0,0,1,.77.16,2,2,0,0,1,.64.43,2.14,2.14,0,0,1,.43.62,1.79,1.79,0,0,1,.16.75,1.9,1.9,0,0,1-.16.78,2.07,2.07,0,0,1-.43.63,2,2,0,0,1-.64.43A1.91,1.91,0,0,1,177.63,62.2Z"/>
      <path class="cls-1" d="M183.37,62.2a1.84,1.84,0,0,1-.76-.16,2.09,2.09,0,0,1-.63-.43,2.07,2.07,0,0,1-.43-.63,1.9,1.9,0,0,1-.16-.78,1.79,1.79,0,0,1,.16-.75,2.13,2.13,0,0,1,.43-.62,2.09,2.09,0,0,1,.63-.43,1.86,1.86,0,0,1,.76-.16,1.92,1.92,0,0,1,.77.16,2,2,0,0,1,.64.43,2.14,2.14,0,0,1,.43.62,1.79,1.79,0,0,1,.16.75,1.9,1.9,0,0,1-.16.78,2.07,2.07,0,0,1-.43.63,2,2,0,0,1-.64.43A1.91,1.91,0,0,1,183.37,62.2Z"/>
      <path class="cls-1" d="M189.11,62.2a1.84,1.84,0,0,1-.76-.16,2.09,2.09,0,0,1-.63-.43,2.07,2.07,0,0,1-.43-.63,1.9,1.9,0,0,1-.16-.78,1.79,1.79,0,0,1,.16-.75,2.13,2.13,0,0,1,.43-.62,2.09,2.09,0,0,1,.63-.43,1.86,1.86,0,0,1,.76-.16,1.92,1.92,0,0,1,.77.16,2,2,0,0,1,.64.43,2.14,2.14,0,0,1,.43.62,1.79,1.79,0,0,1,.16.75,1.9,1.9,0,0,1-.16.78,2.07,2.07,0,0,1-.43.63,2,2,0,0,1-.64.43A1.91,1.91,0,0,1,189.11,62.2Z"/>
      <path class="cls-1" d="M194.85,62.2a1.84,1.84,0,0,1-.76-.16,2.09,2.09,0,0,1-.63-.43A2.07,2.07,0,0,1,193,61a1.9,1.9,0,0,1-.16-.78,1.79,1.79,0,0,1,.16-.75,2.13,2.13,0,0,1,.43-.62,2.09,2.09,0,0,1,.63-.43,1.86,1.86,0,0,1,.76-.16,1.92,1.92,0,0,1,.77.16,2,2,0,0,1,.64.43,2.14,2.14,0,0,1,.43.62,1.79,1.79,0,0,1,.16.75,1.9,1.9,0,0,1-.16.78,2.07,2.07,0,0,1-.43.63,2,2,0,0,1-.64.43A1.91,1.91,0,0,1,194.85,62.2Z"/>
      <path class="cls-1" d="M200.59,62.2a1.84,1.84,0,0,1-.76-.16,2.09,2.09,0,0,1-.63-.43,2.07,2.07,0,0,1-.43-.63,1.9,1.9,0,0,1-.16-.78,1.79,1.79,0,0,1,.16-.75,2.13,2.13,0,0,1,.43-.62,2.09,2.09,0,0,1,.63-.43,1.86,1.86,0,0,1,.76-.16,1.92,1.92,0,0,1,.77.16,2,2,0,0,1,.64.43,2.14,2.14,0,0,1,.43.62,1.79,1.79,0,0,1,.16.75,1.9,1.9,0,0,1-.16.78,2.07,2.07,0,0,1-.43.63,2,2,0,0,1-.64.43A1.91,1.91,0,0,1,200.59,62.2Z"/>
      <path class="cls-1" d="M206.33,62.2a1.84,1.84,0,0,1-.76-.16,2.09,2.09,0,0,1-.63-.43,2.07,2.07,0,0,1-.43-.63,1.9,1.9,0,0,1-.16-.78,1.79,1.79,0,0,1,.16-.75,2.13,2.13,0,0,1,.43-.62,2.09,2.09,0,0,1,.63-.43,1.86,1.86,0,0,1,.76-.16,1.92,1.92,0,0,1,.77.16,2,2,0,0,1,.64.43,2.14,2.14,0,0,1,.43.62,1.79,1.79,0,0,1,.16.75,1.9,1.9,0,0,1-.16.78,2.07,2.07,0,0,1-.43.63,2,2,0,0,1-.64.43A1.91,1.91,0,0,1,206.33,62.2Z"/>
      <path class="cls-1" d="M212.07,62.2a1.84,1.84,0,0,1-.76-.16,2.09,2.09,0,0,1-.63-.43,2.07,2.07,0,0,1-.43-.63,1.9,1.9,0,0,1-.16-.78,1.79,1.79,0,0,1,.16-.75,2.13,2.13,0,0,1,.43-.62,2.09,2.09,0,0,1,.63-.43,1.86,1.86,0,0,1,.76-.16,1.92,1.92,0,0,1,.77.16,2,2,0,0,1,.64.43,2.14,2.14,0,0,1,.43.62,1.79,1.79,0,0,1,.16.75,1.9,1.9,0,0,1-.16.78,2.07,2.07,0,0,1-.43.63,2,2,0,0,1-.64.43A1.91,1.91,0,0,1,212.07,62.2Z"/>
      <path class="cls-1" d="M217.81,62.2A1.84,1.84,0,0,1,217,62a2.09,2.09,0,0,1-.63-.43A2.07,2.07,0,0,1,216,61a1.9,1.9,0,0,1-.16-.78,1.79,1.79,0,0,1,.16-.75,2.13,2.13,0,0,1,.43-.62,2.09,2.09,0,0,1,.63-.43,1.86,1.86,0,0,1,.76-.16,1.92,1.92,0,0,1,.77.16,2,2,0,0,1,.64.43,2.14,2.14,0,0,1,.43.62,1.79,1.79,0,0,1,.16.75,1.9,1.9,0,0,1-.16.78,2.07,2.07,0,0,1-.43.63,2,2,0,0,1-.64.43A1.91,1.91,0,0,1,217.81,62.2Z"/>
      <path class="cls-1" d="M223.55,62.2a1.84,1.84,0,0,1-.76-.16,2.09,2.09,0,0,1-.63-.43,2.07,2.07,0,0,1-.43-.63,1.9,1.9,0,0,1-.16-.78,1.79,1.79,0,0,1,.16-.75,2.13,2.13,0,0,1,.43-.62,2.09,2.09,0,0,1,.63-.43,1.86,1.86,0,0,1,.76-.16,1.92,1.92,0,0,1,.77.16,2,2,0,0,1,.64.43,2.14,2.14,0,0,1,.43.62,1.79,1.79,0,0,1,.16.75,1.9,1.9,0,0,1-.16.78,2.07,2.07,0,0,1-.43.63,2,2,0,0,1-.64.43A1.91,1.91,0,0,1,223.55,62.2Z"/>
      <path class="cls-1" d="M229.29,62.2a1.84,1.84,0,0,1-.76-.16,2.09,2.09,0,0,1-.63-.43,2.07,2.07,0,0,1-.43-.63,1.9,1.9,0,0,1-.16-.78,1.79,1.79,0,0,1,.16-.75,2.13,2.13,0,0,1,.43-.62,2.09,2.09,0,0,1,.63-.43,1.86,1.86,0,0,1,.76-.16,1.92,1.92,0,0,1,.77.16,2,2,0,0,1,.64.43,2.14,2.14,0,0,1,.43.62,1.79,1.79,0,0,1,.16.75,1.9,1.9,0,0,1-.16.78,2.07,2.07,0,0,1-.43.63,2,2,0,0,1-.64.43A1.91,1.91,0,0,1,229.29,62.2Z"/>
      <path class="cls-1" d="M235,62.2a1.84,1.84,0,0,1-.76-.16,2.09,2.09,0,0,1-.63-.43,2.07,2.07,0,0,1-.43-.63,1.9,1.9,0,0,1-.16-.78,1.79,1.79,0,0,1,.16-.75,2.13,2.13,0,0,1,.43-.62,2.09,2.09,0,0,1,.63-.43,1.86,1.86,0,0,1,.76-.16,1.92,1.92,0,0,1,.77.16,2,2,0,0,1,.64.43,2.14,2.14,0,0,1,.43.62,1.79,1.79,0,0,1,.16.75,1.9,1.9,0,0,1-.16.78,2.07,2.07,0,0,1-.43.63,2,2,0,0,1-.64.43A1.91,1.91,0,0,1,235,62.2Z"/>
      <path class="cls-1" d="M240.77,62.2A1.84,1.84,0,0,1,240,62a2.09,2.09,0,0,1-.63-.43,2.07,2.07,0,0,1-.43-.63,1.9,1.9,0,0,1-.16-.78,1.79,1.79,0,0,1,.16-.75,2.13,2.13,0,0,1,.43-.62,2.09,2.09,0,0,1,.63-.43,1.86,1.86,0,0,1,.76-.16,1.92,1.92,0,0,1,.77.16,2,2,0,0,1,.64.43,2.14,2.14,0,0,1,.43.62,1.79,1.79,0,0,1,.16.75,1.9,1.9,0,0,1-.16.78,2.07,2.07,0,0,1-.43.63,2,2,0,0,1-.64.43A1.91,1.91,0,0,1,240.77,62.2Z"/>
      <path class="cls-1" d="M246.51,62.2a1.84,1.84,0,0,1-.76-.16,2.09,2.09,0,0,1-.63-.43,2.07,2.07,0,0,1-.43-.63,1.9,1.9,0,0,1-.16-.78,1.79,1.79,0,0,1,.16-.75,2.13,2.13,0,0,1,.43-.62,2.09,2.09,0,0,1,.63-.43,1.86,1.86,0,0,1,.76-.16,1.92,1.92,0,0,1,.77.16,2,2,0,0,1,.64.43,2.14,2.14,0,0,1,.43.62,1.79,1.79,0,0,1,.16.75,1.9,1.9,0,0,1-.16.78,2.07,2.07,0,0,1-.43.63,2,2,0,0,1-.64.43A1.91,1.91,0,0,1,246.51,62.2Z"/>
      <path class="cls-1" d="M252.25,62.2a1.84,1.84,0,0,1-.76-.16,2.09,2.09,0,0,1-.63-.43,2.07,2.07,0,0,1-.43-.63,1.9,1.9,0,0,1-.16-.78,1.79,1.79,0,0,1,.16-.75,2.13,2.13,0,0,1,.43-.62,2.09,2.09,0,0,1,.63-.43,1.86,1.86,0,0,1,.76-.16,1.92,1.92,0,0,1,.77.16,2,2,0,0,1,.64.43,2.14,2.14,0,0,1,.43.62,1.79,1.79,0,0,1,.16.75,1.9,1.9,0,0,1-.16.78,2.07,2.07,0,0,1-.43.63A2,2,0,0,1,253,62,1.91,1.91,0,0,1,252.25,62.2Z"/>
      <path class="cls-1" d="M258,62.2a1.84,1.84,0,0,1-.76-.16,2.09,2.09,0,0,1-.63-.43,2.07,2.07,0,0,1-.43-.63,1.9,1.9,0,0,1-.16-.78,1.79,1.79,0,0,1,.16-.75,2.13,2.13,0,0,1,.43-.62,2.09,2.09,0,0,1,.63-.43,1.86,1.86,0,0,1,.76-.16,1.92,1.92,0,0,1,.77.16,2,2,0,0,1,.64.43,2.14,2.14,0,0,1,.43.62,1.79,1.79,0,0,1,.16.75,1.9,1.9,0,0,1-.16.78,2.07,2.07,0,0,1-.43.63,2,2,0,0,1-.64.43A1.91,1.91,0,0,1,258,62.2Z"/>
      <path class="cls-1" d="M263.73,62.2A1.84,1.84,0,0,1,263,62a2.09,2.09,0,0,1-.63-.43,2.07,2.07,0,0,1-.43-.63,1.9,1.9,0,0,1-.16-.78,1.79,1.79,0,0,1,.16-.75,2.13,2.13,0,0,1,.43-.62,2.09,2.09,0,0,1,.63-.43,1.86,1.86,0,0,1,.76-.16,1.92,1.92,0,0,1,.77.16,2,2,0,0,1,.64.43,2.14,2.14,0,0,1,.43.62,1.79,1.79,0,0,1,.16.75,1.9,1.9,0,0,1-.16.78,2.07,2.07,0,0,1-.43.63,2,2,0,0,1-.64.43A1.91,1.91,0,0,1,263.73,62.2Z"/>
      <path class="cls-1" d="M269.47,62.2a1.84,1.84,0,0,1-.76-.16,2.09,2.09,0,0,1-.63-.43,2.07,2.07,0,0,1-.43-.63,1.9,1.9,0,0,1-.16-.78,1.79,1.79,0,0,1,.16-.75,2.13,2.13,0,0,1,.43-.62,2.09,2.09,0,0,1,.63-.43,1.86,1.86,0,0,1,.76-.16,1.92,1.92,0,0,1,.77.16,2,2,0,0,1,.64.43,2.14,2.14,0,0,1,.43.62,1.79,1.79,0,0,1,.16.75,1.9,1.9,0,0,1-.16.78,2.07,2.07,0,0,1-.43.63,2,2,0,0,1-.64.43A1.91,1.91,0,0,1,269.47,62.2Z"/>
    </g>
  </g>
</svg>
