<svg xmlns="http://www.w3.org/2000/svg" viewBox="0 0 620 590">
  <defs>
    <style>
      .cls-1 {
        fill: #fff;
      }
    </style>
  </defs>
  <title>アートボード 10</title>
  <g id="graphcs">
    <path class="cls-1" d="M619.8,324.78c-.54-7.69-1.5-15.76-2.76-23.92-1.2-7.81-3.74-15.56-5.53-23.42s-3.78-15.67-6.09-23.22c-2.42-7.9-4.32-15.82-7.24-23-3.23-7.9-7.78-14.68-11.51-21.07-4.32-7.4-8.55-14.65-13.69-21.1a190.41,190.41,0,0,0-17.11-18.47c-6.19-6-12.06-12.13-18.6-17.07a233.26,233.26,0,0,0-21-14,243.32,243.32,0,0,0-22.32-11.79c-8.46-3.93-16.69-6.37-23.68-8.67-11.15-3.67-19.88-5.13-24.48-5.11-6.35,0-16.32.32-27.26.47-8.93.12-18.56-.74-27.32,0-11.18,1-20.73,3.66-26.24,6.62s-14.1,2.68-23.33,1.9c0-.93,0-1.85,0-2.8-.06-6.1,1.41-12.35,1.69-18.8a163.77,163.77,0,0,0-.69-18.84c-.44-6-.42-12.35-2.32-18.72a83.65,83.65,0,0,0-7.67-17.3,82.6,82.6,0,0,0-9.82-14c-3.8-4.27-8.69-7.45-13-10.93-4.55-3.66-8.85-7.52-13.52-10.26C291,8.31,285.54,6.33,280.78,4.48,274.17,1.89,268.45,0,264.45,0c-6.71,0-11.22,3.66-14.74,7.83a74.91,74.91,0,0,0-9.17,14.51c-3.93,7.86-5.61,10,.39,14,6.87,4.51,6.93,1.46,16,3.79,4.92,1.27,10.73,2,16,4,5.48,2,10.36,5.17,14.51,7.82,5.67,3.62,9.54,8,11.18,13.72,1.52,5.29,1.86,11.51,1.85,18,0,5.7-1.14,11.76-1,18a76.15,76.15,0,0,1-1.85,17.06q-.5,2.37-1,4.7c-1,.31-2,.57-2.84,1-11.17-7.88-5.71-12.06-18.15-20.16-6.7-4.36-15-8.22-25.59-8s-20.24,2.74-28.83,4.92c-16.28,4.14-13.21,6.91-27.56,10-11,2.4-9-1.45-22.67-1.09-6.53.17-14.17,0-22.47,1.28a161.72,161.72,0,0,0-22.17,4.51,129.15,129.15,0,0,0-23.06,9.31c-7.13,3.76-13.77,9-20.55,14C76.07,144,69.36,149,63.45,154.79s-11,12.57-15.85,19.08c-5.1,6.79-10.28,13.43-13.8,20.64-3.19,6.54-5.93,15-9.13,24.38-2.6,7.6-4.94,16-7.35,24.94-2.18,8.05-3.78,16.62-5.66,25.36-1.8,8.34-4.92,16.64-6.34,25.28s-2.68,17.26-3.6,25.82c-.94,8.8-.62,17.6-.92,26-.33,9-1.16,17.82-.61,26S2,388.85,3,396.93c1,8.3,2,16.51,3.45,24.45,1.49,8.31,4.42,16.11,6.35,23.85,2.07,8.3,4,16.27,6.6,23.7,2.84,8.25,5.38,16.11,8.78,23a108.55,108.55,0,0,0,13.26,20.69A256.93,256.93,0,0,0,60,533.43a214.06,214.06,0,0,0,20.79,18.64c7.25,5.49,15.65,9.74,24,14.13a130.53,130.53,0,0,0,25.83,10c8.76,2.43,17.72,5.12,27.28,5.31,11.86.24,21.14.09,28.74.52,12.84.73,21,1,28.7,1.76,8.2.86,15.89,2.84,28.56,3.11,9.39.2,16.93-1.58,24.41-2.23,7.67-.66,15.25-1.43,24.46-1.71,6.95-.21,14.9.2,24.52.84,7.09.47,15.07,1.74,24.34,2.94,9.48,1.22,18.14,2.08,26.08,2.67,9.76.73,18.43.21,26.19.18,10.15,0,18.83.93,26.25,0,10.55-1.31,18.56-4.31,25.51-6.23,9.89-2.73,17.35-5.35,25.5-5.94a133.73,133.73,0,0,0,28.06-4.62c8-2.3,17.17-4.86,26.4-10.8,7-4.53,14-11.06,21.68-18.7A214.5,214.5,0,0,0,566,521.67a184.42,184.42,0,0,0,14.17-21.94c4.28-7.58,8.71-15.13,12.13-23.21S598,460,600.66,451.69s5.13-16.82,7.13-25.19c2.09-8.72,4.39-17.2,5.82-25.56,1.55-9,3.49-17.68,4.41-25.9,1.06-9.48.69-18.38,1.1-26.21C619.52,341.43,620.39,333.3,619.8,324.78ZM372.58,260.13c4.14-.36,14-.72,24-5.28,6.8-3.11,12.83-9,18.48-16a207.2,207.2,0,0,0,16.37-23.68c6.12-10,11.73-17,20.78-18.58,8.25-1.41,19,1.21,27.3,7.83C486.79,210.28,493,219,494,229.4c.76,7.48.88,17.94,1.81,29,.81,9.61,2.38,19.75,2.18,29-.25,11.8-2.15,22.35-6,28.38-4,6.32-9.47,14.54-16.94,20.53a41.18,41.18,0,0,1-24.76,9.46c-7.43.16-15.63-2.92-25-8.21a106.33,106.33,0,0,1-19.47-13.8c-6.12-5.56-10.84-12-15.39-18.24a119.58,119.58,0,0,1-12.26-20.37c-4-8.59-6.25-16.35-6.91-22.62C371.15,261.37,371.38,260.24,372.58,260.13ZM332,304.54c22.71-1,29.62,23.7,29.79,42.41s-18.67,4.44-28.12-3.7S321.85,305,332,304.54ZM276.78,335.9c3.18-16.57,18.92-28.42,18.92-28.42,20.08-1.53,8.69,35.77-4,43.86S273.6,352.47,276.78,335.9ZM130.51,246.12c1.12-8.82,4.06-17.24,7.08-25,3.37-8.65,7.35-16.68,12.55-22.69,6.27-7.23,14.06-11.55,22.09-12.69,13.53-1.93,21.81,1,28.32,7.42,6.24,6.12,10.35,15.59,17.43,24.93a120,120,0,0,0,15.66,16.65c5.79,5.13,12.84,8.82,19,12.56,7.65,4.65,14.73,8.22,20.67,8.66a2.19,2.19,0,0,1,1.66,3.39,247.23,247.23,0,0,0-14,26.38,134.75,134.75,0,0,1-10.43,19c-3.81,5.81-8.05,12.26-13.29,17.21a41.22,41.22,0,0,1-19.08,10c-9.48,2.17-17.5,5.31-24.9,6.43-9.18,1.38-17.57.91-25.32-3.48-6.11-3.47-12.27-9.2-18.53-16.78-4.61-5.58-10-12.06-13.32-21.22-2.5-6.89-3.93-15.19-5.13-24.68A104.76,104.76,0,0,1,130.51,246.12Zm437.4,129.34c-.65,4.3-2,9.32-3.14,15.41a67.56,67.56,0,0,1-3.52,13,102.64,102.64,0,0,1-5.51,12.38c-2.19,3.92-5.21,7.39-7.77,11.12s-4.74,7.84-7.49,11.3c-2.92,3.68-5.77,7.27-8.62,10.47-3.29,3.68-6.73,6.74-9.56,9.61-4.18,4.24-7.94,7.15-10,9.07-1.24,1.13-3.19,1.74-4.33.52-6.17-6.59-5.7-7-11.87-13.62a3.4,3.4,0,0,0-3.11-1c-6.37,1.57-6.36,1.62-12.73,3.19-2.12.52-6.77,3.38-6.74,5.58.5,5.26.37,5.27,1,10.52s.41,5.27,1,10.52a2.66,2.66,0,0,1-1.94,3c-1.88.61-4.67,1.69-8.1,2.53-.13,0-.35-.45-.48-.43-1.95.21-1.87,1-3.81,1.16-1.56.17-2.62-1.41-3-2.94-1.68-7.84-2.08-7.75-3.76-15.59-.35-1.63-1.85-2.16-3.49-1.85-6,1.15-6.07.81-12.08,2s-6.07.82-12.08,2a3,3,0,0,0-2.09,2.57c-1.29,5.76-1.49,5.72-2.78,11.48s-1.86,5.64-3.15,11.4c-.3,1.35-1,2.68-2.37,2.74-9.66.42-9.65.54-19.31,1a3.67,3.67,0,0,1-3.43-2.76c-1.1-5.44-.57-5.54-1.67-11s-1.61-5.33-2.71-10.77a2.67,2.67,0,0,0-2.76-2.33c-8.61.1-8.62-.31-17.23-.21s-8.61.71-17.22.82a2.79,2.79,0,0,0-3,2.11c-1.13,5.92-.83,6-2,11.89s-1.51,5.84-2.64,11.76a3,3,0,0,1-2.76,2.55c-10,.43-10,0-20,.39a2.46,2.46,0,0,1-2.84-2.51c-.27-6.14-.72-6.12-1-12.25s.21-6.16-.06-12.29c-.07-1.69-1.83-2.47-3.52-2.4-6.26.27-6.28,0-12.54.25s-6.27.16-12.53.43l-12.51.55c-1.65.07-2.55,6.37-3,13.35-.32,5.23-.51,10.77-.53,14.16a3.1,3.1,0,0,1-3.13,3.23c-8-.54-7.95-.78-15.91-1.32a3.36,3.36,0,0,1-3.22-3.08c.07-3.6.55-10-.59-15.95s-3.45-11.88-7.69-13.68c-2.86-1.21-7.06-2-11.41-3.17-3.77-1-7.82-1.79-11.53-2.64-4.75-1.08-9-2.06-11.54-2.57a2.66,2.66,0,0,0-3.23,1.84c-2.42,7-2.72,6.89-5.15,13.88a3.23,3.23,0,0,1-3,2.36c-10.13-.7-10.09-1.37-20.22-2.06a2.6,2.6,0,0,1-2.71-2.75A59.83,59.83,0,0,0,172,461.82c-1.54-5.6-4.47-10.83-9.64-12.94-4-1.63-7.95-2.26-11.28-3.16a87,87,0,0,0-11.41-2.36,2.55,2.55,0,0,0-2.82,1c-4.47,7.2-4.29,7.31-8.75,14.5-.82,1.32-2.62,1.32-4,.66-2.75-1.29-7.84-3.15-13.58-6.36-4-2.22-8.24-5.09-12.69-8.05a138.46,138.46,0,0,1-12.23-8.74c-3.95-3.3-7.1-7.3-10.16-11-2.63-3.18-5.77-6.74-7.86-11.33-1.82-4-2.69-8.69-4.14-13.25-1.39-4.37-3.12-8.74-4.2-13.21C58.11,383,57.31,378.32,56.5,374c-1-5.1-1.46-9.81-2-13.66A2.88,2.88,0,0,1,59.56,358a126,126,0,0,0,10.12,10.59,130.46,130.46,0,0,0,11.49,9.1,135.37,135.37,0,0,0,12.58,7.5c4.56,2.51,8.92,4.81,13.07,6.57,5.05,2.14,9.92,3.22,13.91,4.46,8.43,2.61,13.79,4.09,14,4.14a17,17,0,0,1,9.89,5.71,20.42,20.42,0,0,1,4.94,10.6c.29,2.71,5.49,4.77,11.57,6,4.79,1,10,1.93,13.47,2.44,2.9.42,6.6-3.33,10.2-6.81a115.6,115.6,0,0,0,8.62-8.87c.57-.74,1.35-1.64,2.28-1.66,5.45-.09,5.46.41,10.92.31,1.82,0,3.63,1.46,3.47,3.27-.57,6.6-1.13,6.55-1.71,13.16-.12,1.38,1,2.37,2.29,2.84a83.05,83.05,0,0,0,13.17,3.13c5.24.87,10.46,1.65,13.47,2a2.94,2.94,0,0,0,3.23-2.14c2.09-7.22,1.8-7.31,3.89-14.53a3.75,3.75,0,0,1,3.77-2.48l18.95,2.74c1.35.2,2.18,1.69,2.37,3,1,7,.83,7,1.81,14a3.41,3.41,0,0,0,3.29,2.67c4.06.06,10.67-.74,17.19-1.26,7-.56,13.86-.65,17.23-1,1.31-.13,2-1.44,2.25-2.73,1.7-7.44,2.27-7.31,4-14.74A2.65,2.65,0,0,1,318.1,414c6.65.14,6.66-.36,13.31-.21s6.64.66,13.29.8c1.47,0,3,.76,3.21,2.22,1.38,8.41,1.18,8.44,2.56,16.85.22,1.36,1.3,1.95,2.67,2.09,3,.3,7.22.58,11.79.57,3.91,0,8.06.24,11.87.12,4.91-.15,9.24-.77,11.83-.9a2.44,2.44,0,0,0,2.53-2.27c1.2-7.8,1.53-7.74,2.73-15.54a3,3,0,0,1,3-2.58c3.08,0,8.5,0,13.71-.11,6.64-.1,13-.11,13.7-.14s2,4.82,3.12,10.41c.8,4,1.47,8.18,2,11.05a3.47,3.47,0,0,0,4.16,2.76c7.76-2.59,7.59-3.1,15.35-5.69s7.78-2.53,15.54-5.12a3,3,0,0,0,1.91-2c2.71-9.3,2.78-9.28,5.49-18.58a3.1,3.1,0,0,1,2.2-2.15c3.08-.78,9.18-1.95,10.48.06,3.66,5.65-2.53,20,.34,19.84,1.89-.08,7.45-.63,13-1.25s10.92-1.11,13-1.35c.51-.06.46-1.06.53-1.58,2.12-6.6,2.76-6.39,4.93-13,.21-.64.17-1.61.73-2a79.57,79.57,0,0,1,7.06-3.73c2.79-1.21,7.09-4.65,11.61-9.58,3.13-3.41,5.9-7.91,9.26-12s7-7.59,10-11.38c3.65-4.6,7.14-8.59,9.69-11.6,1.9-2.23,5.5-1.09,5.33,1.84C569.78,363.24,569,368.18,567.91,375.46Z"/>
  </g>
</svg>
